<svg xmlns="http://www.w3.org/2000/svg" xmlns:xlink="http://www.w3.org/1999/xlink" xmlns:lucid="lucid" width="1107.6" height="1213.5"><g transform="translate(-379.5 -46.99999999994924)" lucid:page-tab-id="0_0"><path d="M0 0h1836.44v1685.24H0z" fill="#fff"/><path d="M920 220c0 11.05-8.95 20-20 20s-20-8.95-20-20 8.95-20 20-20 20 8.95 20 20z" stroke="#666"/><path d="M900 241v32.62" stroke="#333" fill="none"/><path d="M899.98 240.5l.52-.02v.53h-1v-.56z" stroke="#333" stroke-width=".05" fill="#333"/><path d="M900 288.38l-4.63-14.26h9.26z" stroke="#333" fill="#333"/><path d="M826 290c-8.84 0-16 7.16-16 16v48c0 8.84 7.16 16 16 16h148c8.84 0 16-7.16 16-16v-48c0-8.84-7.16-16-16-16z" stroke="#000" stroke-opacity="0" fill="#009985"/><use xlink:href="#a" transform="matrix(1,0,0,1,818,298) translate(24.76543209876542 26.488888888888887)"/><use xlink:href="#b" transform="matrix(1,0,0,1,818,298) translate(119.4814814814815 26.488888888888887)"/><use xlink:href="#c" transform="matrix(1,0,0,1,818,298) translate(11.777777777777782 47.822222222222216)"/><use xlink:href="#d" transform="matrix(1,0,0,1,818,298) translate(51.28395061728396 47.822222222222216)"/><path d="M900 370.5v53.98" stroke="#333" fill="none"/><path d="M900.5 370.5h-1v-.5h1z" stroke="#333" stroke-width=".05" fill="#333"/><path d="M900 439.25l-4.63-14.27h9.26z" stroke="#333" fill="#333"/><path d="M453.15 76a8 8 0 0 1 8-8h836.75a8 8 0 0 1 8 8v25.16a8 8 0 0 1-8 8H461.15a8 8 0 0 1-8-8z" stroke="#000" stroke-opacity="0" stroke-width="2" fill="#fff" fill-opacity="0"/><use xlink:href="#e" transform="matrix(1,0,0,1,457.14655278534315,71.99999999994924) translate(294.6988888888889 25.782777777777778)"/><use xlink:href="#f" transform="matrix(1,0,0,1,457.14655278534315,71.99999999994924) translate(444.6025925925926 25.782777777777778)"/><path d="M725.65 107.8h317.57M725.68 107.8h-1.03M1043.2 107.8h1.02" stroke="#a9afb8" stroke-width="2" fill="none"/><path d="M453.15 117.16a8 8 0 0 1 8-8h837.7a8 8 0 0 1 8 8V120a8 8 0 0 1-8 8h-837.7a8 8 0 0 1-8-8z" stroke="#000" stroke-opacity="0" stroke-width="2" fill="#fff" fill-opacity="0"/><use xlink:href="#g" transform="matrix(1,0,0,1,457.1465527853436,113.15522395684805) translate(332.3652469135803 14.917037037037037)"/><use xlink:href="#h" transform="matrix(1,0,0,1,457.1465527853436,113.15522395684805) translate(406.1698765432099 14.917037037037037)"/><use xlink:href="#i" transform="matrix(1,0,0,1,457.1465527853436,113.15522395684805) translate(427.4147325102881 14.917037037037037)"/><use xlink:href="#j" transform="matrix(1,0,0,1,457.1465527853436,113.15522395684805) translate(457.15753086419755 14.917037037037037)"/><path d="M893.83 445.1a9.7 9.7 0 0 1 12.34 0l72.66 59.8a6.6 6.6 0 0 1 0 10.2l-72.66 59.8a9.7 9.7 0 0 1-12.34 0l-72.66-59.8a6.6 6.6 0 0 1 0-10.2z" stroke="#009985" stroke-width="4" fill="#fff"/><path d="M732.16 510.5h-35.28v-1h35.28zm84.1 0h-51.15v-1h51.17z" stroke="#333" stroke-width=".05" fill="#333"/><path d="M816.77 510l.04.5h-.54v-1h.55z" fill="#333"/><path d="M816.8 510l.04.52h-.6v-1.04h.6zm-.52-.48v.96h.5l-.04-.48.04-.48z" stroke="#333" stroke-width=".05" fill="#333"/><path d="M696.38 514.63L682.12 510l14.26-4.63z" fill="#333"/><path d="M696.88 515.32L680.5 510l16.38-5.32zM683.74 510l12.14 3.95v-7.9z" stroke="#333" stroke-width=".05" fill="#333"/><use xlink:href="#k" transform="matrix(1,0,0,1,732.1589712735182,499.2) translate(0.004999999999999005 14.4)"/><path d="M680 510c0 11.05-8.95 20-20 20s-20-8.95-20-20 8.95-20 20-20 20 8.95 20 20z" stroke="#666" fill="#fff"/><path d="M672 510c0 6.63-5.37 12-12 12s-12-5.37-12-12 5.37-12 12-12 12 5.37 12 12z" stroke="#666"/><path d="M776 884.75c-8.84 0-16 7.16-16 16v48c0 8.84 7.16 16 16 16h128c8.84 0 16-7.16 16-16v-48c0-8.84-7.16-16-16-16z" stroke="#000" stroke-opacity="0" fill="#00b098"/><use xlink:href="#l" transform="matrix(1,0,0,1,768,892.7511011120056) translate(10.875 24.799999999999997)"/><use xlink:href="#m" transform="matrix(1,0,0,1,768,892.7511011120056) translate(78.125 24.799999999999997)"/><use xlink:href="#n" transform="matrix(1,0,0,1,768,892.7511011120056) translate(103.125 24.799999999999997)"/><use xlink:href="#o" transform="matrix(1,0,0,1,768,892.7511011120056) translate(34.875 46.4)"/><path d="M1136 884.75c-8.84 0-16 7.16-16 16v48c0 8.84 7.16 16 16 16h128c8.84 0 16-7.16 16-16v-48c0-8.84-7.16-16-16-16z" stroke="#000" stroke-opacity="0" fill="#00b098"/><use xlink:href="#p" transform="matrix(1,0,0,1,1128,892.7511011120056) translate(27.025 14.4)"/><use xlink:href="#q" transform="matrix(1,0,0,1,1128,892.7511011120056) translate(87.975 14.4)"/><use xlink:href="#r" transform="matrix(1,0,0,1,1128,892.7511011120056) translate(6.599999999999994 36)"/><use xlink:href="#m" transform="matrix(1,0,0,1,1128,892.7511011120056) translate(82.4 36)"/><use xlink:href="#n" transform="matrix(1,0,0,1,1128,892.7511011120056) translate(107.4 36)"/><use xlink:href="#o" transform="matrix(1,0,0,1,1128,892.7511011120056) translate(34.875 57.6)"/><path d="M1013.75 625a10 10 0 0 1 12.5 0l87.5 70a6.4 6.4 0 0 1 0 10l-87.5 70a10 10 0 0 1-12.5 0l-87.5-70a6.4 6.4 0 0 1 0-10z" stroke="#009985" stroke-width="4" fill="#fff"/><path d="M1200.5 868.37h-1v-106.1h1zm-10.54-168.72l1.9.46 1.82.76 1.67 1.03 1.5 1.26 1.26 1.5 1.04 1.66.75 1.82.45 1.9.15 1.94v28.68h-1v-28.64l-.14-1.82-.42-1.75-.7-1.67-.94-1.54-1.17-1.37-1.37-1.17-1.54-.95-1.67-.7-1.75-.4-1.82-.15h-69.32v-1h69.36z" stroke="#333" stroke-width=".05" fill="#333"/><path d="M1118.68 700.5h-.56l.04-.5-.04-.5h.56z" fill="#333"/><path d="M1118.7 700.52h-.6l.04-.52-.05-.52h.6zm-.56-1l.05.48-.06.48h.5v-.96z" stroke="#333" stroke-width=".05" fill="#333"/><path d="M1200 883.13l-4.63-14.26h9.27z" fill="#333"/><path d="M1200 884.75l-5.32-16.38h10.64zm-3.95-15.38l3.95 12.14 3.95-12.13z" stroke="#333" stroke-width=".05" fill="#333"/><use xlink:href="#s" transform="matrix(1,0,0,1,1186.025,740.6570601243138) translate(0.005000000000000782 14.4)"/><path d="M840.5 867.87h-1V762h1zm80.84-167.37h-69.32l-1.82.14-1.75.42-1.67.7-1.54.94-1.37 1.17-1.17 1.37-.95 1.54-.7 1.67-.4 1.75-.15 1.82v28.4h-1v-28.44l.15-1.94.46-1.9.76-1.82 1.03-1.67 1.26-1.5 1.5-1.26 1.66-1.04 1.82-.75 1.9-.45 1.94-.15h69.36z" stroke="#333" stroke-width=".05" fill="#333"/><path d="M921.84 700l.04.5h-.56v-1h.56z" fill="#333"/><path d="M921.86 700l.05.52h-.6v-1.04h.6zm-.5-.48v.96h.5l-.05-.48.06-.48z" stroke="#333" stroke-width=".05" fill="#333"/><path d="M840 882.63l-4.63-14.26h9.26z" fill="#333"/><path d="M840 884.25l-5.32-16.38h10.64zm-3.95-15.38L840 881l3.95-12.13z" stroke="#333" stroke-width=".05" fill="#333"/><use xlink:href="#k" transform="matrix(1,0,0,1,823.525,740.4070851243137) translate(0.004999999999999005 14.4)"/><path d="M820 491.67a8 8 0 0 1 8-8h144a8 8 0 0 1 8 8v36.66a8 8 0 0 1-8 8H828a8 8 0 0 1-8-8z" stroke="#000" stroke-opacity="0" fill="#fff" fill-opacity="0"/><use xlink:href="#t" transform="matrix(1,0,0,1,825,488.6712633413347) translate(16.82716049382716 20.109722222222224)"/><use xlink:href="#u" transform="matrix(1,0,0,1,825,488.6712633413347) translate(47.44444444444444 20.109722222222224)"/><use xlink:href="#v" transform="matrix(1,0,0,1,825,488.6712633413347) translate(97.66666666666667 20.109722222222224)"/><use xlink:href="#w" transform="matrix(1,0,0,1,825,488.6712633413347) translate(32.1358024691358 41.44305555555556)"/><use xlink:href="#x" transform="matrix(1,0,0,1,825,488.6712633413347) translate(67.64197530864197 41.44305555555556)"/><path d="M1020.5 608.85h-1V531.6h1zm-9.1-98.85H1006v.5H980.5v-1h27.52l1.94.15z" stroke="#333" stroke-width=".05" fill="#333"/><path d="M980.5 510.5h-.5v-1h.5z" fill="#333"/><path d="M980.54 510.52h-.56v-1.04h.56zm-.5-1v.96h.45v-.96z" stroke="#333" stroke-width=".05" fill="#333"/><path d="M1020 623.6l-4.63-14.25h9.26z" fill="#333"/><path d="M1020 625.23l-5.32-16.38h10.64zm-3.95-15.38L1020 622l3.95-12.15z" stroke="#333" stroke-width=".05" fill="#333"/><use xlink:href="#s" transform="matrix(1,0,0,1,1006.025,509.9980263548445) translate(0.005000000000000782 14.4)"/><path d="M935 678a8 8 0 0 1 8-8h154a8 8 0 0 1 8 8v44a8 8 0 0 1-8 8H943a8 8 0 0 1-8-8z" stroke="#000" stroke-opacity="0" fill="#fff" fill-opacity="0"/><use xlink:href="#y" transform="matrix(1,0,0,1,940,675) translate(11.075000000000003 17.525)"/><use xlink:href="#z" transform="matrix(1,0,0,1,940,675) translate(42.075 17.525)"/><use xlink:href="#A" transform="matrix(1,0,0,1,940,675) translate(93.925 17.525)"/><use xlink:href="#B" transform="matrix(1,0,0,1,940,675) translate(118.925 17.525)"/><use xlink:href="#C" transform="matrix(1,0,0,1,940,675) translate(42.875 39.125)"/><path d="M840 965.25v87.37" stroke="#333" fill="none"/><path d="M840.5 965.26h-1v-.5h1z" stroke="#333" stroke-width=".05" fill="#333"/><path d="M840 1067.38l-4.63-14.26h9.26z" stroke="#333" fill="#333"/><path d="M860 1089.5c0 11.05-8.95 20-20 20s-20-8.95-20-20c0-11.04 8.95-20 20-20s20 8.96 20 20z" stroke="#666" fill="#fff"/><path d="M852 1089.5c0 6.63-5.37 12-12 12s-12-5.37-12-12 5.37-12 12-12 12 5.38 12 12z" stroke="#666"/><path d="M1200 965.25v87.37" stroke="#333" fill="none"/><path d="M1200.5 965.26h-1v-.5h1z" stroke="#333" stroke-width=".05" fill="#333"/><path d="M1200 1067.38l-4.63-14.26h9.27z" stroke="#333" fill="#333"/><path d="M1220 1089.5c0 11.05-8.95 20-20 20s-20-8.95-20-20c0-11.04 8.95-20 20-20s20 8.96 20 20z" stroke="#666" fill="#fff"/><path d="M1212 1089.5c0 6.63-5.37 12-12 12s-12-5.37-12-12 5.37-12 12-12 12 5.38 12 12z" stroke="#666"/><path d="M400 380h136l24 24v96H400z" stroke="#333" fill="#fff"/><path d="M536 380.48V404h23.52" stroke="#333" fill="#fff"/><g><use xlink:href="#D" transform="matrix(1,0,0,1,405,385) translate(26.525 38.4625)"/><use xlink:href="#E" transform="matrix(1,0,0,1,405,385) translate(54.475 38.4625)"/><use xlink:href="#F" transform="matrix(1,0,0,1,405,385) translate(94.475 38.4625)"/><use xlink:href="#G" transform="matrix(1,0,0,1,405,385) translate(9.899999999999991 60.0625)"/><use xlink:href="#A" transform="matrix(1,0,0,1,405,385) translate(85.10000000000001 60.0625)"/><use xlink:href="#B" transform="matrix(1,0,0,1,405,385) translate(110.10000000000001 60.0625)"/><use xlink:href="#C" transform="matrix(1,0,0,1,405,385) translate(37.875 81.66250000000001)"/></g><path d="M560.87 440.33l1.5 1.34m3.02 2.66l3 2.67m3 2.67l3.02 2.66m3 2.67l3.02 2.67m3 2.66l3.02 2.67m3 2.67l3.02 2.66m3 2.67l3 2.67m3.02 2.66l3 2.67m3.02 2.67l3 2.66m3.02 2.67l3 2.67m3.02 2.66l3 2.67m3.02 2.67l3 2.66m3.02 2.67l3 2.67m3.02 2.66l1.5 1.34" stroke="#333" fill="none"/><path d="M561.2 439.97l-.65.74-.05-.03v-1.34zM639.57 509.4l-.07.58.02.7-.74-.65.67-.74z" stroke="#333" stroke-width=".05" fill="#333"/><path d="M560 1140h140l20 20v80H560z" stroke="#333" fill="#fff"/><path d="M700 1140.48V1160h19.52" stroke="#333" fill="#fff"/><g><use xlink:href="#y" transform="matrix(1,0,0,1,565,1145) translate(6.075000000000003 36.9)"/><use xlink:href="#z" transform="matrix(1,0,0,1,565,1145) translate(37.075 36.9)"/><use xlink:href="#A" transform="matrix(1,0,0,1,565,1145) translate(88.925 36.9)"/><use xlink:href="#B" transform="matrix(1,0,0,1,565,1145) translate(113.925 36.9)"/><use xlink:href="#C" transform="matrix(1,0,0,1,565,1145) translate(37.875 58.5)"/></g><path d="M720.85 1189.65l1.45-1.45m2.9-2.9l2.88-2.88m2.9-2.9l2.9-2.9m2.88-2.88l2.9-2.9m2.9-2.9l2.88-2.88m2.9-2.9l2.88-2.88m2.9-2.9l2.9-2.9m2.88-2.88l2.9-2.9m2.9-2.9l2.88-2.88m2.9-2.9l2.88-2.88m2.9-2.9l2.9-2.9m2.88-2.88l2.9-2.9m2.9-2.9l2.88-2.88m2.9-2.9l2.88-2.88m2.9-2.9l2.9-2.9m2.88-2.88l2.9-2.9m2.9-2.9l2.88-2.88m2.9-2.9l1.44-1.44" stroke="#333" fill="none"/><path d="M721.22 1190l-.72.7v-1.42zM819.55 1091l.1.55-.1.12-.7-.7.68-.7z" stroke="#333" stroke-width=".05" fill="#333"/><path d="M1306.85 1140h139.75l20 20v80h-159.75z" stroke="#333" fill="#fff"/><path d="M1446.6 1140.48V1160h19.53" stroke="#333" fill="#fff"/><g><use xlink:href="#H" transform="matrix(1,0,0,1,1311.8534472146569,1145) translate(9.924999999999997 36.9)"/><use xlink:href="#I" transform="matrix(1,0,0,1,1311.8534472146569,1145) translate(55.275 36.9)"/><use xlink:href="#J" transform="matrix(1,0,0,1,1311.8534472146569,1145) translate(93.22500000000001 36.9)"/><use xlink:href="#A" transform="matrix(1,0,0,1,1311.8534472146569,1145) translate(7.875 58.5)"/><use xlink:href="#K" transform="matrix(1,0,0,1,1311.8534472146569,1145) translate(32.875 58.5)"/><use xlink:href="#C" transform="matrix(1,0,0,1,1311.8534472146569,1145) translate(67.875 58.5)"/></g><path d="M1306 1169.16l-1.43-1.32m-2.84-2.64l-2.84-2.65m-2.84-2.64l-2.84-2.64m-2.84-2.64l-2.84-2.64m-2.83-2.65l-2.83-2.64m-2.84-2.66l-2.84-2.64m-2.84-2.64l-2.84-2.65m-2.84-2.63l-2.83-2.65m-2.84-2.64l-2.83-2.64m-2.84-2.65l-2.83-2.65m-2.84-2.64l-2.84-2.64m-2.84-2.64l-2.83-2.65m-2.84-2.64l-2.83-2.64m-2.84-2.66l-2.83-2.64m-2.84-2.65l-2.84-2.64m-2.83-2.63l-1.43-1.33" stroke="#333" fill="none"/><path d="M1306.35 1168.82v1.37l-.7-.68.67-.73zM1221.22 1089.5l-.68.72-.1-.1.06-.6-.03-.72z" stroke="#333" stroke-width=".05" fill="#333"/><defs><path fill="#fff" d="M125-24c46 0 70-25 89-51l25 16C214-24 183 4 123 4 8 4-5-146 60-208c32-50 158-61 191-5 5 7 9 14 11 22l-32 10c-9-28-33-43-69-43-74 0-108 51-108 125 0 46 24 75 72 75" id="L"/><path fill="#fff" d="M30-147c31-64 166-65 159 27C183-49 158 1 86 4 9 8 1-88 30-147zM88-20c53 0 68-48 68-100 0-31-11-51-44-50-52 1-68 46-68 97 0 32 13 53 44 53" id="M"/><path fill="#fff" d="M67-158c22-48 132-52 116 29L158 0h-32l25-140c3-38-53-32-70-12C52-117 51-52 38 0H6l36-190h30" id="N"/><path fill="#fff" d="M111-194c62-3 86 47 72 106H45c-7 38 6 69 45 68 27-1 43-14 53-32l24 11C152-15 129 4 87 4 38 3 12-23 12-71c0-70 32-119 99-123zm44 81c14-66-71-72-95-28-4 8-8 17-11 28h106" id="O"/><path fill="#fff" d="M124 0L87-78 21 0h-35l86-98-46-92h33l34 74 61-74h37l-83 92 50 98h-34" id="P"/><path fill="#fff" d="M51-54c-9 22 5 41 31 30L79-1C43 14 10-4 19-52l22-115H19l5-23h22l19-43h21l-9 43h35l-4 23H73" id="Q"/><path fill="#fff" d="M50-231l6-30h32l-6 30H50zM6 0l37-190h31L37 0H6" id="R"/><g id="a"><use transform="matrix(0.04938271604938272,0,0,0.04938271604938272,0,0)" xlink:href="#L"/><use transform="matrix(0.04938271604938272,0,0,0.04938271604938272,12.790123456790125,0)" xlink:href="#M"/><use transform="matrix(0.04938271604938272,0,0,0.04938271604938272,22.66666666666667,0)" xlink:href="#N"/><use transform="matrix(0.04938271604938272,0,0,0.04938271604938272,32.543209876543216,0)" xlink:href="#N"/><use transform="matrix(0.04938271604938272,0,0,0.04938271604938272,42.41975308641976,0)" xlink:href="#O"/><use transform="matrix(0.04938271604938272,0,0,0.04938271604938272,52.2962962962963,0)" xlink:href="#P"/><use transform="matrix(0.04938271604938272,0,0,0.04938271604938272,61.18518518518519,0)" xlink:href="#Q"/><use transform="matrix(0.04938271604938272,0,0,0.04938271604938272,66.12345679012347,0)" xlink:href="#R"/><use transform="matrix(0.04938271604938272,0,0,0.04938271604938272,70.02469135802471,0)" xlink:href="#M"/><use transform="matrix(0.04938271604938272,0,0,0.04938271604938272,79.90123456790126,0)" xlink:href="#N"/></g><g id="b"><use transform="matrix(0.04938271604938272,0,0,0.04938271604938272,0,0)" xlink:href="#O"/><use transform="matrix(0.04938271604938272,0,0,0.04938271604938272,9.876543209876544,0)" xlink:href="#N"/></g><path fill="#fff" d="M165-48c-4 18 1 34 23 27l-3 20c-29 8-62 0-52-35h-2C116-14 99 4 63 4 30 4 8-16 8-49c0-68 71-67 138-67 10-26 0-56-31-54-26 1-42 9-47 31l-32-5c8-67 160-71 144 15-5 28-9 54-15 81zM42-50c3 52 80 24 89-6 7-12 7-24 11-38-47 1-103-4-100 44" id="S"/><g id="c"><use transform="matrix(0.04938271604938272,0,0,0.04938271604938272,0,0)" xlink:href="#Q"/><use transform="matrix(0.04938271604938272,0,0,0.04938271604938272,4.938271604938272,0)" xlink:href="#S"/><use transform="matrix(0.04938271604938272,0,0,0.04938271604938272,14.814814814814817,0)" xlink:href="#N"/><use transform="matrix(0.04938271604938272,0,0,0.04938271604938272,24.69135802469136,0)" xlink:href="#Q"/></g><path fill="#fff" d="M133-28C103 26-5 8 13-77c13-62 24-115 90-117 29-1 46 15 56 35 2-12 6-24 8-34h31L144 75h-31zM45-64c-2 27 10 43 35 43 54-1 69-50 69-103 0-29-15-46-42-46-53-1-58 58-62 106" id="T"/><path fill="#fff" d="M67 3c-93-2-31-127-26-193h32L48-50c-3 39 53 32 70 12 30-34 30-101 43-152h32L157 0h-30c1-10 6-24 4-33-14 20-29 37-64 36" id="U"/><path fill="#fff" d="M60-170H36l11-78h32" id="V"/><path fill="#fff" d="M55-144c13 50 104 24 104 88C159 21 15 23 1-39l26-10c6 40 102 42 102-4-13-50-104-23-104-87 0-71 143-71 148-8l-29 4c-5-35-85-37-89 0" id="W"/><path fill="#fff" d="M44-68c0 29 11 47 38 47 30 0 42-19 51-41l28 9C148-21 126 4 82 4 31 4 10-29 12-85c3-77 74-140 146-93 12 8 15 23 18 40l-31 5c-1-22-13-36-36-36-52 0-65 49-65 101" id="X"/><path fill="#fff" d="M66-151c12-25 30-51 66-40l-6 26C45-176 58-65 38 0H6l36-190h30" id="Y"/><path fill="#fff" d="M248-111c6-24 9-61-24-58-72 9-57 108-77 169h-31l26-142c3-37-50-30-64-10C52-115 50-51 37 0H6l36-190h30c-1 10-6 24-4 32 13-43 101-52 105 5 13-22 29-41 61-41 90 0 28 129 23 194h-31" id="Z"/><g id="d"><use transform="matrix(0.04938271604938272,0,0,0.04938271604938272,0,0)" xlink:href="#T"/><use transform="matrix(0.04938271604938272,0,0,0.04938271604938272,9.876543209876544,0)" xlink:href="#U"/><use transform="matrix(0.04938271604938272,0,0,0.04938271604938272,19.75308641975309,0)" xlink:href="#V"/><use transform="matrix(0.04938271604938272,0,0,0.04938271604938272,23.111111111111114,0)" xlink:href="#O"/><use transform="matrix(0.04938271604938272,0,0,0.04938271604938272,32.98765432098766,0)" xlink:href="#W"/><use transform="matrix(0.04938271604938272,0,0,0.04938271604938272,41.876543209876544,0)" xlink:href="#X"/><use transform="matrix(0.04938271604938272,0,0,0.04938271604938272,50.76543209876542,0)" xlink:href="#Y"/><use transform="matrix(0.04938271604938272,0,0,0.04938271604938272,56.64197530864198,0)" xlink:href="#R"/><use transform="matrix(0.04938271604938272,0,0,0.04938271604938272,60.5432098765432,0)" xlink:href="#Z"/><use transform="matrix(0.04938271604938272,0,0,0.04938271604938272,75.30864197530865,0)" xlink:href="#O"/><use transform="matrix(0.04938271604938272,0,0,0.04938271604938272,85.18518518518519,0)" xlink:href="#U"/><use transform="matrix(0.04938271604938272,0,0,0.04938271604938272,95.06172839506173,0)" xlink:href="#Y"/></g><path d="M24-248c120-7 223 5 221 122C244-46 201 0 124 0H24v-248zM76-40c74 7 117-18 117-86 0-67-45-88-117-82v168" id="aa"/><path d="M25-224v-37h50v37H25zM25 0v-190h50V0H25" id="ab"/><path d="M133-34C117-15 103 5 69 4 32 3 11-16 11-54c-1-60 55-63 116-61 1-26-3-47-28-47-18 1-26 9-28 27l-52-2c7-38 36-58 82-57s74 22 75 68l1 82c-1 14 12 18 25 15v27c-30 8-71 5-69-32zm-48 3c29 0 43-24 42-57-32 0-66-3-65 30 0 17 8 27 23 27" id="ac"/><path d="M195-6C206 82 75 100 31 46c-4-6-6-13-8-21l49-6c3 16 16 24 34 25 40 0 42-37 40-79-11 22-30 35-61 35-53 0-70-43-70-97 0-56 18-96 73-97 30 0 46 14 59 34l2-30h47zm-90-29c32 0 41-27 41-63 0-35-9-62-40-62-32 0-39 29-40 63 0 36 9 62 39 62" id="ad"/><path d="M135-150c-39-12-60 13-60 57V0H25l-1-190h47c2 13-1 29 3 40 6-28 27-53 61-41v41" id="ae"/><path d="M220-157c-53 9-28 100-34 157h-49v-107c1-27-5-49-29-50C55-147 81-57 75 0H25l-1-190h47c2 12-1 28 3 38 10-53 101-56 108 0 13-22 24-43 59-42 82 1 51 116 57 194h-49v-107c-1-25-5-48-29-50" id="af"/><path d="M185-48c-13 30-37 53-82 52C43 2 14-33 14-96s30-98 90-98c62 0 83 45 84 108H66c0 31 8 55 39 56 18 0 30-7 34-22zm-45-69c5-46-57-63-70-21-2 6-4 13-4 21h74" id="ag"/><g id="e"><use transform="matrix(0.0728395061728395,0,0,0.0728395061728395,0,0)" xlink:href="#aa"/><use transform="matrix(0.0728395061728395,0,0,0.0728395061728395,18.86543209876543,0)" xlink:href="#ab"/><use transform="matrix(0.0728395061728395,0,0,0.0728395061728395,26.14938271604938,0)" xlink:href="#ac"/><use transform="matrix(0.0728395061728395,0,0,0.0728395061728395,40.717283950617286,0)" xlink:href="#ad"/><use transform="matrix(0.0728395061728395,0,0,0.0728395061728395,56.66913580246913,0)" xlink:href="#ae"/><use transform="matrix(0.0728395061728395,0,0,0.0728395061728395,66.86666666666666,0)" xlink:href="#ac"/><use transform="matrix(0.0728395061728395,0,0,0.0728395061728395,81.43456790123457,0)" xlink:href="#af"/><use transform="matrix(0.0728395061728395,0,0,0.0728395061728395,104.7432098765432,0)" xlink:href="#af"/><use transform="matrix(0.0728395061728395,0,0,0.0728395061728395,128.05185185185184,0)" xlink:href="#ag"/></g><path d="M88-194c31-1 46 15 58 34l-1-101h50l1 261h-48c-2-10 0-23-3-31C134-8 116 4 84 4 32 4 16-41 15-95c0-56 19-97 73-99zm17 164c33 0 40-30 41-66 1-37-9-64-41-64s-38 30-39 65c0 43 13 65 39 65" id="ah"/><path d="M62-158H24l-5-90h48" id="ai"/><path d="M190-63c-7 42-38 67-86 67-59 0-84-38-90-98-12-110 154-137 174-36l-49 2c-2-19-15-32-35-32-30 0-35 28-38 64-6 74 65 87 74 30" id="aj"/><path d="M115-3C79 11 28 4 28-45v-112H4v-33h27l15-45h31v45h36v33H77v99c-1 23 16 31 38 25v30" id="ak"/><path d="M128 0H69L1-190h53L99-40l48-150h52" id="al"/><path d="M185-48c-13 30-37 53-82 52C43 2 14-33 14-96s30-98 90-98c62 0 83 45 84 108H66c0 31 8 55 39 56 18 0 30-7 34-22zm-45-69c5-46-57-63-70-21-2 6-4 13-4 21h74zm-67-91v-5l45-51h45v8l-60 48H73" id="am"/><g id="f"><use transform="matrix(0.0728395061728395,0,0,0.0728395061728395,0,0)" xlink:href="#ah"/><use transform="matrix(0.0728395061728395,0,0,0.0728395061728395,15.95185185185185,0)" xlink:href="#ai"/><use transform="matrix(0.0728395061728395,0,0,0.0728395061728395,22.14320987654321,0)" xlink:href="#ac"/><use transform="matrix(0.0728395061728395,0,0,0.0728395061728395,36.71111111111111,0)" xlink:href="#aj"/><use transform="matrix(0.0728395061728395,0,0,0.0728395061728395,51.279012345679,0)" xlink:href="#ak"/><use transform="matrix(0.0728395061728395,0,0,0.0728395061728395,59.94691358024691,0)" xlink:href="#ab"/><use transform="matrix(0.0728395061728395,0,0,0.0728395061728395,67.23086419753086,0)" xlink:href="#al"/><use transform="matrix(0.0728395061728395,0,0,0.0728395061728395,81.79876543209876,0)" xlink:href="#ab"/><use transform="matrix(0.0728395061728395,0,0,0.0728395061728395,89.08271604938271,0)" xlink:href="#ak"/><use transform="matrix(0.0728395061728395,0,0,0.0728395061728395,97.75061728395062,0)" xlink:href="#am"/></g><path d="M33 0v-248h34V0H33" id="an"/><path d="M117-194c89-4 53 116 60 194h-32v-121c0-31-8-49-39-48C34-167 62-67 57 0H25l-1-190h30c1 10-1 24 2 32 11-22 29-35 61-36" id="ao"/><path d="M135-143c-3-34-86-38-87 0 15 53 115 12 119 90S17 21 10-45l28-5c4 36 97 45 98 0-10-56-113-15-118-90-4-57 82-63 122-42 12 7 21 19 24 35" id="ap"/><path d="M96-169c-40 0-48 33-48 73s9 75 48 75c24 0 41-14 43-38l32 2c-6 37-31 61-74 61-59 0-76-41-82-99-10-93 101-131 147-64 4 7 5 14 7 22l-32 3c-4-21-16-35-41-35" id="aq"/><path d="M114-163C36-179 61-72 57 0H25l-1-190h30c1 12-1 29 2 39 6-27 23-49 58-41v29" id="ar"/><path d="M24-231v-30h32v30H24zM24 0v-190h32V0H24" id="as"/><path d="M115-194c55 1 70 41 70 98S169 2 115 4C84 4 66-9 55-30l1 105H24l-1-265h31l2 30c10-21 28-34 59-34zm-8 174c40 0 45-34 45-75s-6-73-45-74c-42 0-51 32-51 76 0 43 10 73 51 73" id="at"/><path d="M59-47c-2 24 18 29 38 22v24C64 9 27 4 27-40v-127H5v-23h24l9-43h21v43h35v23H59v120" id="au"/><path d="M100-194c62-1 85 37 85 99 1 63-27 99-86 99S16-35 15-95c0-66 28-99 85-99zM99-20c44 1 53-31 53-75 0-43-8-75-51-75s-53 32-53 75 10 74 51 75" id="av"/><g id="g"><use transform="matrix(0.04248971193415638,0,0,0.04248971193415638,0,0)" xlink:href="#an"/><use transform="matrix(0.04248971193415638,0,0,0.04248971193415638,4.248971193415637,0)" xlink:href="#ao"/><use transform="matrix(0.04248971193415638,0,0,0.04248971193415638,12.746913580246911,0)" xlink:href="#ap"/><use transform="matrix(0.04248971193415638,0,0,0.04248971193415638,20.39506172839506,0)" xlink:href="#aq"/><use transform="matrix(0.04248971193415638,0,0,0.04248971193415638,28.04320987654321,0)" xlink:href="#ar"/><use transform="matrix(0.04248971193415638,0,0,0.04248971193415638,33.099485596707815,0)" xlink:href="#as"/><use transform="matrix(0.04248971193415638,0,0,0.04248971193415638,36.456172839506166,0)" xlink:href="#at"/><use transform="matrix(0.04248971193415638,0,0,0.04248971193415638,44.95411522633745,0)" xlink:href="#au"/><use transform="matrix(0.04248971193415638,0,0,0.04248971193415638,49.20308641975308,0)" xlink:href="#as"/><use transform="matrix(0.04248971193415638,0,0,0.04248971193415638,52.55977366255143,0)" xlink:href="#av"/><use transform="matrix(0.04248971193415638,0,0,0.04248971193415638,61.057716049382705,0)" xlink:href="#ao"/></g><path d="M100-194c63 0 86 42 84 106H49c0 40 14 67 53 68 26 1 43-12 49-29l28 8c-11 28-37 45-77 45C44 4 14-33 15-96c1-61 26-98 85-98zm52 81c6-60-76-77-97-28-3 7-6 17-6 28h103" id="aw"/><g id="h"><use transform="matrix(0.04248971193415638,0,0,0.04248971193415638,0,0)" xlink:href="#aw"/><use transform="matrix(0.04248971193415638,0,0,0.04248971193415638,8.497942386831275,0)" xlink:href="#ao"/></g><path d="M141-36C126-15 110 5 73 4 37 3 15-17 15-53c-1-64 63-63 125-63 3-35-9-54-41-54-24 1-41 7-42 31l-33-3c5-37 33-52 76-52 45 0 72 20 72 64v82c-1 20 7 32 28 27v20c-31 9-61-2-59-35zM48-53c0 20 12 33 32 33 41-3 63-29 60-74-43 2-92-5-92 41" id="ax"/><g id="i"><use transform="matrix(0.04248971193415638,0,0,0.04248971193415638,0,0)" xlink:href="#au"/><use transform="matrix(0.04248971193415638,0,0,0.04248971193415638,4.248971193415637,0)" xlink:href="#ax"/><use transform="matrix(0.04248971193415638,0,0,0.04248971193415638,12.746913580246911,0)" xlink:href="#ao"/><use transform="matrix(0.04248971193415638,0,0,0.04248971193415638,21.244855967078188,0)" xlink:href="#au"/></g><path d="M145-31C134-9 116 4 85 4 32 4 16-35 15-94c0-59 17-99 70-100 32-1 48 14 60 33 0-11-1-24 2-32h30l-1 268h-32zM93-21c41 0 51-33 51-76s-8-73-50-73c-40 0-46 35-46 75s5 74 45 74" id="ay"/><path d="M84 4C-5 8 30-112 23-190h32v120c0 31 7 50 39 49 72-2 45-101 50-169h31l1 190h-30c-1-10 1-25-2-33-11 22-28 36-60 37" id="az"/><path d="M47-170H22l-4-78h33" id="aA"/><path d="M115-194c53 0 69 39 70 98 0 66-23 100-70 100C84 3 66-7 56-30L54 0H23l1-261h32v101c10-23 28-34 59-34zm-8 174c40 0 45-34 45-75 0-40-5-75-45-74-42 0-51 32-51 76 0 43 10 73 51 73" id="aB"/><g id="j"><use transform="matrix(0.04248971193415638,0,0,0.04248971193415638,0,0)" xlink:href="#ay"/><use transform="matrix(0.04248971193415638,0,0,0.04248971193415638,8.497942386831275,0)" xlink:href="#az"/><use transform="matrix(0.04248971193415638,0,0,0.04248971193415638,16.99588477366255,0)" xlink:href="#aA"/><use transform="matrix(0.04248971193415638,0,0,0.04248971193415638,19.885185185185183,0)" xlink:href="#ax"/><use transform="matrix(0.04248971193415638,0,0,0.04248971193415638,28.383127572016456,0)" xlink:href="#ar"/><use transform="matrix(0.04248971193415638,0,0,0.04248971193415638,33.43940329218106,0)" xlink:href="#aB"/><use transform="matrix(0.04248971193415638,0,0,0.04248971193415638,41.93734567901234,0)" xlink:href="#as"/><use transform="matrix(0.04248971193415638,0,0,0.04248971193415638,45.29403292181069,0)" xlink:href="#au"/><use transform="matrix(0.04248971193415638,0,0,0.04248971193415638,49.543004115226324,0)" xlink:href="#ar"/><use transform="matrix(0.04248971193415638,0,0,0.04248971193415638,54.59927983539094,0)" xlink:href="#aw"/></g><path fill="#333" d="M190 0L58-211 59 0H30v-248h39L202-35l-2-213h31V0h-41" id="aC"/><path fill="#333" d="M100-194c62-1 85 37 85 99 1 63-27 99-86 99S16-35 15-95c0-66 28-99 85-99zM99-20c44 1 53-31 53-75 0-43-8-75-51-75s-53 32-53 75 10 74 51 75" id="aD"/><path fill="#333" d="M117-194c89-4 53 116 60 194h-32v-121c0-31-8-49-39-48C34-167 62-67 57 0H25l-1-190h30c1 10-1 24 2 32 11-22 29-35 61-36" id="aE"/><g id="k"><use transform="matrix(0.05,0,0,0.05,0,0)" xlink:href="#aC"/><use transform="matrix(0.05,0,0,0.05,12.950000000000001,0)" xlink:href="#aD"/><use transform="matrix(0.05,0,0,0.05,22.950000000000003,0)" xlink:href="#aE"/></g><path fill="#fff" d="M185-189c-5-48-123-54-124 2 14 75 158 14 163 119 3 78-121 87-175 55-17-10-28-26-33-46l33-7c5 56 141 63 141-1 0-78-155-14-162-118-5-82 145-84 179-34 5 7 8 16 11 25" id="aF"/><path fill="#fff" d="M47-170H22l-4-78h33" id="aG"/><path fill="#fff" d="M24-231v-30h32v30H24zM24 0v-190h32V0H24" id="aH"/><path fill="#fff" d="M117-194c89-4 53 116 60 194h-32v-121c0-31-8-49-39-48C34-167 62-67 57 0H25l-1-190h30c1 10-1 24 2 32 11-22 29-35 61-36" id="aI"/><path fill="#fff" d="M135-143c-3-34-86-38-87 0 15 53 115 12 119 90S17 21 10-45l28-5c4 36 97 45 98 0-10-56-113-15-118-90-4-57 82-63 122-42 12 7 21 19 24 35" id="aJ"/><path fill="#fff" d="M96-169c-40 0-48 33-48 73s9 75 48 75c24 0 41-14 43-38l32 2c-6 37-31 61-74 61-59 0-76-41-82-99-10-93 101-131 147-64 4 7 5 14 7 22l-32 3c-4-21-16-35-41-35" id="aK"/><path fill="#fff" d="M114-163C36-179 61-72 57 0H25l-1-190h30c1 12-1 29 2 39 6-27 23-49 58-41v29" id="aL"/><path fill="#fff" d="M59-47c-2 24 18 29 38 22v24C64 9 27 4 27-40v-127H5v-23h24l9-43h21v43h35v23H59v120" id="aM"/><g id="l"><use transform="matrix(0.05,0,0,0.05,0,0)" xlink:href="#aF"/><use transform="matrix(0.05,0,0,0.05,12,0)" xlink:href="#aG"/><use transform="matrix(0.05,0,0,0.05,15.4,0)" xlink:href="#aH"/><use transform="matrix(0.05,0,0,0.05,19.35,0)" xlink:href="#aI"/><use transform="matrix(0.05,0,0,0.05,29.35,0)" xlink:href="#aJ"/><use transform="matrix(0.05,0,0,0.05,38.35,0)" xlink:href="#aK"/><use transform="matrix(0.05,0,0,0.05,47.35,0)" xlink:href="#aL"/><use transform="matrix(0.05,0,0,0.05,53.300000000000004,0)" xlink:href="#aH"/><use transform="matrix(0.05,0,0,0.05,57.25,0)" xlink:href="#aM"/></g><path fill="#fff" d="M100-194c63 0 86 42 84 106H49c0 40 14 67 53 68 26 1 43-12 49-29l28 8c-11 28-37 45-77 45C44 4 14-33 15-96c1-61 26-98 85-98zm52 81c6-60-76-77-97-28-3 7-6 17-6 28h103" id="aN"/><g id="m"><use transform="matrix(0.05,0,0,0.05,0,0)" xlink:href="#aN"/><use transform="matrix(0.05,0,0,0.05,10,0)" xlink:href="#aI"/></g><path fill="#fff" d="M141-36C126-15 110 5 73 4 37 3 15-17 15-53c-1-64 63-63 125-63 3-35-9-54-41-54-24 1-41 7-42 31l-33-3c5-37 33-52 76-52 45 0 72 20 72 64v82c-1 20 7 32 28 27v20c-31 9-61-2-59-35zM48-53c0 20 12 33 32 33 41-3 63-29 60-74-43 2-92-5-92 41" id="aO"/><g id="n"><use transform="matrix(0.05,0,0,0.05,0,0)" xlink:href="#aM"/><use transform="matrix(0.05,0,0,0.05,5,0)" xlink:href="#aO"/><use transform="matrix(0.05,0,0,0.05,15,0)" xlink:href="#aI"/><use transform="matrix(0.05,0,0,0.05,25,0)" xlink:href="#aM"/></g><path fill="#fff" d="M145-31C134-9 116 4 85 4 32 4 16-35 15-94c0-59 17-99 70-100 32-1 48 14 60 33 0-11-1-24 2-32h30l-1 268h-32zM93-21c41 0 51-33 51-76s-8-73-50-73c-40 0-46 35-46 75s5 74 45 74" id="aP"/><path fill="#fff" d="M84 4C-5 8 30-112 23-190h32v120c0 31 7 50 39 49 72-2 45-101 50-169h31l1 190h-30c-1-10 1-25-2-33-11 22-28 36-60 37" id="aQ"/><path fill="#fff" d="M115-194c53 0 69 39 70 98 0 66-23 100-70 100C84 3 66-7 56-30L54 0H23l1-261h32v101c10-23 28-34 59-34zm-8 174c40 0 45-34 45-75 0-40-5-75-45-74-42 0-51 32-51 76 0 43 10 73 51 73" id="aR"/><g id="o"><use transform="matrix(0.05,0,0,0.05,0,0)" xlink:href="#aP"/><use transform="matrix(0.05,0,0,0.05,10,0)" xlink:href="#aQ"/><use transform="matrix(0.05,0,0,0.05,20,0)" xlink:href="#aG"/><use transform="matrix(0.05,0,0,0.05,23.4,0)" xlink:href="#aO"/><use transform="matrix(0.05,0,0,0.05,33.4,0)" xlink:href="#aL"/><use transform="matrix(0.05,0,0,0.05,39.35,0)" xlink:href="#aR"/><use transform="matrix(0.05,0,0,0.05,49.35,0)" xlink:href="#aH"/><use transform="matrix(0.05,0,0,0.05,53.300000000000004,0)" xlink:href="#aM"/><use transform="matrix(0.05,0,0,0.05,58.300000000000004,0)" xlink:href="#aL"/><use transform="matrix(0.05,0,0,0.05,64.25,0)" xlink:href="#aN"/></g><path fill="#fff" d="M205 0l-28-72H64L36 0H1l101-248h38L239 0h-34zm-38-99l-47-123c-12 45-31 82-46 123h93" id="aS"/><path fill="#fff" d="M24 0v-261h32V0H24" id="aT"/><g id="p"><use transform="matrix(0.05,0,0,0.05,0,0)" xlink:href="#aS"/><use transform="matrix(0.05,0,0,0.05,12,0)" xlink:href="#aI"/><use transform="matrix(0.05,0,0,0.05,22,0)" xlink:href="#aI"/><use transform="matrix(0.05,0,0,0.05,32,0)" xlink:href="#aQ"/><use transform="matrix(0.05,0,0,0.05,42,0)" xlink:href="#aT"/><use transform="matrix(0.05,0,0,0.05,45.95,0)" xlink:href="#aN"/></g><path fill="#fff" d="M100-194c62-1 85 37 85 99 1 63-27 99-86 99S16-35 15-95c0-66 28-99 85-99zM99-20c44 1 53-31 53-75 0-43-8-75-51-75s-53 32-53 75 10 74 51 75" id="aU"/><g id="q"><use transform="matrix(0.05,0,0,0.05,0,0)" xlink:href="#aJ"/><use transform="matrix(0.05,0,0,0.05,9,0)" xlink:href="#aU"/><use transform="matrix(0.05,0,0,0.05,19,0)" xlink:href="#aI"/></g><g id="r"><use transform="matrix(0.05,0,0,0.05,0,0)" xlink:href="#aH"/><use transform="matrix(0.05,0,0,0.05,3.95,0)" xlink:href="#aI"/><use transform="matrix(0.05,0,0,0.05,13.949999999999998,0)" xlink:href="#aJ"/><use transform="matrix(0.05,0,0,0.05,22.95,0)" xlink:href="#aK"/><use transform="matrix(0.05,0,0,0.05,31.950000000000003,0)" xlink:href="#aL"/><use transform="matrix(0.05,0,0,0.05,37.9,0)" xlink:href="#aH"/><use transform="matrix(0.05,0,0,0.05,41.85,0)" xlink:href="#aM"/><use transform="matrix(0.05,0,0,0.05,46.85,0)" xlink:href="#aH"/><use transform="matrix(0.05,0,0,0.05,50.800000000000004,0)" xlink:href="#aU"/><use transform="matrix(0.05,0,0,0.05,60.800000000000004,0)" xlink:href="#aI"/></g><path fill="#333" d="M140-251c81 0 123 46 123 126C263-46 219 4 140 4 59 4 17-45 17-125s42-126 123-126zm0 227c63 0 89-41 89-101s-29-99-89-99c-61 0-89 39-89 99S79-25 140-24" id="aV"/><path fill="#333" d="M84 4C-5 8 30-112 23-190h32v120c0 31 7 50 39 49 72-2 45-101 50-169h31l1 190h-30c-1-10 1-25-2-33-11 22-28 36-60 37" id="aW"/><path fill="#333" d="M24-231v-30h32v30H24zM24 0v-190h32V0H24" id="aX"/><g id="s"><use transform="matrix(0.05,0,0,0.05,0,0)" xlink:href="#aV"/><use transform="matrix(0.05,0,0,0.05,14,0)" xlink:href="#aW"/><use transform="matrix(0.05,0,0,0.05,24,0)" xlink:href="#aX"/></g><path d="M11 0l48-248h184l-5 28H87l-15 79h140l-5 27H67L50-27h158l-5 27H11" id="aY"/><path d="M55-144c13 50 104 24 104 88C159 21 15 23 1-39l26-10c6 40 102 42 102-4-13-50-104-23-104-87 0-71 143-71 148-8l-29 4c-5-35-85-37-89 0" id="aZ"/><path d="M51-54c-9 22 5 41 31 30L79-1C43 14 10-4 19-52l22-115H19l5-23h22l19-43h21l-9 43h35l-4 23H73" id="ba"/><g id="t"><use transform="matrix(0.04938271604938272,0,0,0.04938271604938272,0,0)" xlink:href="#aY"/><use transform="matrix(0.04938271604938272,0,0,0.04938271604938272,11.851851851851853,0)" xlink:href="#aZ"/><use transform="matrix(0.04938271604938272,0,0,0.04938271604938272,20.74074074074074,0)" xlink:href="#ba"/></g><path d="M44-68c0 29 11 47 38 47 30 0 42-19 51-41l28 9C148-21 126 4 82 4 31 4 10-29 12-85c3-77 74-140 146-93 12 8 15 23 18 40l-31 5c-1-22-13-36-36-36-52 0-65 49-65 101" id="bb"/><path d="M165-48c-4 18 1 34 23 27l-3 20c-29 8-62 0-52-35h-2C116-14 99 4 63 4 30 4 8-16 8-49c0-68 71-67 138-67 10-26 0-56-31-54-26 1-42 9-47 31l-32-5c8-67 160-71 144 15-5 28-9 54-15 81zM42-50c3 52 80 24 89-6 7-12 7-24 11-38-47 1-103-4-100 44" id="bc"/><path d="M6 0l50-261h32L37 0H6" id="bd"/><path d="M50-231l6-30h32l-6 30H50zM6 0l37-190h31L37 0H6" id="be"/><path d="M76-167L44 0H12l33-167H18l4-23h27c3-47 25-81 82-69l-4 24c-35-8-44 15-46 45h37l-5 23H76" id="bf"/><path d="M111-194c62-3 86 47 72 106H45c-7 38 6 69 45 68 27-1 43-14 53-32l24 11C152-15 129 4 87 4 38 3 12-23 12-71c0-70 32-119 99-123zm44 81c14-66-71-72-95-28-4 8-8 17-11 28h106zm-61-98c10-23 31-35 45-54h38l-1 5-66 49H94" id="bg"/><g id="u"><use transform="matrix(0.04938271604938272,0,0,0.04938271604938272,0,0)" xlink:href="#bb"/><use transform="matrix(0.04938271604938272,0,0,0.04938271604938272,8.88888888888889,0)" xlink:href="#bc"/><use transform="matrix(0.04938271604938272,0,0,0.04938271604938272,18.765432098765434,0)" xlink:href="#bd"/><use transform="matrix(0.04938271604938272,0,0,0.04938271604938272,22.666666666666668,0)" xlink:href="#be"/><use transform="matrix(0.04938271604938272,0,0,0.04938271604938272,26.567901234567902,0)" xlink:href="#bf"/><use transform="matrix(0.04938271604938272,0,0,0.04938271604938272,31.506172839506174,0)" xlink:href="#be"/><use transform="matrix(0.04938271604938272,0,0,0.04938271604938272,35.40740740740741,0)" xlink:href="#bg"/></g><path d="M67-162c32-53 139-36 121 50C175-51 163 2 97 4 68 4 52-11 42-31 38 6 28 39 22 75H-9l50-265h29c-1 10 0 20-3 28zm89 36c0-26-10-43-35-43-54 0-67 50-69 103-1 29 14 45 42 46 53 0 62-58 62-106" id="bh"/><path d="M30-147c31-64 166-65 159 27C183-49 158 1 86 4 9 8 1-88 30-147zM88-20c53 0 68-48 68-100 0-31-11-51-44-50-52 1-68 46-68 97 0 32 13 53 44 53" id="bi"/><path d="M67 3c-93-2-31-127-26-193h32L48-50c-3 39 53 32 70 12 30-34 30-101 43-152h32L157 0h-30c1-10 6-24 4-33-14 20-29 37-64 36" id="bj"/><path d="M66-151c12-25 30-51 66-40l-6 26C45-176 58-65 38 0H6l36-190h30" id="bk"/><g id="v"><use transform="matrix(0.04938271604938272,0,0,0.04938271604938272,0,0)" xlink:href="#bh"/><use transform="matrix(0.04938271604938272,0,0,0.04938271604938272,9.876543209876544,0)" xlink:href="#bi"/><use transform="matrix(0.04938271604938272,0,0,0.04938271604938272,19.75308641975309,0)" xlink:href="#bj"/><use transform="matrix(0.04938271604938272,0,0,0.04938271604938272,29.629629629629633,0)" xlink:href="#bk"/></g><path d="M111-194c62-3 86 47 72 106H45c-7 38 6 69 45 68 27-1 43-14 53-32l24 11C152-15 129 4 87 4 38 3 12-23 12-71c0-70 32-119 99-123zm44 81c14-66-71-72-95-28-4 8-8 17-11 28h106zm-10-149c9 18 24 30 30 51-29 2-32-20-49-30-22 10-32 32-67 30v-4l51-47h35" id="bl"/><path d="M111-194c62-3 86 47 72 106H45c-7 38 6 69 45 68 27-1 43-14 53-32l24 11C152-15 129 4 87 4 38 3 12-23 12-71c0-70 32-119 99-123zm44 81c14-66-71-72-95-28-4 8-8 17-11 28h106" id="bm"/><g id="w"><use transform="matrix(0.04938271604938272,0,0,0.04938271604938272,0,0)" xlink:href="#bl"/><use transform="matrix(0.04938271604938272,0,0,0.04938271604938272,9.876543209876544,0)" xlink:href="#ba"/><use transform="matrix(0.04938271604938272,0,0,0.04938271604938272,14.814814814814817,0)" xlink:href="#bk"/><use transform="matrix(0.04938271604938272,0,0,0.04938271604938272,20.69135802469136,0)" xlink:href="#bm"/></g><path d="M68-162c25-46 127-43 121 31C183-60 169 1 98 4 69 5 53-11 43-31L36 0H5l52-261h31zm88 36c2-27-9-43-34-43-55 0-70 51-70 103 0 29 15 45 43 46 52 0 58-58 61-106" id="bn"/><g id="x"><use transform="matrix(0.04938271604938272,0,0,0.04938271604938272,0,0)" xlink:href="#bc"/><use transform="matrix(0.04938271604938272,0,0,0.04938271604938272,9.876543209876544,0)" xlink:href="#bk"/><use transform="matrix(0.04938271604938272,0,0,0.04938271604938272,15.753086419753087,0)" xlink:href="#bn"/><use transform="matrix(0.04938271604938272,0,0,0.04938271604938272,25.629629629629633,0)" xlink:href="#be"/><use transform="matrix(0.04938271604938272,0,0,0.04938271604938272,29.530864197530867,0)" xlink:href="#ba"/><use transform="matrix(0.04938271604938272,0,0,0.04938271604938272,34.46913580246914,0)" xlink:href="#bk"/><use transform="matrix(0.04938271604938272,0,0,0.04938271604938272,40.345679012345684,0)" xlink:href="#bm"/></g><path fill="#333" d="M30 0v-248h187v28H63v79h144v27H63v87h162V0H30" id="bo"/><path fill="#333" d="M135-143c-3-34-86-38-87 0 15 53 115 12 119 90S17 21 10-45l28-5c4 36 97 45 98 0-10-56-113-15-118-90-4-57 82-63 122-42 12 7 21 19 24 35" id="bp"/><path fill="#333" d="M59-47c-2 24 18 29 38 22v24C64 9 27 4 27-40v-127H5v-23h24l9-43h21v43h35v23H59v120" id="bq"/><g id="y"><use transform="matrix(0.05,0,0,0.05,0,0)" xlink:href="#bo"/><use transform="matrix(0.05,0,0,0.05,12,0)" xlink:href="#bp"/><use transform="matrix(0.05,0,0,0.05,21,0)" xlink:href="#bq"/></g><path fill="#333" d="M96-169c-40 0-48 33-48 73s9 75 48 75c24 0 41-14 43-38l32 2c-6 37-31 61-74 61-59 0-76-41-82-99-10-93 101-131 147-64 4 7 5 14 7 22l-32 3c-4-21-16-35-41-35" id="br"/><path fill="#333" d="M114-163C36-179 61-72 57 0H25l-1-190h30c1 12-1 29 2 39 6-27 23-49 58-41v29" id="bs"/><g id="z"><use transform="matrix(0.05,0,0,0.05,0,0)" xlink:href="#aX"/><use transform="matrix(0.05,0,0,0.05,3.95,0)" xlink:href="#aE"/><use transform="matrix(0.05,0,0,0.05,13.949999999999998,0)" xlink:href="#bp"/><use transform="matrix(0.05,0,0,0.05,22.95,0)" xlink:href="#br"/><use transform="matrix(0.05,0,0,0.05,31.950000000000003,0)" xlink:href="#bs"/><use transform="matrix(0.05,0,0,0.05,37.9,0)" xlink:href="#aX"/><use transform="matrix(0.05,0,0,0.05,41.85,0)" xlink:href="#bq"/></g><path fill="#333" d="M100-194c63 0 86 42 84 106H49c0 40 14 67 53 68 26 1 43-12 49-29l28 8c-11 28-37 45-77 45C44 4 14-33 15-96c1-61 26-98 85-98zm52 81c6-60-76-77-97-28-3 7-6 17-6 28h103" id="bt"/><g id="A"><use transform="matrix(0.05,0,0,0.05,0,0)" xlink:href="#bt"/><use transform="matrix(0.05,0,0,0.05,10,0)" xlink:href="#aE"/></g><path fill="#333" d="M141-36C126-15 110 5 73 4 37 3 15-17 15-53c-1-64 63-63 125-63 3-35-9-54-41-54-24 1-41 7-42 31l-33-3c5-37 33-52 76-52 45 0 72 20 72 64v82c-1 20 7 32 28 27v20c-31 9-61-2-59-35zM48-53c0 20 12 33 32 33 41-3 63-29 60-74-43 2-92-5-92 41" id="bu"/><g id="B"><use transform="matrix(0.05,0,0,0.05,0,0)" xlink:href="#bq"/><use transform="matrix(0.05,0,0,0.05,5,0)" xlink:href="#bu"/><use transform="matrix(0.05,0,0,0.05,15,0)" xlink:href="#aE"/><use transform="matrix(0.05,0,0,0.05,25,0)" xlink:href="#bq"/></g><path fill="#333" d="M145-31C134-9 116 4 85 4 32 4 16-35 15-94c0-59 17-99 70-100 32-1 48 14 60 33 0-11-1-24 2-32h30l-1 268h-32zM93-21c41 0 51-33 51-76s-8-73-50-73c-40 0-46 35-46 75s5 74 45 74" id="bv"/><path fill="#333" d="M47-170H22l-4-78h33" id="bw"/><path fill="#333" d="M115-194c53 0 69 39 70 98 0 66-23 100-70 100C84 3 66-7 56-30L54 0H23l1-261h32v101c10-23 28-34 59-34zm-8 174c40 0 45-34 45-75 0-40-5-75-45-74-42 0-51 32-51 76 0 43 10 73 51 73" id="bx"/><g id="C"><use transform="matrix(0.05,0,0,0.05,0,0)" xlink:href="#bv"/><use transform="matrix(0.05,0,0,0.05,10,0)" xlink:href="#aW"/><use transform="matrix(0.05,0,0,0.05,20,0)" xlink:href="#bw"/><use transform="matrix(0.05,0,0,0.05,23.4,0)" xlink:href="#bu"/><use transform="matrix(0.05,0,0,0.05,33.4,0)" xlink:href="#bs"/><use transform="matrix(0.05,0,0,0.05,39.35,0)" xlink:href="#bx"/><use transform="matrix(0.05,0,0,0.05,49.35,0)" xlink:href="#aX"/><use transform="matrix(0.05,0,0,0.05,53.300000000000004,0)" xlink:href="#bq"/><use transform="matrix(0.05,0,0,0.05,58.300000000000004,0)" xlink:href="#bs"/><use transform="matrix(0.05,0,0,0.05,64.25,0)" xlink:href="#bt"/></g><g id="D"><use transform="matrix(0.05,0,0,0.05,0,0)" xlink:href="#aC"/><use transform="matrix(0.05,0,0,0.05,12.950000000000001,0)" xlink:href="#bt"/></g><path fill="#333" d="M115-194c55 1 70 41 70 98S169 2 115 4C84 4 66-9 55-30l1 105H24l-1-265h31l2 30c10-21 28-34 59-34zm-8 174c40 0 45-34 45-75s-6-73-45-74c-42 0-51 32-51 76 0 43 10 73 51 73" id="by"/><g id="E"><use transform="matrix(0.05,0,0,0.05,0,0)" xlink:href="#by"/><use transform="matrix(0.05,0,0,0.05,10,0)" xlink:href="#bt"/><use transform="matrix(0.05,0,0,0.05,20,0)" xlink:href="#aW"/><use transform="matrix(0.05,0,0,0.05,30,0)" xlink:href="#bq"/></g><g id="F"><use transform="matrix(0.05,0,0,0.05,0,0)" xlink:href="#by"/><use transform="matrix(0.05,0,0,0.05,10,0)" xlink:href="#bu"/><use transform="matrix(0.05,0,0,0.05,20,0)" xlink:href="#bp"/></g><g id="G"><use transform="matrix(0.05,0,0,0.05,0,0)" xlink:href="#bp"/><use transform="matrix(0.05,0,0,0.05,9,0)" xlink:href="#bw"/><use transform="matrix(0.05,0,0,0.05,12.4,0)" xlink:href="#aX"/><use transform="matrix(0.05,0,0,0.05,16.35,0)" xlink:href="#aE"/><use transform="matrix(0.05,0,0,0.05,26.35,0)" xlink:href="#bp"/><use transform="matrix(0.05,0,0,0.05,35.35,0)" xlink:href="#br"/><use transform="matrix(0.05,0,0,0.05,44.35,0)" xlink:href="#bs"/><use transform="matrix(0.05,0,0,0.05,50.300000000000004,0)" xlink:href="#aX"/><use transform="matrix(0.05,0,0,0.05,54.25,0)" xlink:href="#bs"/><use transform="matrix(0.05,0,0,0.05,60.20000000000002,0)" xlink:href="#bt"/></g><g id="H"><use transform="matrix(0.05,0,0,0.05,0,0)" xlink:href="#aC"/><use transform="matrix(0.05,0,0,0.05,12.950000000000001,0)" xlink:href="#bw"/><use transform="matrix(0.05,0,0,0.05,16.35,0)" xlink:href="#bt"/><use transform="matrix(0.05,0,0,0.05,26.35,0)" xlink:href="#bp"/><use transform="matrix(0.05,0,0,0.05,35.35,0)" xlink:href="#bq"/></g><path fill="#333" d="M24 0v-261h32V0H24" id="bz"/><g id="I"><use transform="matrix(0.05,0,0,0.05,0,0)" xlink:href="#by"/><use transform="matrix(0.05,0,0,0.05,10,0)" xlink:href="#bz"/><use transform="matrix(0.05,0,0,0.05,13.949999999999998,0)" xlink:href="#aW"/><use transform="matrix(0.05,0,0,0.05,23.95,0)" xlink:href="#bp"/></g><g id="J"><use transform="matrix(0.05,0,0,0.05,0,0)" xlink:href="#aX"/><use transform="matrix(0.05,0,0,0.05,3.95,0)" xlink:href="#aE"/><use transform="matrix(0.05,0,0,0.05,13.949999999999998,0)" xlink:href="#bp"/><use transform="matrix(0.05,0,0,0.05,22.95,0)" xlink:href="#br"/><use transform="matrix(0.05,0,0,0.05,31.950000000000003,0)" xlink:href="#bs"/><use transform="matrix(0.05,0,0,0.05,37.9,0)" xlink:href="#aX"/><use transform="matrix(0.05,0,0,0.05,41.85,0)" xlink:href="#bq"/></g><g id="K"><use transform="matrix(0.05,0,0,0.05,0,0)" xlink:href="#bq"/><use transform="matrix(0.05,0,0,0.05,5,0)" xlink:href="#bu"/><use transform="matrix(0.05,0,0,0.05,15,0)" xlink:href="#aE"/><use transform="matrix(0.05,0,0,0.05,25,0)" xlink:href="#bq"/></g></defs></g></svg>