<svg xmlns="http://www.w3.org/2000/svg" xmlns:xlink="http://www.w3.org/1999/xlink" xmlns:lucid="lucid" width="1469.42" height="1942"><g transform="translate(-471.575 -39.00000000000023)" lucid:page-tab-id="HWEp-vi-RSFO"><path d="M0 0h2364.5v2029.66H0z" fill="#fff"/><path d="M630.75 669.6c0 5.37-4.37 9.74-9.75 9.74s-9.75-4.37-9.75-9.75c0-5.4 4.37-9.76 9.75-9.76s9.75 4.36 9.75 9.75z" stroke="#333" stroke-width="2" fill="#9391ff"/><path d="M621 679.34v27.3l20 31.2m-20-31.2l-20 31.2m0-48.75h40" stroke="#333" stroke-width="2" fill="none"/><path d="M601 659.84h40v100h-40z" fill="none"/><use xlink:href="#a" transform="matrix(1,0,0,1,521.0004299138063,737.8383811128286) translate(70.25 14.6)"/><path d="M800 60h1120v1900H800z" stroke="#333" stroke-width="2" fill-opacity="0"/><use xlink:href="#b" transform="matrix(1,0,0,1,808.0000000000001,68.00000000000023) translate(532.05 15.6)"/><path d="M629.75 349.75c0 5.38-4.37 9.75-9.75 9.75s-9.75-4.37-9.75-9.75S614.62 340 620 340s9.75 4.37 9.75 9.75z" stroke="#333" stroke-width="2" fill="#fff7a1"/><path d="M620 359.5v27.3l20 31.2m-20-31.2L600 418m0-48.75h40" stroke="#333" stroke-width="2" fill="none"/><path d="M600 340h40v100h-40z" fill="none"/><use xlink:href="#c" transform="matrix(1,0,0,1,520,418) translate(59.599999999999994 14.6)"/><path d="M629.75 979.5c0 5.38-4.37 9.75-9.75 9.75s-9.75-4.37-9.75-9.75c0-5.4 4.37-9.75 9.75-9.75s9.75 4.36 9.75 9.75z" stroke="#333" stroke-width="2" fill="#e6ffb8"/><path d="M620 989.25v27.3l20 31.2m-20-31.2l-20 31.2m0-48.75h40" stroke="#333" stroke-width="2" fill="none"/><path d="M600 969.75h40v100h-40z" fill="none"/><use xlink:href="#d" transform="matrix(1,0,0,1,520,1047.747636781334) translate(81.55 14.6)"/><path d="M629.75 1836.87c0 5.38-4.37 9.75-9.75 9.75s-9.75-4.37-9.75-9.75c0-5.4 4.37-9.75 9.75-9.75s9.75 4.36 9.75 9.75z" stroke="#333" stroke-width="2" fill="#edf5ff"/><path d="M620 1846.62v27.3l20 31.2m-20-31.2l-20 31.2m0-48.75h40" stroke="#333" stroke-width="2" fill="none"/><path d="M600 1827.12h40v100h-40z" fill="none"/><use xlink:href="#e" transform="matrix(1,0,0,1,520,1905.1178414837714) translate(48.074999999999996 14.6)"/><path d="M1366 641.84c0 22.1-26.86 40-60 40s-60-17.9-60-40 26.86-40 60-40 60 17.9 60 40z" stroke="#333" stroke-width="2" fill="#dedeff"/><use xlink:href="#f" transform="matrix(1,0,0,1,1245.9993551292905,601.8383811128288) translate(19.07999999999999 44.4)"/><path d="M1386 741.84c0 22.1-31.34 40-70 40s-70-17.9-70-40 31.34-40 70-40 70 17.9 70 40z" stroke="#333" stroke-width="2" fill="#dedeff"/><use xlink:href="#g" transform="matrix(1,0,0,1,1245.9993551292905,701.8383811128288) translate(31.579999999999995 31.9)"/><use xlink:href="#h" transform="matrix(1,0,0,1,1245.9993551292905,701.8383811128288) translate(31.580000000000002 53.5)"/><use xlink:href="#i" transform="matrix(1,0,0,1,1245.9993551292905,701.8383811128288) translate(59.53 53.5)"/><path d="M1380 526.92c0 25.9-30 46.92-67 46.92s-67-21-67-46.92c0-25.9 30-46.92 67-46.92s67 21 67 46.92z" stroke="#333" stroke-width="2" fill="#dedeff"/><use xlink:href="#j" transform="matrix(1,0,0,1,1245.999355129291,480) translate(14.029999999999996 49.65)"/><use xlink:href="#k" transform="matrix(1,0,0,1,1245.999355129291,480) translate(41.029999999999994 49.65)"/><path d="M1391.33 851.84c0 27.6-32.53 50-72.66 50-40.14 0-72.67-22.4-72.67-50 0-27.62 32.53-50 72.67-50 40.13 0 72.66 22.38 72.66 50z" stroke="#333" stroke-width="2" fill="#dedeff"/><use xlink:href="#g" transform="matrix(1,0,0,1,1245.9993551292907,801.8383811128286) translate(34.07999999999999 29.41)"/><use xlink:href="#l" transform="matrix(1,0,0,1,1245.9993551292907,801.8383811128286) translate(57.505 51.01)"/><use xlink:href="#m" transform="matrix(1,0,0,1,1245.9993551292907,801.8383811128286) translate(27.079999999999995 72.61)"/><path d="M1220 1773.56c0 29.58-44.77 53.56-100 53.56s-100-23.98-100-53.56c0-29.58 44.77-53.56 100-53.56s100 23.98 100 53.56z" stroke="#333" stroke-width="2" fill="#cfe4ff"/><use xlink:href="#n" transform="matrix(1,0,0,1,1020,1720) translate(52.48277777777777 37.49166666666667)"/><use xlink:href="#o" transform="matrix(1,0,0,1,1020,1720) translate(125.42722222222223 37.49166666666667)"/><use xlink:href="#p" transform="matrix(1,0,0,1,1020,1720) translate(18.73092592592591 58.29166666666667)"/><use xlink:href="#q" transform="matrix(1,0,0,1,1020,1720) translate(77.32722222222222 58.29166666666667)"/><use xlink:href="#r" transform="matrix(1,0,0,1,1020,1720) translate(101.4012962962963 58.29166666666667)"/><use xlink:href="#s" transform="matrix(1,0,0,1,1020,1720) translate(162.01981481481482 58.29166666666667)"/><use xlink:href="#t" transform="matrix(1,0,0,1,1020,1720) translate(48.56425925925925 79.09166666666668)"/><use xlink:href="#u" transform="matrix(1,0,0,1,1020,1720) translate(102.3938888888889 79.09166666666668)"/><path d="M1140 1646c0 25.4-35.82 46-80 46s-80-20.6-80-46 35.82-46 80-46 80 20.6 80 46z" stroke="#333" stroke-width="2" fill="#cfe4ff"/><use xlink:href="#v" transform="matrix(1,0,0,1,980,1600) translate(24.032777777777763 39.74166666666667)"/><use xlink:href="#w" transform="matrix(1,0,0,1,980,1600) translate(94.18462962962963 39.74166666666667)"/><use xlink:href="#x" transform="matrix(1,0,0,1,980,1600) translate(35.780925925925914 60.54166666666667)"/><path d="M1388.67 993.75c0 24.3-32.54 44-72.67 44s-72.67-19.7-72.67-44 32.54-44 72.67-44 72.67 19.7 72.67 44z" stroke="#333" stroke-width="2" fill="#e6ffb8"/><use xlink:href="#y" transform="matrix(1,0,0,1,1243.3326884626238,949.747636781334) translate(35.50314814814814 35.86666666666667)"/><use xlink:href="#z" transform="matrix(1,0,0,1,1243.3326884626238,949.747636781334) translate(30.808703703703696 56.66666666666667)"/><use xlink:href="#A" transform="matrix(1,0,0,1,1243.3326884626238,949.747636781334) translate(63.54944444444445 56.66666666666667)"/><path d="M1145.33 1284c0 24.3-32.53 44-72.66 44-40.14 0-72.67-19.7-72.67-44s32.53-44 72.67-44c40.13 0 72.66 19.7 72.66 44z" stroke="#333" stroke-width="2" fill="#ced4db"/><use xlink:href="#B" transform="matrix(1,0,0,1,1000,1240) translate(50.910555555555554 22.87666666666667)"/><use xlink:href="#C" transform="matrix(1,0,0,1,1000,1240) translate(26.354999999999997 43.67666666666667)"/><use xlink:href="#D" transform="matrix(1,0,0,1,1000,1240) translate(53.269814814814815 43.67666666666667)"/><use xlink:href="#E" transform="matrix(1,0,0,1,1000,1240) translate(30.94759259259258 64.47666666666667)"/><use xlink:href="#F" transform="matrix(1,0,0,1,1000,1240) translate(67.92537037037037 64.47666666666667)"/><path d="M621.42 1865.74l357.2-220.6M621.44 1865.73l-3 1.85" stroke="#333" fill="none"/><path d="M979.02 1645.48l-.16.1-.52-.85.7-.45z" stroke="#333" stroke-width=".05" fill="#333"/><path d="M621.5 1008.62l620.33-14.86M621.5 1008.62l-3.5.08" stroke="#333" fill="none"/><path d="M1242.33 993.75l.02.5h-.52l-.02-1h.55z" stroke="#333" stroke-width=".05" fill="#333"/><path d="M621.5 1865.9l397-92.23M621.5 1865.88l-3.42.8" stroke="#333" fill="none"/><path d="M1019 1773.55v.52l-.4.1-.2-.98.6-.16z" stroke="#333" stroke-width=".05" fill="#333"/><path d="M529.75 1269.75c0 5.38-4.37 9.75-9.75 9.75s-9.75-4.37-9.75-9.75 4.37-9.75 9.75-9.75 9.75 4.37 9.75 9.75z" stroke="#333" stroke-width="2" fill="#ced4db"/><path d="M520 1279.5v27.3l20 31.2m-20-31.2l-20 31.2m0-48.75h40" stroke="#333" stroke-width="2" fill="none"/><path d="M500 1260h40v100h-40z" fill="none"/><use xlink:href="#G" transform="matrix(1,0,0,1,420,1338) translate(73.575 14.6)"/><path d="M521.5 1298.87l477.92-7.74M521.5 1298.87l-3.5.06" stroke="#333" fill="none"/><path d="M1000 1291.4l.05.22h-.63l-.02-1h.4z" stroke="#333" stroke-width=".05" fill="#333"/><path d="M622.48 698.6l622.17-168.62M622.5 698.6l-3.4.9" stroke="#333" fill="none"/><path d="M1245.1 529.6l.1.75-.43.12-.26-.97.6-.16z" stroke="#333" stroke-width=".05" fill="#333"/><path d="M622.5 698.67l622-56.8M622.5 698.67l-3.5.32" stroke="#333" fill="none"/><path d="M1245 641.84l.02.5-.5.04-.08-1 .58-.05z" stroke="#333" stroke-width=".05" fill="#333"/><path d="M622.5 698.75l622 43.05M622.5 698.76l-3.5-.25" stroke="#333" fill="none"/><path d="M1245.02 741.34l-.02.5.02.5-.57-.04.07-1z" stroke="#333" stroke-width=".05" fill="#333"/><path d="M622.5 698.84l622 152.88M622.5 698.84l-3.4-.84" stroke="#333" fill="none"/><path d="M1245.02 851.33l-.02.5v.53l-.62-.16.24-.97z" stroke="#333" stroke-width=".05" fill="#333"/><path d="M619.9 1825.62l-95.07-443.13" stroke="#333" fill="none"/><path d="M620.53 1826.2l-.52-.1-.5.08-.1-.47.98-.2z" stroke="#333" stroke-width=".05" fill="#333"/><path d="M520.2 1360.96l16.96 18.37-24.88 5.34z" stroke="#333" fill="#fff"/><path d="M1240 310c0 22.1-31.34 40-70 40s-70-17.9-70-40 31.34-40 70-40 70 17.9 70 40z" stroke="#333" stroke-width="2" fill="#fff7a1"/><use xlink:href="#H" transform="matrix(1,0,0,1,1100,270) translate(29.079999999999995 31.9)"/><use xlink:href="#I" transform="matrix(1,0,0,1,1100,270) translate(32.08 53.5)"/><use xlink:href="#J" transform="matrix(1,0,0,1,1100,270) translate(57.08 53.5)"/><path d="M621.5 378.8l477-68.73M621.5 378.8l-3.47.5" stroke="#333" fill="none"/><path d="M1099 310l.02.5-.46.07-.14-1 .6-.08z" stroke="#333" stroke-width=".05" fill="#333"/><path d="M1247.33 434c0 25.4-32.98 46-73.66 46-40.7 0-73.67-20.6-73.67-46s32.98-46 73.67-46c40.68 0 73.66 20.6 73.66 46z" stroke="#333" stroke-width="2" fill="#fff7a1"/><use xlink:href="#K" transform="matrix(1,0,0,1,1100,388) translate(25.554999999999996 37.4)"/><use xlink:href="#L" transform="matrix(1,0,0,1,1100,388) translate(92.45500000000001 37.4)"/><use xlink:href="#M" transform="matrix(1,0,0,1,1100,388) translate(33.10499999999999 59)"/><path d="M619.5 378.94l479 55M619.5 378.94l-3.48-.4" stroke="#333" fill="none"/><path d="M1099.02 433.5l-.02.5v.5l-.57-.06.12-1z" stroke="#333" stroke-width=".05" fill="#333"/><path d="M619 379.38l1.84 256.45M619 379.4l-.02-3.52" stroke="#333" fill="none"/><path d="M621 657.85l-12.9-21.43 25.47-.18z" stroke="#333" fill="#fff"/><path d="M620 968.24l.9-185.4" stroke="#333" fill="none"/><path d="M620.5 968.23v.6l-.5-.1-.5.08v-.58z" stroke="#333" stroke-width=".05" fill="#333"/><path d="M621 760.82l12.62 21.58-25.45-.12z" stroke="#333" fill="#fff"/><path d="M620 1825.6v-732.85" stroke="#333" fill="none"/><path d="M620.5 1826.2l-.5-.1-.5.08v-.6l1 .02z" stroke="#333" stroke-width=".05" fill="#333"/><path d="M620 1070.73l12.73 21.52h-25.46z" stroke="#333" fill="#fff"/><path d="M520.08 1258.5l76.28-475.8" stroke="#333" fill="none"/><path d="M520.58 1258.56l-.1.5-.47-.07-.52.07.1-.67z" stroke="#333" stroke-width=".05" fill="#333"/><path d="M599.85 760.97l9.15 23.26-25.13-4.03z" stroke="#333" fill="#fff"/><path d="M1240 180c0 22.1-31.34 40-70 40s-70-17.9-70-40 31.34-40 70-40 70 17.9 70 40z" stroke="#333" stroke-width="2" fill="#fff7a1"/><use xlink:href="#H" transform="matrix(1,0,0,1,1100,140) translate(29.079999999999995 31.9)"/><use xlink:href="#I" transform="matrix(1,0,0,1,1100,140) translate(37.08 53.5)"/><use xlink:href="#N" transform="matrix(1,0,0,1,1100,140) translate(62.08 53.5)"/><path d="M619.46 378.7l479.08-198.5M619.47 378.7l-3.24 1.33" stroke="#333" fill="none"/><path d="M1099 180l.02.53-.3.13-.4-.93.7-.28z" stroke="#333" stroke-width=".05" fill="#333"/><path d="M1620 924c0 24.3-26.86 44-60 44s-60-19.7-60-44 26.86-44 60-44 60 19.7 60 44z" stroke="#333" stroke-width="2" fill="#effbd8"/><use xlink:href="#O" transform="matrix(1,0,0,1,1500,880) translate(18.604999999999993 36.4)"/><use xlink:href="#P" transform="matrix(1,0,0,1,1500,880) translate(22.554999999999996 58)"/><use xlink:href="#Q" transform="matrix(1,0,0,1,1500,880) translate(47.555 58)"/><path d="M1518.34 1863.12c0 19.88-19.85 36-44.34 36-24.48 0-44.33-16.12-44.33-36s19.85-36 44.33-36c24.5 0 44.34 16.12 44.34 36z" stroke="#333" stroke-width="2" fill="#cfe4ff"/><use xlink:href="#R" transform="matrix(1,0,0,1,1429.667743632228,1827.1178414837714) translate(14.177222222222214 38.61666666666667)"/><path d="M619.5 1866l808.67-2.88M619.5 1866H616" stroke="#333" fill="none"/><path d="M1428.67 1863.12l.02.5h-.55v-1h.54z" stroke="#333" stroke-width=".05" fill="#333"/><path d="M1620 1025c0 24.3-26.86 44-60 44s-60-19.7-60-44 26.86-44 60-44 60 19.7 60 44z" stroke="#333" stroke-width="2" fill="#effbd8"/><use xlink:href="#S" transform="matrix(1,0,0,1,1500,981) translate(19.054999999999996 36.4)"/><use xlink:href="#T" transform="matrix(1,0,0,1,1500,981) translate(80.95500000000001 36.4)"/><use xlink:href="#Q" transform="matrix(1,0,0,1,1500,981) translate(35.05499999999999 58)"/><path d="M1600 1126c0 24.3-26.86 44-60 44s-60-19.7-60-44 26.86-44 60-44 60 19.7 60 44z" stroke="#333" stroke-width="2" fill="#effbd8"/><use xlink:href="#U" transform="matrix(1,0,0,1,1480,1082) translate(28.104999999999993 36.4)"/><use xlink:href="#V" transform="matrix(1,0,0,1,1480,1082) translate(24.029999999999998 58)"/><use xlink:href="#W" transform="matrix(1,0,0,1,1480,1082) translate(58.03 58)"/><path d="M1498.53 924.18l-98.32 37.72" stroke="#333" fill="none"/><path d="M1499 924l.02.53-.32.12-.36-.93.68-.26z" stroke="#333" stroke-width=".05" fill="#333"/><path d="M1379.65 969.8l15.53-19.6 9.12 23.76z" stroke="#333" fill="#fff"/><path d="M1498.52 1024.86l-86.74-24.8" stroke="#333" fill="none"/><path d="M1499.02 1024.5l-.02.5.02.53-.65-.2.27-.95z" stroke="#333" stroke-width=".05" fill="#333"/><path d="M1390.6 994.02l24.2-6.32-7 24.47z" stroke="#333" fill="#fff"/><path d="M1546.67 1626c0 25.4-32.54 46-72.67 46s-72.66-20.6-72.66-46 32.53-46 72.66-46c40.13 0 72.67 20.6 72.67 46z" stroke="#333" stroke-width="2" fill="#edf5ff"/><use xlink:href="#X" transform="matrix(1,0,0,1,1401.3347327342492,1580) translate(40.60499999999999 48.9)"/><path d="M1495.13 1094.93l-100.86-61.9" stroke="#333" fill="none"/><path d="M1495.96 1094.85l-.8.68-.3-.18.52-.86z" stroke="#333" stroke-width=".05" fill="#333"/><path d="M1375.5 1021.52l25 .4-13.3 21.7z" stroke="#333" fill="#fff"/><path d="M1546.67 1726c0 25.4-32.54 46-72.67 46s-72.66-20.6-72.66-46 32.53-46 72.66-46c40.13 0 72.67 20.6 72.67 46z" stroke="#333" stroke-width="2" fill="#edf5ff"/><use xlink:href="#Y" transform="matrix(1,0,0,1,1401.3347327342492,1680) translate(44.05499999999999 48.9)"/><path d="M1546.67 1526c0 25.4-32.54 46-72.67 46s-72.66-20.6-72.66-46 32.53-46 72.66-46c40.13 0 72.67 20.6 72.67 46z" stroke="#333" stroke-width="2" fill="#edf5ff"/><use xlink:href="#Z" transform="matrix(1,0,0,1,1401.3347327342492,1480) translate(31.10499999999999 48.9)"/><path d="M1399.9 1526.23l-105.24 55.63" stroke="#333" fill="none"/><path d="M1400.33 1526l.02.56-.23.12-.47-.88.7-.38z" stroke="#333" stroke-width=".05" fill="#333"/><path d="M1275.2 1592.15l13.07-21.3 11.9 22.5z" stroke="#333" fill="#fff"/><path d="M1399.83 1626H1323" stroke="#333" fill="none"/><path d="M1400.33 1626l.02.5h-.53v-1h.53z" stroke="#333" stroke-width=".05" fill="#333"/><path d="M1300.98 1626l21.52-12.73v25.46z" stroke="#333" fill="#fff"/><path d="M1399.9 1725.77L1295 1670" stroke="#333" fill="none"/><path d="M1400.35 1725.44l-.02.56.02.58-.7-.38.47-.88z" stroke="#333" stroke-width=".05" fill="#333"/><path d="M1275.58 1659.66l24.98-1.13-11.95 22.47z" stroke="#333" fill="#fff"/><path d="M1299 1626c0 22.1-26.86 40-60 40s-60-17.9-60-40 26.86-40 60-40 60 17.9 60 40z" stroke="#333" stroke-width="2" fill="#edf5ff"/><use xlink:href="#aa" transform="matrix(1,0,0,1,1179,1586.0000000000032) translate(41.555 44.4)"/><path d="M1780 1620c0 22.1-26.86 40-60 40s-60-17.9-60-40 26.86-40 60-40 60 17.9 60 40z" stroke="#333" stroke-width="2" fill="#edf5ff"/><g><use xlink:href="#ab" transform="matrix(1,0,0,1,1660,1580) translate(19.60499999999999 44.4)"/></g><path d="M1548.12 1526.2l113.55 51.86" stroke="#333" fill="none"/><path d="M1548.34 1525.76l-.4.9-.3-.12.03-.54-.02-.56z" stroke="#333" stroke-width=".05" fill="#333"/><path d="M1681.7 1587.2l-24.86 2.64 10.57-23.15z" stroke="#333" fill="#fff"/><path d="M1548.17 1625.97l87.86-4.73" stroke="#333" fill="none"/><path d="M1548.2 1626.47l-.55.03.02-.5-.02-.5.5-.03z" stroke="#333" stroke-width=".05" fill="#333"/><path d="M1658.02 1620.05l-20.8 13.87-1.37-25.42z" stroke="#333" fill="#fff"/><path d="M1548.12 1725.78l120.63-60.12" stroke="#333" fill="none"/><path d="M1548.35 1726.22l-.7.35.02-.57-.02-.55.25-.13z" stroke="#333" stroke-width=".05" fill="#333"/><path d="M1688.46 1655.84l-13.58 21-11.36-22.8z" stroke="#333" fill="#fff"/><path d="M1239.37 1667.33l179.53 160.2" stroke="#333" fill="none"/><path d="M1239 1667l.7-.02-.65.73-.84-.73z" stroke="#333" stroke-width=".05" fill="#333"/><path d="M1435.33 1842.2l-24.53-4.84 16.94-19z" stroke="#333" fill="#fff"/><path d="M1719.62 1661.33l-191.3 165.33" stroke="#333" fill="none"/><path d="M1720 1661l.8-.03-.86.74-.64-.73z" stroke="#333" stroke-width=".05" fill="#333"/><path d="M1511.65 1841.06l7.96-23.7 16.65 19.26z" stroke="#333" fill="#fff"/><path d="M1120 1530c0 27.6-26.86 50-60 50s-60-22.4-60-50 26.86-50 60-50 60 22.4 60 50z" stroke="#333" stroke-width="2" fill="#cfe4ff"/><g><use xlink:href="#ac" transform="matrix(1,0,0,1,1000,1480) translate(18.57999999999999 42.525)"/><use xlink:href="#T" transform="matrix(1,0,0,1,1000,1480) translate(82.43 42.525)"/><use xlink:href="#N" transform="matrix(1,0,0,1,1000,1480) translate(39.08 64.125)"/></g><path d="M1385.33 1122.83c0 26.05-32.53 47.17-72.66 47.17-40.14 0-72.67-21.12-72.67-47.17s32.53-47.17 72.67-47.17c40.13 0 72.66 21.12 72.66 47.17z" stroke="#333" stroke-width="2" fill="#e6ffb8"/><g><use xlink:href="#ad" transform="matrix(1,0,0,1,1239.9999999999998,1075.6568924498392) translate(41.10499999999999 26.275)"/><use xlink:href="#ae" transform="matrix(1,0,0,1,1239.9999999999998,1075.6568924498392) translate(90.95500000000001 26.275)"/><use xlink:href="#af" transform="matrix(1,0,0,1,1239.9999999999998,1075.6568924498392) translate(24.32999999999999 47.875)"/><use xlink:href="#ag" transform="matrix(1,0,0,1,1239.9999999999998,1075.6568924498392) translate(88.28 47.875)"/><use xlink:href="#ah" transform="matrix(1,0,0,1,1239.9999999999998,1075.6568924498392) translate(33.10499999999999 69.47500000000001)"/></g><path d="M619.38 1865.67l379.25-335.34M619.38 1865.66l-2.63 2.33" stroke="#333" fill="none"/><path d="M999 1530l.02.65-.07.06-.67-.74.75-.65z" stroke="#333" stroke-width=".05" fill="#333"/><path d="M619.5 1008.72l619 114.02M619.5 1008.72l-3.45-.63" stroke="#333" fill="none"/><path d="M1239.02 1122.32l-.02.5v.52l-.6-.1.2-1z" stroke="#333" stroke-width=".05" fill="#333"/><path d="M1388.67 1247.17c0 26.05-32.54 47.17-72.67 47.17s-72.67-21.12-72.67-47.17S1275.87 1200 1316 1200s72.67 21.12 72.67 47.17z" stroke="#333" stroke-width="2" fill="#e6ffb8"/><g><use xlink:href="#ac" transform="matrix(1,0,0,1,1243.3326884626238,1200) translate(30.579999999999995 41.11875)"/><use xlink:href="#T" transform="matrix(1,0,0,1,1243.3326884626238,1200) translate(94.43 41.11875)"/><use xlink:href="#J" transform="matrix(1,0,0,1,1243.3326884626238,1200) translate(47.08 62.71875)"/></g><path d="M619.47 1008.8l622.4 238.2M619.48 1008.8l-3.28-1.24" stroke="#333" fill="none"/><path d="M1242.35 1246.64l-.02.53.02.54-.67-.25.35-.93z" stroke="#333" stroke-width=".05" fill="#333"/><defs><path fill="#333" d="M137 0h-34L2-248h35l83 218 83-218h36" id="ai"/><path fill="#333" d="M24-231v-30h32v30H24zM24 0v-190h32V0H24" id="aj"/><path fill="#333" d="M135-143c-3-34-86-38-87 0 15 53 115 12 119 90S17 21 10-45l28-5c4 36 97 45 98 0-10-56-113-15-118-90-4-57 82-63 122-42 12 7 21 19 24 35" id="ak"/><path fill="#333" d="M59-47c-2 24 18 29 38 22v24C64 9 27 4 27-40v-127H5v-23h24l9-43h21v43h35v23H59v120" id="al"/><path fill="#333" d="M100-194c63 0 86 42 84 106H49c0 40 14 67 53 68 26 1 43-12 49-29l28 8c-11 28-37 45-77 45C44 4 14-33 15-96c1-61 26-98 85-98zm52 81c6-60-76-77-97-28-3 7-6 17-6 28h103" id="am"/><path fill="#333" d="M84 4C-5 8 30-112 23-190h32v120c0 31 7 50 39 49 72-2 45-101 50-169h31l1 190h-30c-1-10 1-25-2-33-11 22-28 36-60 37" id="an"/><path fill="#333" d="M114-163C36-179 61-72 57 0H25l-1-190h30c1 12-1 29 2 39 6-27 23-49 58-41v29" id="ao"/><g id="a"><use transform="matrix(0.05,0,0,0.05,0,0)" xlink:href="#ai"/><use transform="matrix(0.05,0,0,0.05,11.65,0)" xlink:href="#aj"/><use transform="matrix(0.05,0,0,0.05,15.600000000000001,0)" xlink:href="#ak"/><use transform="matrix(0.05,0,0,0.05,24.6,0)" xlink:href="#aj"/><use transform="matrix(0.05,0,0,0.05,28.55,0)" xlink:href="#al"/><use transform="matrix(0.05,0,0,0.05,33.55,0)" xlink:href="#am"/><use transform="matrix(0.05,0,0,0.05,43.55,0)" xlink:href="#an"/><use transform="matrix(0.05,0,0,0.05,53.54999999999999,0)" xlink:href="#ao"/></g><path fill="#333" d="M205 0l-28-72H64L36 0H1l101-248h38L239 0h-34zm-38-99l-47-123c-12 45-31 82-46 123h93" id="ap"/><path fill="#333" d="M115-194c55 1 70 41 70 98S169 2 115 4C84 4 66-9 55-30l1 105H24l-1-265h31l2 30c10-21 28-34 59-34zm-8 174c40 0 45-34 45-75s-6-73-45-74c-42 0-51 32-51 76 0 43 10 73 51 73" id="aq"/><path fill="#333" d="M24 0v-261h32V0H24" id="ar"/><g id="b"><use transform="matrix(0.05,0,0,0.05,0,0)" xlink:href="#ap"/><use transform="matrix(0.05,0,0,0.05,12,0)" xlink:href="#aq"/><use transform="matrix(0.05,0,0,0.05,22,0)" xlink:href="#aq"/><use transform="matrix(0.05,0,0,0.05,32,0)" xlink:href="#ar"/><use transform="matrix(0.05,0,0,0.05,35.95,0)" xlink:href="#aj"/></g><path fill="#333" d="M30 0v-248h187v28H63v79h144v27H63v87h162V0H30" id="as"/><path fill="#333" d="M96-169c-40 0-48 33-48 73s9 75 48 75c24 0 41-14 43-38l32 2c-6 37-31 61-74 61-59 0-76-41-82-99-10-93 101-131 147-64 4 7 5 14 7 22l-32 3c-4-21-16-35-41-35" id="at"/><path fill="#333" d="M210-169c-67 3-38 105-44 169h-31v-121c0-29-5-50-35-48C34-165 62-65 56 0H25l-1-190h30c1 10-1 24 2 32 10-44 99-50 107 0 11-21 27-35 58-36 85-2 47 119 55 194h-31v-121c0-29-5-49-35-48" id="au"/><g id="c"><use transform="matrix(0.05,0,0,0.05,0,0)" xlink:href="#as"/><use transform="matrix(0.05,0,0,0.05,12,0)" xlink:href="#ak"/><use transform="matrix(0.05,0,0,0.05,21,0)" xlink:href="#at"/><use transform="matrix(0.05,0,0,0.05,30,0)" xlink:href="#ao"/><use transform="matrix(0.05,0,0,0.05,35.95,0)" xlink:href="#aj"/><use transform="matrix(0.05,0,0,0.05,39.900000000000006,0)" xlink:href="#au"/><use transform="matrix(0.05,0,0,0.05,54.85,0)" xlink:href="#am"/><use transform="matrix(0.05,0,0,0.05,64.85000000000001,0)" xlink:href="#an"/><use transform="matrix(0.05,0,0,0.05,74.85000000000001,0)" xlink:href="#ao"/></g><path fill="#333" d="M212-179c-10-28-35-45-73-45-59 0-87 40-87 99 0 60 29 101 89 101 43 0 62-24 78-52l27 14C228-24 195 4 139 4 59 4 22-46 18-125c-6-104 99-153 187-111 19 9 31 26 39 46" id="av"/><path fill="#333" d="M115-194c53 0 69 39 70 98 0 66-23 100-70 100C84 3 66-7 56-30L54 0H23l1-261h32v101c10-23 28-34 59-34zm-8 174c40 0 45-34 45-75 0-40-5-75-45-74-42 0-51 32-51 76 0 43 10 73 51 73" id="aw"/><g id="d"><use transform="matrix(0.05,0,0,0.05,0,0)" xlink:href="#av"/><use transform="matrix(0.05,0,0,0.05,12.950000000000001,0)" xlink:href="#ar"/><use transform="matrix(0.05,0,0,0.05,16.900000000000002,0)" xlink:href="#an"/><use transform="matrix(0.05,0,0,0.05,26.900000000000002,0)" xlink:href="#aw"/></g><path fill="#333" d="M140-251c81 0 123 46 123 126C263-46 219 4 140 4 59 4 17-45 17-125s42-126 123-126zm0 227c63 0 89-41 89-101s-29-99-89-99c-61 0-89 39-89 99S79-25 140-24" id="ax"/><path fill="#333" d="M177-190C167-65 218 103 67 71c-23-6-38-20-44-43l32-5c15 47 100 32 89-28v-30C133-14 115 1 83 1 29 1 15-40 15-95c0-56 16-97 71-98 29-1 48 16 59 35 1-10 0-23 2-32h30zM94-22c36 0 50-32 50-73 0-42-14-75-50-75-39 0-46 34-46 75s6 73 46 73" id="ay"/><path fill="#333" d="M141-36C126-15 110 5 73 4 37 3 15-17 15-53c-1-64 63-63 125-63 3-35-9-54-41-54-24 1-41 7-42 31l-33-3c5-37 33-52 76-52 45 0 72 20 72 64v82c-1 20 7 32 28 27v20c-31 9-61-2-59-35zM48-53c0 20 12 33 32 33 41-3 63-29 60-74-43 2-92-5-92 41" id="az"/><path fill="#333" d="M117-194c89-4 53 116 60 194h-32v-121c0-31-8-49-39-48C34-167 62-67 57 0H25l-1-190h30c1 10-1 24 2 32 11-22 29-35 61-36" id="aA"/><g id="e"><use transform="matrix(0.05,0,0,0.05,0,0)" xlink:href="#ax"/><use transform="matrix(0.05,0,0,0.05,14,0)" xlink:href="#ao"/><use transform="matrix(0.05,0,0,0.05,19.95,0)" xlink:href="#ay"/><use transform="matrix(0.05,0,0,0.05,29.950000000000003,0)" xlink:href="#az"/><use transform="matrix(0.05,0,0,0.05,39.95,0)" xlink:href="#aA"/><use transform="matrix(0.05,0,0,0.05,49.95,0)" xlink:href="#aj"/><use transform="matrix(0.05,0,0,0.05,53.900000000000006,0)" xlink:href="#ak"/><use transform="matrix(0.05,0,0,0.05,62.900000000000006,0)" xlink:href="#az"/><use transform="matrix(0.05,0,0,0.05,72.9,0)" xlink:href="#al"/><use transform="matrix(0.05,0,0,0.05,77.9,0)" xlink:href="#am"/><use transform="matrix(0.05,0,0,0.05,87.9,0)" xlink:href="#an"/><use transform="matrix(0.05,0,0,0.05,97.9,0)" xlink:href="#ao"/></g><path d="M33 0v-248h34V0H33" id="aB"/><path d="M117-194c89-4 53 116 60 194h-32v-121c0-31-8-49-39-48C34-167 62-67 57 0H25l-1-190h30c1 10-1 24 2 32 11-22 29-35 61-36" id="aC"/><path d="M135-143c-3-34-86-38-87 0 15 53 115 12 119 90S17 21 10-45l28-5c4 36 97 45 98 0-10-56-113-15-118-90-4-57 82-63 122-42 12 7 21 19 24 35" id="aD"/><path d="M96-169c-40 0-48 33-48 73s9 75 48 75c24 0 41-14 43-38l32 2c-6 37-31 61-74 61-59 0-76-41-82-99-10-93 101-131 147-64 4 7 5 14 7 22l-32 3c-4-21-16-35-41-35" id="aE"/><path d="M114-163C36-179 61-72 57 0H25l-1-190h30c1 12-1 29 2 39 6-27 23-49 58-41v29" id="aF"/><path d="M24-231v-30h32v30H24zM24 0v-190h32V0H24" id="aG"/><path d="M115-194c55 1 70 41 70 98S169 2 115 4C84 4 66-9 55-30l1 105H24l-1-265h31l2 30c10-21 28-34 59-34zm-8 174c40 0 45-34 45-75s-6-73-45-74c-42 0-51 32-51 76 0 43 10 73 51 73" id="aH"/><path d="M59-47c-2 24 18 29 38 22v24C64 9 27 4 27-40v-127H5v-23h24l9-43h21v43h35v23H59v120" id="aI"/><path d="M100-194c62-1 85 37 85 99 1 63-27 99-86 99S16-35 15-95c0-66 28-99 85-99zM99-20c44 1 53-31 53-75 0-43-8-75-51-75s-53 32-53 75 10 74 51 75" id="aJ"/><g id="f"><use transform="matrix(0.05,0,0,0.05,0,0)" xlink:href="#aB"/><use transform="matrix(0.05,0,0,0.05,5,0)" xlink:href="#aC"/><use transform="matrix(0.05,0,0,0.05,15,0)" xlink:href="#aD"/><use transform="matrix(0.05,0,0,0.05,24,0)" xlink:href="#aE"/><use transform="matrix(0.05,0,0,0.05,33,0)" xlink:href="#aF"/><use transform="matrix(0.05,0,0,0.05,38.95,0)" xlink:href="#aG"/><use transform="matrix(0.05,0,0,0.05,42.900000000000006,0)" xlink:href="#aH"/><use transform="matrix(0.05,0,0,0.05,52.900000000000006,0)" xlink:href="#aI"/><use transform="matrix(0.05,0,0,0.05,57.900000000000006,0)" xlink:href="#aG"/><use transform="matrix(0.05,0,0,0.05,61.85,0)" xlink:href="#aJ"/><use transform="matrix(0.05,0,0,0.05,71.85000000000001,0)" xlink:href="#aC"/></g><path d="M212-179c-10-28-35-45-73-45-59 0-87 40-87 99 0 60 29 101 89 101 43 0 62-24 78-52l27 14C228-24 195 4 139 4 59 4 22-46 18-125c-6-104 99-153 187-111 19 9 31 26 39 46" id="aK"/><path d="M84 4C-5 8 30-112 23-190h32v120c0 31 7 50 39 49 72-2 45-101 50-169h31l1 190h-30c-1-10 1-25-2-33-11 22-28 36-60 37" id="aL"/><path d="M24 0v-261h32V0H24" id="aM"/><path d="M100-194c63 0 86 42 84 106H49c0 40 14 67 53 68 26 1 43-12 49-29l28 8c-11 28-37 45-77 45C44 4 14-33 15-96c1-61 26-98 85-98zm52 81c6-60-76-77-97-28-3 7-6 17-6 28h103" id="aN"/><g id="g"><use transform="matrix(0.05,0,0,0.05,0,0)" xlink:href="#aK"/><use transform="matrix(0.05,0,0,0.05,12.950000000000001,0)" xlink:href="#aJ"/><use transform="matrix(0.05,0,0,0.05,22.950000000000003,0)" xlink:href="#aC"/><use transform="matrix(0.05,0,0,0.05,32.95,0)" xlink:href="#aD"/><use transform="matrix(0.05,0,0,0.05,41.95,0)" xlink:href="#aL"/><use transform="matrix(0.05,0,0,0.05,51.95,0)" xlink:href="#aM"/><use transform="matrix(0.05,0,0,0.05,55.900000000000006,0)" xlink:href="#aI"/><use transform="matrix(0.05,0,0,0.05,60.900000000000006,0)" xlink:href="#aN"/><use transform="matrix(0.05,0,0,0.05,70.9,0)" xlink:href="#aF"/></g><g id="h"><use transform="matrix(0.05,0,0,0.05,0,0)" xlink:href="#aM"/><use transform="matrix(0.05,0,0,0.05,3.95,0)" xlink:href="#aN"/><use transform="matrix(0.05,0,0,0.05,13.949999999999998,0)" xlink:href="#aD"/></g><path d="M100-194c63 0 86 42 84 106H49c0 40 14 67 53 68 26 1 43-12 49-29l28 8c-11 28-37 45-77 45C44 4 14-33 15-96c1-61 26-98 85-98zm52 81c6-60-76-77-97-28-3 7-6 17-6 28h103zm-32-149c12 18 30 30 39 51-31 2-38-20-57-30-20 10-27 32-59 30 9-22 29-33 41-51h36" id="aO"/><path d="M177-190C167-65 218 103 67 71c-23-6-38-20-44-43l32-5c15 47 100 32 89-28v-30C133-14 115 1 83 1 29 1 15-40 15-95c0-56 16-97 71-98 29-1 48 16 59 35 1-10 0-23 2-32h30zM94-22c36 0 50-32 50-73 0-42-14-75-50-75-39 0-46 34-46 75s6 73 46 73" id="aP"/><g id="i"><use transform="matrix(0.05,0,0,0.05,0,0)" xlink:href="#aF"/><use transform="matrix(0.05,0,0,0.05,5.95,0)" xlink:href="#aO"/><use transform="matrix(0.05,0,0,0.05,15.949999999999998,0)" xlink:href="#aP"/><use transform="matrix(0.05,0,0,0.05,25.950000000000003,0)" xlink:href="#aM"/><use transform="matrix(0.05,0,0,0.05,29.899999999999995,0)" xlink:href="#aN"/><use transform="matrix(0.05,0,0,0.05,39.9,0)" xlink:href="#aD"/></g><path d="M185-189c-5-48-123-54-124 2 14 75 158 14 163 119 3 78-121 87-175 55-17-10-28-26-33-46l33-7c5 56 141 63 141-1 0-78-155-14-162-118-5-82 145-84 179-34 5 7 8 16 11 25" id="aQ"/><g id="j"><use transform="matrix(0.05,0,0,0.05,0,0)" xlink:href="#aQ"/><use transform="matrix(0.05,0,0,0.05,12,0)" xlink:href="#aN"/></g><g id="k"><use transform="matrix(0.05,0,0,0.05,0,0)" xlink:href="#aE"/><use transform="matrix(0.05,0,0,0.05,9,0)" xlink:href="#aJ"/><use transform="matrix(0.05,0,0,0.05,19,0)" xlink:href="#aC"/><use transform="matrix(0.05,0,0,0.05,29,0)" xlink:href="#aC"/><use transform="matrix(0.05,0,0,0.05,39,0)" xlink:href="#aN"/><use transform="matrix(0.05,0,0,0.05,49,0)" xlink:href="#aE"/><use transform="matrix(0.05,0,0,0.05,58,0)" xlink:href="#aI"/><use transform="matrix(0.05,0,0,0.05,63,0)" xlink:href="#aN"/><use transform="matrix(0.05,0,0,0.05,73,0)" xlink:href="#aF"/></g><g id="l"><use transform="matrix(0.05,0,0,0.05,0,0)" xlink:href="#aL"/><use transform="matrix(0.05,0,0,0.05,10,0)" xlink:href="#aC"/><use transform="matrix(0.05,0,0,0.05,20,0)" xlink:href="#aN"/></g><path d="M210-169c-67 3-38 105-44 169h-31v-121c0-29-5-50-35-48C34-165 62-65 56 0H25l-1-190h30c1 10-1 24 2 32 10-44 99-50 107 0 11-21 27-35 58-36 85-2 47 119 55 194h-31v-121c0-29-5-49-35-48" id="aR"/><path d="M100-194c63 0 86 42 84 106H49c0 40 14 67 53 68 26 1 43-12 49-29l28 8c-11 28-37 45-77 45C44 4 14-33 15-96c1-61 26-98 85-98zm52 81c6-60-76-77-97-28-3 7-6 17-6 28h103zm-74-98c8-23 27-35 38-54h36v5l-58 49H78" id="aS"/><g id="m"><use transform="matrix(0.05,0,0,0.05,0,0)" xlink:href="#aE"/><use transform="matrix(0.05,0,0,0.05,9,0)" xlink:href="#aJ"/><use transform="matrix(0.05,0,0,0.05,19,0)" xlink:href="#aR"/><use transform="matrix(0.05,0,0,0.05,33.95,0)" xlink:href="#aH"/><use transform="matrix(0.05,0,0,0.05,43.95,0)" xlink:href="#aS"/><use transform="matrix(0.05,0,0,0.05,53.95,0)" xlink:href="#aI"/><use transform="matrix(0.05,0,0,0.05,58.95,0)" xlink:href="#aG"/><use transform="matrix(0.05,0,0,0.05,62.900000000000006,0)" xlink:href="#aI"/><use transform="matrix(0.05,0,0,0.05,67.9,0)" xlink:href="#aG"/><use transform="matrix(0.05,0,0,0.05,71.85000000000001,0)" xlink:href="#aJ"/><use transform="matrix(0.05,0,0,0.05,81.85000000000001,0)" xlink:href="#aC"/></g><g id="n"><use transform="matrix(0.048148148148148155,0,0,0.048148148148148155,0,0)" xlink:href="#aB"/><use transform="matrix(0.048148148148148155,0,0,0.048148148148148155,4.814814814814816,0)" xlink:href="#aR"/><use transform="matrix(0.048148148148148155,0,0,0.048148148148148155,19.211111111111116,0)" xlink:href="#aH"/><use transform="matrix(0.048148148148148155,0,0,0.048148148148148155,28.84074074074075,0)" xlink:href="#aF"/><use transform="matrix(0.048148148148148155,0,0,0.048148148148148155,34.57037037037038,0)" xlink:href="#aG"/><use transform="matrix(0.048148148148148155,0,0,0.048148148148148155,38.37407407407408,0)" xlink:href="#aR"/><use transform="matrix(0.048148148148148155,0,0,0.048148148148148155,52.77037037037038,0)" xlink:href="#aN"/><use transform="matrix(0.048148148148148155,0,0,0.048148148148148155,62.400000000000006,0)" xlink:href="#aF"/></g><g id="o"><use transform="matrix(0.048148148148148155,0,0,0.048148148148148155,0,0)" xlink:href="#aM"/><use transform="matrix(0.048148148148148155,0,0,0.048148148148148155,3.8037037037037043,0)" xlink:href="#aN"/><use transform="matrix(0.048148148148148155,0,0,0.048148148148148155,13.433333333333335,0)" xlink:href="#aD"/></g><path d="M101-234c-31-9-42 10-38 44h38v23H63V0H32v-167H5v-23h27c-7-52 17-82 69-68v24" id="aT"/><g id="p"><use transform="matrix(0.048148148148148155,0,0,0.048148148148148155,0,0)" xlink:href="#aT"/><use transform="matrix(0.048148148148148155,0,0,0.048148148148148155,4.814814814814816,0)" xlink:href="#aN"/><use transform="matrix(0.048148148148148155,0,0,0.048148148148148155,14.444444444444446,0)" xlink:href="#aL"/><use transform="matrix(0.048148148148148155,0,0,0.048148148148148155,24.074074074074076,0)" xlink:href="#aG"/><use transform="matrix(0.048148148148148155,0,0,0.048148148148148155,27.877777777777784,0)" xlink:href="#aM"/><use transform="matrix(0.048148148148148155,0,0,0.048148148148148155,31.681481481481487,0)" xlink:href="#aM"/><use transform="matrix(0.048148148148148155,0,0,0.048148148148148155,35.48518518518519,0)" xlink:href="#aN"/><use transform="matrix(0.048148148148148155,0,0,0.048148148148148155,45.11481481481482,0)" xlink:href="#aD"/></g><path d="M85-194c31 0 48 13 60 33l-1-100h32l1 261h-30c-2-10 0-23-3-31C134-8 116 4 85 4 32 4 16-35 15-94c0-66 23-100 70-100zm9 24c-40 0-46 34-46 75 0 40 6 74 45 74 42 0 51-32 51-76 0-42-9-74-50-73" id="aU"/><g id="q"><use transform="matrix(0.048148148148148155,0,0,0.048148148148148155,0,0)" xlink:href="#aU"/><use transform="matrix(0.048148148148148155,0,0,0.048148148148148155,9.629629629629632,0)" xlink:href="#aN"/></g><path d="M141-36C126-15 110 5 73 4 37 3 15-17 15-53c-1-64 63-63 125-63 3-35-9-54-41-54-24 1-41 7-42 31l-33-3c5-37 33-52 76-52 45 0 72 20 72 64v82c-1 20 7 32 28 27v20c-31 9-61-2-59-35zM48-53c0 20 12 33 32 33 41-3 63-29 60-74-43 2-92-5-92 41" id="aV"/><path d="M106-169C34-169 62-67 57 0H25v-261h32l-1 103c12-21 28-36 61-36 89 0 53 116 60 194h-32v-121c2-32-8-49-39-48" id="aW"/><g id="r"><use transform="matrix(0.048148148148148155,0,0,0.048148148148148155,0,0)" xlink:href="#aR"/><use transform="matrix(0.048148148148148155,0,0,0.048148148148148155,14.396296296296299,0)" xlink:href="#aV"/><use transform="matrix(0.048148148148148155,0,0,0.048148148148148155,24.025925925925932,0)" xlink:href="#aI"/><use transform="matrix(0.048148148148148155,0,0,0.048148148148148155,28.84074074074075,0)" xlink:href="#aE"/><use transform="matrix(0.048148148148148155,0,0,0.048148148148148155,37.50740740740741,0)" xlink:href="#aW"/><use transform="matrix(0.048148148148148155,0,0,0.048148148148148155,47.13703703703705,0)" xlink:href="#aD"/></g><g id="s"><use transform="matrix(0.048148148148148155,0,0,0.048148148148148155,0,0)" xlink:href="#aV"/><use transform="matrix(0.048148148148148155,0,0,0.048148148148148155,9.629629629629632,0)" xlink:href="#aL"/></g><g id="t"><use transform="matrix(0.048148148148148155,0,0,0.048148148148148155,0,0)" xlink:href="#aT"/><use transform="matrix(0.048148148148148155,0,0,0.048148148148148155,4.814814814814816,0)" xlink:href="#aJ"/><use transform="matrix(0.048148148148148155,0,0,0.048148148148148155,14.444444444444446,0)" xlink:href="#aF"/><use transform="matrix(0.048148148148148155,0,0,0.048148148148148155,20.174074074074078,0)" xlink:href="#aR"/><use transform="matrix(0.048148148148148155,0,0,0.048148148148148155,34.57037037037038,0)" xlink:href="#aV"/><use transform="matrix(0.048148148148148155,0,0,0.048148148148148155,44.20000000000001,0)" xlink:href="#aI"/></g><g id="u"><use transform="matrix(0.048148148148148155,0,0,0.048148148148148155,0,0)" xlink:href="#aH"/><use transform="matrix(0.048148148148148155,0,0,0.048148148148148155,9.629629629629632,0)" xlink:href="#aV"/><use transform="matrix(0.048148148148148155,0,0,0.048148148148148155,19.259259259259263,0)" xlink:href="#aH"/><use transform="matrix(0.048148148148148155,0,0,0.048148148148148155,28.888888888888893,0)" xlink:href="#aG"/><use transform="matrix(0.048148148148148155,0,0,0.048148148148148155,32.6925925925926,0)" xlink:href="#aN"/><use transform="matrix(0.048148148148148155,0,0,0.048148148148148155,42.32222222222223,0)" xlink:href="#aF"/></g><g id="v"><use transform="matrix(0.048148148148148155,0,0,0.048148148148148155,0,0)" xlink:href="#aK"/><use transform="matrix(0.048148148148148155,0,0,0.048148148148148155,12.470370370370372,0)" xlink:href="#aF"/><use transform="matrix(0.048148148148148155,0,0,0.048148148148148155,18.200000000000003,0)" xlink:href="#aS"/><use transform="matrix(0.048148148148148155,0,0,0.048148148148148155,27.829629629629633,0)" xlink:href="#aV"/><use transform="matrix(0.048148148148148155,0,0,0.048148148148148155,37.45925925925927,0)" xlink:href="#aI"/><use transform="matrix(0.048148148148148155,0,0,0.048148148148148155,42.274074074074086,0)" xlink:href="#aG"/><use transform="matrix(0.048148148148148155,0,0,0.048148148148148155,46.07777777777779,0)" xlink:href="#aJ"/><use transform="matrix(0.048148148148148155,0,0,0.048148148148148155,55.70740740740742,0)" xlink:href="#aC"/></g><path d="M47-170H22l-4-78h33" id="aX"/><g id="w"><use transform="matrix(0.048148148148148155,0,0,0.048148148148148155,0,0)" xlink:href="#aU"/><use transform="matrix(0.048148148148148155,0,0,0.048148148148148155,9.629629629629632,0)" xlink:href="#aX"/><use transform="matrix(0.048148148148148155,0,0,0.048148148148148155,12.903703703703705,0)" xlink:href="#aL"/><use transform="matrix(0.048148148148148155,0,0,0.048148148148148155,22.53333333333334,0)" xlink:href="#aC"/><use transform="matrix(0.048148148148148155,0,0,0.048148148148148155,32.16296296296297,0)" xlink:href="#aN"/></g><g id="x"><use transform="matrix(0.048148148148148155,0,0,0.048148148148148155,0,0)" xlink:href="#aE"/><use transform="matrix(0.048148148148148155,0,0,0.048148148148148155,8.666666666666668,0)" xlink:href="#aJ"/><use transform="matrix(0.048148148148148155,0,0,0.048148148148148155,18.296296296296298,0)" xlink:href="#aR"/><use transform="matrix(0.048148148148148155,0,0,0.048148148148148155,32.6925925925926,0)" xlink:href="#aH"/><use transform="matrix(0.048148148148148155,0,0,0.048148148148148155,42.32222222222223,0)" xlink:href="#aS"/><use transform="matrix(0.048148148148148155,0,0,0.048148148148148155,51.951851851851856,0)" xlink:href="#aI"/><use transform="matrix(0.048148148148148155,0,0,0.048148148148148155,56.76666666666667,0)" xlink:href="#aG"/><use transform="matrix(0.048148148148148155,0,0,0.048148148148148155,60.57037037037038,0)" xlink:href="#aI"/><use transform="matrix(0.048148148148148155,0,0,0.048148148148148155,65.3851851851852,0)" xlink:href="#aG"/><use transform="matrix(0.048148148148148155,0,0,0.048148148148148155,69.1888888888889,0)" xlink:href="#aJ"/><use transform="matrix(0.048148148148148155,0,0,0.048148148148148155,78.81851851851853,0)" xlink:href="#aC"/></g><g id="y"><use transform="matrix(0.048148148148148155,0,0,0.048148148148148155,0,0)" xlink:href="#aK"/><use transform="matrix(0.048148148148148155,0,0,0.048148148148148155,12.470370370370372,0)" xlink:href="#aJ"/><use transform="matrix(0.048148148148148155,0,0,0.048148148148148155,22.1,0)" xlink:href="#aC"/><use transform="matrix(0.048148148148148155,0,0,0.048148148148148155,31.729629629629635,0)" xlink:href="#aD"/><use transform="matrix(0.048148148148148155,0,0,0.048148148148148155,40.3962962962963,0)" xlink:href="#aL"/><use transform="matrix(0.048148148148148155,0,0,0.048148148148148155,50.02592592592593,0)" xlink:href="#aM"/><use transform="matrix(0.048148148148148155,0,0,0.048148148148148155,53.829629629629636,0)" xlink:href="#aI"/><use transform="matrix(0.048148148148148155,0,0,0.048148148148148155,58.64444444444445,0)" xlink:href="#aN"/><use transform="matrix(0.048148148148148155,0,0,0.048148148148148155,68.27407407407408,0)" xlink:href="#aF"/></g><g id="z"><use transform="matrix(0.048148148148148155,0,0,0.048148148148148155,0,0)" xlink:href="#aD"/><use transform="matrix(0.048148148148148155,0,0,0.048148148148148155,8.666666666666668,0)" xlink:href="#aJ"/><use transform="matrix(0.048148148148148155,0,0,0.048148148148148155,18.296296296296298,0)" xlink:href="#aC"/></g><g id="A"><use transform="matrix(0.048148148148148155,0,0,0.048148148148148155,0,0)" xlink:href="#aN"/><use transform="matrix(0.048148148148148155,0,0,0.048148148148148155,9.629629629629632,0)" xlink:href="#aT"/><use transform="matrix(0.048148148148148155,0,0,0.048148148148148155,14.107407407407413,0)" xlink:href="#aT"/><use transform="matrix(0.048148148148148155,0,0,0.048148148148148155,18.922222222222228,0)" xlink:href="#aN"/><use transform="matrix(0.048148148148148155,0,0,0.048148148148148155,28.551851851851858,0)" xlink:href="#aE"/><use transform="matrix(0.048148148148148155,0,0,0.048148148148148155,37.21851851851852,0)" xlink:href="#aI"/><use transform="matrix(0.048148148148148155,0,0,0.048148148148148155,42.03333333333334,0)" xlink:href="#aG"/><use transform="matrix(0.048148148148148155,0,0,0.048148148148148155,45.83703703703704,0)" xlink:href="#aT"/></g><g id="B"><use transform="matrix(0.048148148148148155,0,0,0.048148148148148155,0,0)" xlink:href="#aQ"/><use transform="matrix(0.048148148148148155,0,0,0.048148148148148155,11.555555555555557,0)" xlink:href="#aV"/><use transform="matrix(0.048148148148148155,0,0,0.048148148148148155,21.18518518518519,0)" xlink:href="#aG"/><use transform="matrix(0.048148148148148155,0,0,0.048148148148148155,24.988888888888894,0)" xlink:href="#aD"/><use transform="matrix(0.048148148148148155,0,0,0.048148148148148155,33.655555555555566,0)" xlink:href="#aG"/><use transform="matrix(0.048148148148148155,0,0,0.048148148148148155,37.45925925925927,0)" xlink:href="#aF"/></g><g id="C"><use transform="matrix(0.048148148148148155,0,0,0.048148148148148155,0,0)" xlink:href="#aM"/><use transform="matrix(0.048148148148148155,0,0,0.048148148148148155,3.8037037037037043,0)" xlink:href="#aN"/><use transform="matrix(0.048148148148148155,0,0,0.048148148148148155,13.433333333333335,0)" xlink:href="#aD"/></g><g id="D"><use transform="matrix(0.048148148148148155,0,0,0.048148148148148155,0,0)" xlink:href="#aF"/><use transform="matrix(0.048148148148148155,0,0,0.048148148148148155,5.72962962962963,0)" xlink:href="#aS"/><use transform="matrix(0.048148148148148155,0,0,0.048148148148148155,15.359259259259261,0)" xlink:href="#aD"/><use transform="matrix(0.048148148148148155,0,0,0.048148148148148155,24.02592592592593,0)" xlink:href="#aL"/><use transform="matrix(0.048148148148148155,0,0,0.048148148148148155,33.65555555555556,0)" xlink:href="#aM"/><use transform="matrix(0.048148148148148155,0,0,0.048148148148148155,37.45925925925926,0)" xlink:href="#aI"/><use transform="matrix(0.048148148148148155,0,0,0.048148148148148155,42.27407407407408,0)" xlink:href="#aV"/><use transform="matrix(0.048148148148148155,0,0,0.048148148148148155,51.90370370370371,0)" xlink:href="#aI"/><use transform="matrix(0.048148148148148155,0,0,0.048148148148148155,56.71851851851853,0)" xlink:href="#aD"/></g><g id="E"><use transform="matrix(0.048148148148148155,0,0,0.048148148148148155,0,0)" xlink:href="#aU"/><use transform="matrix(0.048148148148148155,0,0,0.048148148148148155,9.629629629629632,0)" xlink:href="#aX"/><use transform="matrix(0.048148148148148155,0,0,0.048148148148148155,12.903703703703705,0)" xlink:href="#aL"/><use transform="matrix(0.048148148148148155,0,0,0.048148148148148155,22.53333333333334,0)" xlink:href="#aC"/></g><g id="F"><use transform="matrix(0.048148148148148155,0,0,0.048148148148148155,0,0)" xlink:href="#aR"/><use transform="matrix(0.048148148148148155,0,0,0.048148148148148155,14.396296296296299,0)" xlink:href="#aV"/><use transform="matrix(0.048148148148148155,0,0,0.048148148148148155,24.025925925925932,0)" xlink:href="#aI"/><use transform="matrix(0.048148148148148155,0,0,0.048148148148148155,28.84074074074075,0)" xlink:href="#aE"/><use transform="matrix(0.048148148148148155,0,0,0.048148148148148155,37.50740740740741,0)" xlink:href="#aW"/></g><g id="G"><use transform="matrix(0.05,0,0,0.05,0,0)" xlink:href="#ap"/><use transform="matrix(0.05,0,0,0.05,12,0)" xlink:href="#ao"/><use transform="matrix(0.05,0,0,0.05,17.95,0)" xlink:href="#aw"/><use transform="matrix(0.05,0,0,0.05,27.950000000000003,0)" xlink:href="#aj"/><use transform="matrix(0.05,0,0,0.05,31.899999999999995,0)" xlink:href="#al"/><use transform="matrix(0.05,0,0,0.05,36.9,0)" xlink:href="#ao"/><use transform="matrix(0.05,0,0,0.05,42.85,0)" xlink:href="#am"/></g><g id="H"><use transform="matrix(0.05,0,0,0.05,0,0)" xlink:href="#aB"/><use transform="matrix(0.05,0,0,0.05,5,0)" xlink:href="#aC"/><use transform="matrix(0.05,0,0,0.05,15,0)" xlink:href="#aD"/><use transform="matrix(0.05,0,0,0.05,24,0)" xlink:href="#aE"/><use transform="matrix(0.05,0,0,0.05,33,0)" xlink:href="#aF"/><use transform="matrix(0.05,0,0,0.05,38.95,0)" xlink:href="#aG"/><use transform="matrix(0.05,0,0,0.05,42.900000000000006,0)" xlink:href="#aH"/><use transform="matrix(0.05,0,0,0.05,52.900000000000006,0)" xlink:href="#aI"/><use transform="matrix(0.05,0,0,0.05,57.900000000000006,0)" xlink:href="#aG"/><use transform="matrix(0.05,0,0,0.05,61.85,0)" xlink:href="#aJ"/><use transform="matrix(0.05,0,0,0.05,71.85000000000001,0)" xlink:href="#aC"/></g><g id="I"><use transform="matrix(0.05,0,0,0.05,0,0)" xlink:href="#aN"/><use transform="matrix(0.05,0,0,0.05,10,0)" xlink:href="#aC"/></g><path d="M115-194c53 0 69 39 70 98 0 66-23 100-70 100C84 3 66-7 56-30L54 0H23l1-261h32v101c10-23 28-34 59-34zm-8 174c40 0 45-34 45-75 0-40-5-75-45-74-42 0-51 32-51 76 0 43 10 73 51 73" id="aY"/><g id="J"><use transform="matrix(0.05,0,0,0.05,0,0)" xlink:href="#aV"/><use transform="matrix(0.05,0,0,0.05,10,0)" xlink:href="#aF"/><use transform="matrix(0.05,0,0,0.05,15.949999999999998,0)" xlink:href="#aY"/><use transform="matrix(0.05,0,0,0.05,25.950000000000003,0)" xlink:href="#aG"/><use transform="matrix(0.05,0,0,0.05,29.899999999999995,0)" xlink:href="#aI"/><use transform="matrix(0.05,0,0,0.05,34.9,0)" xlink:href="#aF"/><use transform="matrix(0.05,0,0,0.05,40.85,0)" xlink:href="#aN"/></g><path d="M205 0l-28-72H64L36 0H1l101-248h38L239 0h-34zm-38-99l-47-123c-12 45-31 82-46 123h93" id="aZ"/><g id="K"><use transform="matrix(0.05,0,0,0.05,0,0)" xlink:href="#aZ"/><use transform="matrix(0.05,0,0,0.05,12,0)" xlink:href="#aC"/><use transform="matrix(0.05,0,0,0.05,22,0)" xlink:href="#aC"/><use transform="matrix(0.05,0,0,0.05,32,0)" xlink:href="#aL"/><use transform="matrix(0.05,0,0,0.05,42,0)" xlink:href="#aM"/><use transform="matrix(0.05,0,0,0.05,45.95,0)" xlink:href="#aN"/><use transform="matrix(0.05,0,0,0.05,55.95,0)" xlink:href="#aF"/></g><g id="L"><use transform="matrix(0.05,0,0,0.05,0,0)" xlink:href="#aD"/><use transform="matrix(0.05,0,0,0.05,9,0)" xlink:href="#aJ"/><use transform="matrix(0.05,0,0,0.05,19,0)" xlink:href="#aC"/></g><g id="M"><use transform="matrix(0.05,0,0,0.05,0,0)" xlink:href="#aG"/><use transform="matrix(0.05,0,0,0.05,3.95,0)" xlink:href="#aC"/><use transform="matrix(0.05,0,0,0.05,13.949999999999998,0)" xlink:href="#aD"/><use transform="matrix(0.05,0,0,0.05,22.95,0)" xlink:href="#aE"/><use transform="matrix(0.05,0,0,0.05,31.950000000000003,0)" xlink:href="#aF"/><use transform="matrix(0.05,0,0,0.05,37.9,0)" xlink:href="#aG"/><use transform="matrix(0.05,0,0,0.05,41.85,0)" xlink:href="#aH"/><use transform="matrix(0.05,0,0,0.05,51.85,0)" xlink:href="#aI"/><use transform="matrix(0.05,0,0,0.05,56.85,0)" xlink:href="#aG"/><use transform="matrix(0.05,0,0,0.05,60.800000000000004,0)" xlink:href="#aJ"/><use transform="matrix(0.05,0,0,0.05,70.80000000000001,0)" xlink:href="#aC"/></g><g id="N"><use transform="matrix(0.05,0,0,0.05,0,0)" xlink:href="#aI"/><use transform="matrix(0.05,0,0,0.05,5,0)" xlink:href="#aG"/><use transform="matrix(0.05,0,0,0.05,8.95,0)" xlink:href="#aF"/><use transform="matrix(0.05,0,0,0.05,14.899999999999999,0)" xlink:href="#aN"/><use transform="matrix(0.05,0,0,0.05,24.9,0)" xlink:href="#aL"/><use transform="matrix(0.05,0,0,0.05,34.9,0)" xlink:href="#aF"/></g><g id="O"><use transform="matrix(0.05,0,0,0.05,0,0)" xlink:href="#aQ"/><use transform="matrix(0.05,0,0,0.05,12,0)" xlink:href="#aL"/><use transform="matrix(0.05,0,0,0.05,22,0)" xlink:href="#aH"/><use transform="matrix(0.05,0,0,0.05,32,0)" xlink:href="#aH"/><use transform="matrix(0.05,0,0,0.05,42,0)" xlink:href="#aF"/><use transform="matrix(0.05,0,0,0.05,47.95,0)" xlink:href="#aG"/><use transform="matrix(0.05,0,0,0.05,51.900000000000006,0)" xlink:href="#aR"/><use transform="matrix(0.05,0,0,0.05,66.85000000000001,0)" xlink:href="#aN"/><use transform="matrix(0.05,0,0,0.05,76.85000000000001,0)" xlink:href="#aF"/></g><g id="P"><use transform="matrix(0.05,0,0,0.05,0,0)" xlink:href="#aL"/><use transform="matrix(0.05,0,0,0.05,10,0)" xlink:href="#aC"/></g><path d="M24-231v-30h32v30H24zM-9 49c24 4 33-6 33-30v-209h32V24c2 40-23 58-65 49V49" id="ba"/><g id="Q"><use transform="matrix(0.05,0,0,0.05,0,0)" xlink:href="#ba"/><use transform="matrix(0.05,0,0,0.05,3.95,0)" xlink:href="#aJ"/><use transform="matrix(0.05,0,0,0.05,13.949999999999998,0)" xlink:href="#aL"/><use transform="matrix(0.05,0,0,0.05,23.95,0)" xlink:href="#aN"/><use transform="matrix(0.05,0,0,0.05,33.95,0)" xlink:href="#aL"/><use transform="matrix(0.05,0,0,0.05,43.95,0)" xlink:href="#aF"/></g><path d="M143 4C61 4 22-44 18-125c-5-107 100-154 193-111 17 8 29 25 37 43l-32 9c-13-25-37-40-76-40-61 0-88 39-88 99 0 61 29 100 91 101 35 0 62-11 79-27v-45h-74v-28h105v86C228-13 192 4 143 4" id="bb"/><g id="R"><use transform="matrix(0.048148148148148155,0,0,0.048148148148148155,0,0)" xlink:href="#bb"/><use transform="matrix(0.048148148148148155,0,0,0.048148148148148155,13.481481481481483,0)" xlink:href="#aN"/><use transform="matrix(0.048148148148148155,0,0,0.048148148148148155,23.111111111111114,0)" xlink:href="#aD"/><use transform="matrix(0.048148148148148155,0,0,0.048148148148148155,31.777777777777782,0)" xlink:href="#aI"/><use transform="matrix(0.048148148148148155,0,0,0.048148148148148155,36.592592592592595,0)" xlink:href="#aG"/><use transform="matrix(0.048148148148148155,0,0,0.048148148148148155,40.3962962962963,0)" xlink:href="#aJ"/><use transform="matrix(0.048148148148148155,0,0,0.048148148148148155,50.02592592592593,0)" xlink:href="#aC"/></g><g id="S"><use transform="matrix(0.05,0,0,0.05,0,0)" xlink:href="#aZ"/><use transform="matrix(0.05,0,0,0.05,12,0)" xlink:href="#ba"/><use transform="matrix(0.05,0,0,0.05,15.949999999999998,0)" xlink:href="#aJ"/><use transform="matrix(0.05,0,0,0.05,25.950000000000003,0)" xlink:href="#aL"/><use transform="matrix(0.05,0,0,0.05,35.95,0)" xlink:href="#aI"/><use transform="matrix(0.05,0,0,0.05,40.95,0)" xlink:href="#aN"/><use transform="matrix(0.05,0,0,0.05,50.95,0)" xlink:href="#aF"/></g><g id="T"><use transform="matrix(0.05,0,0,0.05,0,0)" xlink:href="#aL"/><use transform="matrix(0.05,0,0,0.05,10,0)" xlink:href="#aC"/></g><path d="M240 0l2-218c-23 76-54 145-80 218h-23L58-218 59 0H30v-248h44l77 211c21-75 51-140 76-211h43V0h-30" id="bc"/><g id="U"><use transform="matrix(0.05,0,0,0.05,0,0)" xlink:href="#bc"/><use transform="matrix(0.05,0,0,0.05,14.950000000000001,0)" xlink:href="#aJ"/><use transform="matrix(0.05,0,0,0.05,24.950000000000003,0)" xlink:href="#aU"/><use transform="matrix(0.05,0,0,0.05,34.95,0)" xlink:href="#aG"/><use transform="matrix(0.05,0,0,0.05,38.900000000000006,0)" xlink:href="#aT"/><use transform="matrix(0.05,0,0,0.05,43.900000000000006,0)" xlink:href="#aG"/><use transform="matrix(0.05,0,0,0.05,47.85000000000001,0)" xlink:href="#aN"/><use transform="matrix(0.05,0,0,0.05,57.85,0)" xlink:href="#aF"/></g><g id="V"><use transform="matrix(0.05,0,0,0.05,0,0)" xlink:href="#aU"/><use transform="matrix(0.05,0,0,0.05,10,0)" xlink:href="#aN"/><use transform="matrix(0.05,0,0,0.05,20,0)" xlink:href="#aD"/></g><g id="W"><use transform="matrix(0.05,0,0,0.05,0,0)" xlink:href="#aG"/><use transform="matrix(0.05,0,0,0.05,3.95,0)" xlink:href="#aC"/><use transform="matrix(0.05,0,0,0.05,13.949999999999998,0)" xlink:href="#aT"/><use transform="matrix(0.05,0,0,0.05,18.95,0)" xlink:href="#aJ"/><use transform="matrix(0.05,0,0,0.05,28.950000000000003,0)" xlink:href="#aD"/></g><g id="X"><use transform="matrix(0.05,0,0,0.05,0,0)" xlink:href="#bc"/><use transform="matrix(0.05,0,0,0.05,14.950000000000001,0)" xlink:href="#aJ"/><use transform="matrix(0.05,0,0,0.05,24.950000000000003,0)" xlink:href="#aU"/><use transform="matrix(0.05,0,0,0.05,34.95,0)" xlink:href="#aG"/><use transform="matrix(0.05,0,0,0.05,38.900000000000006,0)" xlink:href="#aT"/><use transform="matrix(0.05,0,0,0.05,43.900000000000006,0)" xlink:href="#aG"/><use transform="matrix(0.05,0,0,0.05,47.85000000000001,0)" xlink:href="#aN"/><use transform="matrix(0.05,0,0,0.05,57.85,0)" xlink:href="#aF"/></g><g id="Y"><use transform="matrix(0.05,0,0,0.05,0,0)" xlink:href="#aZ"/><use transform="matrix(0.05,0,0,0.05,12,0)" xlink:href="#ba"/><use transform="matrix(0.05,0,0,0.05,15.949999999999998,0)" xlink:href="#aJ"/><use transform="matrix(0.05,0,0,0.05,25.950000000000003,0)" xlink:href="#aL"/><use transform="matrix(0.05,0,0,0.05,35.95,0)" xlink:href="#aI"/><use transform="matrix(0.05,0,0,0.05,40.95,0)" xlink:href="#aN"/><use transform="matrix(0.05,0,0,0.05,50.95,0)" xlink:href="#aF"/></g><g id="Z"><use transform="matrix(0.05,0,0,0.05,0,0)" xlink:href="#aQ"/><use transform="matrix(0.05,0,0,0.05,12,0)" xlink:href="#aL"/><use transform="matrix(0.05,0,0,0.05,22,0)" xlink:href="#aH"/><use transform="matrix(0.05,0,0,0.05,32,0)" xlink:href="#aH"/><use transform="matrix(0.05,0,0,0.05,42,0)" xlink:href="#aF"/><use transform="matrix(0.05,0,0,0.05,47.95,0)" xlink:href="#aG"/><use transform="matrix(0.05,0,0,0.05,51.900000000000006,0)" xlink:href="#aR"/><use transform="matrix(0.05,0,0,0.05,66.85000000000001,0)" xlink:href="#aN"/><use transform="matrix(0.05,0,0,0.05,76.85000000000001,0)" xlink:href="#aF"/></g><g id="aa"><use transform="matrix(0.05,0,0,0.05,0,0)" xlink:href="#aK"/><use transform="matrix(0.05,0,0,0.05,12.950000000000001,0)" xlink:href="#aM"/><use transform="matrix(0.05,0,0,0.05,16.900000000000002,0)" xlink:href="#aL"/><use transform="matrix(0.05,0,0,0.05,26.900000000000002,0)" xlink:href="#aY"/></g><path d="M30 0v-248h187v28H63v79h144v27H63v87h162V0H30" id="bd"/><g id="ab"><use transform="matrix(0.05,0,0,0.05,0,0)" xlink:href="#bd"/><use transform="matrix(0.05,0,0,0.05,12,0)" xlink:href="#aD"/><use transform="matrix(0.05,0,0,0.05,21,0)" xlink:href="#aE"/><use transform="matrix(0.05,0,0,0.05,30,0)" xlink:href="#aF"/><use transform="matrix(0.05,0,0,0.05,35.95,0)" xlink:href="#aG"/><use transform="matrix(0.05,0,0,0.05,39.900000000000006,0)" xlink:href="#aR"/><use transform="matrix(0.05,0,0,0.05,54.85,0)" xlink:href="#aN"/><use transform="matrix(0.05,0,0,0.05,64.85000000000001,0)" xlink:href="#aL"/><use transform="matrix(0.05,0,0,0.05,74.85000000000001,0)" xlink:href="#aF"/></g><g id="ac"><use transform="matrix(0.05,0,0,0.05,0,0)" xlink:href="#aB"/><use transform="matrix(0.05,0,0,0.05,5,0)" xlink:href="#aC"/><use transform="matrix(0.05,0,0,0.05,15,0)" xlink:href="#aD"/><use transform="matrix(0.05,0,0,0.05,24,0)" xlink:href="#aE"/><use transform="matrix(0.05,0,0,0.05,33,0)" xlink:href="#aF"/><use transform="matrix(0.05,0,0,0.05,38.95,0)" xlink:href="#aG"/><use transform="matrix(0.05,0,0,0.05,42.900000000000006,0)" xlink:href="#aF"/><use transform="matrix(0.05,0,0,0.05,48.85000000000001,0)" xlink:href="#aN"/></g><g id="ad"><use transform="matrix(0.05,0,0,0.05,0,0)" xlink:href="#aK"/><use transform="matrix(0.05,0,0,0.05,12.950000000000001,0)" xlink:href="#aF"/><use transform="matrix(0.05,0,0,0.05,18.900000000000002,0)" xlink:href="#aS"/><use transform="matrix(0.05,0,0,0.05,28.900000000000002,0)" xlink:href="#aN"/><use transform="matrix(0.05,0,0,0.05,38.900000000000006,0)" xlink:href="#aF"/></g><g id="ae"><use transform="matrix(0.05,0,0,0.05,0,0)" xlink:href="#aM"/><use transform="matrix(0.05,0,0,0.05,3.95,0)" xlink:href="#aN"/></g><g id="af"><use transform="matrix(0.05,0,0,0.05,0,0)" xlink:href="#aE"/><use transform="matrix(0.05,0,0,0.05,9,0)" xlink:href="#aJ"/><use transform="matrix(0.05,0,0,0.05,19,0)" xlink:href="#aR"/><use transform="matrix(0.05,0,0,0.05,33.95,0)" xlink:href="#aH"/><use transform="matrix(0.05,0,0,0.05,43.95,0)" xlink:href="#aI"/><use transform="matrix(0.05,0,0,0.05,48.95,0)" xlink:href="#aN"/></g><g id="ag"><use transform="matrix(0.05,0,0,0.05,0,0)" xlink:href="#aU"/><use transform="matrix(0.05,0,0,0.05,10,0)" xlink:href="#aX"/><use transform="matrix(0.05,0,0,0.05,13.4,0)" xlink:href="#aL"/><use transform="matrix(0.05,0,0,0.05,23.4,0)" xlink:href="#aC"/></g><g id="ah"><use transform="matrix(0.05,0,0,0.05,0,0)" xlink:href="#aN"/><use transform="matrix(0.05,0,0,0.05,10,0)" xlink:href="#aD"/><use transform="matrix(0.05,0,0,0.05,19,0)" xlink:href="#aE"/><use transform="matrix(0.05,0,0,0.05,28,0)" xlink:href="#aF"/><use transform="matrix(0.05,0,0,0.05,33.95,0)" xlink:href="#aG"/><use transform="matrix(0.05,0,0,0.05,37.900000000000006,0)" xlink:href="#aR"/><use transform="matrix(0.05,0,0,0.05,52.85,0)" xlink:href="#aN"/><use transform="matrix(0.05,0,0,0.05,62.85,0)" xlink:href="#aL"/><use transform="matrix(0.05,0,0,0.05,72.85000000000001,0)" xlink:href="#aF"/></g></defs></g></svg>