<?xml version="1.0" encoding="utf-8"?>
<!-- Generated by Mocodo 4.0.9 -->
<svg width="761" height="900" viewBox="0 0 761 1014" xmlns="http://www.w3.org/2000/svg">
<rect x="0" y="0" width="761" height="1014" fill="#f5f5f5" stroke="none" stroke-width="0"/>

<!-- Association IS_A -->
<g>
	<line x1="221" y1="77" x2="113" y2="195" stroke="#35978f" stroke-width="2"/>
	<line x1="36" y1="77" x2="113" y2="195" stroke="#35978f" stroke-width="2"/>
	<line x1="113" y1="313" x2="113" y2="195" stroke="#35978f" stroke-width="2"/>
	<g>
		<path d="M121 170 a14 14 90 0 1 14 14 V195 h-44 V184 a14 14 90 0 1 14 -14" fill="#80cdc1" stroke="#80cdc1" stroke-width="0"/>
		<path d="M135 195 v11 a14 14 90 0 1 -14 14 H105 a14 14 90 0 1 -14 -14 V195 H44" fill="#c7eae5" stroke="#c7eae5" stroke-width="0"/>
		<rect x="91" y="170" width="44" height="50" fill="none" rx="14" stroke="#35978f" stroke-width="2"/>
		<line x1="91" y1="195" x2="135" y2="195" stroke="#35978f" stroke-width="1"/>
		<text x="98" y="187.75" fill="#000000" font-family="Verdana" font-size="12">IS_A</text>
	</g>
	<text x="196.49" y="119" fill="#8c510a" font-family="Verdana" font-size="12">T,E</text>
	<text x="32.33" y="119" fill="#8c510a" font-family="Verdana" font-size="12">T,E</text>
	<text x="118" y="280" fill="#8c510a" font-family="Verdana" font-size="12">     </text>
</g>

<!-- Association SITUER -->
<g>
	<line x1="637" y1="195" x2="524" y2="195" stroke="#35978f" stroke-width="2"/>
	<line x1="390" y1="313" x2="524" y2="195" stroke="#35978f" stroke-width="2"/>
	<g>
		<path d="M540 170 a14 14 90 0 1 14 14 V195 h-60 V184 a14 14 90 0 1 14 -14" fill="#80cdc1" stroke="#80cdc1" stroke-width="0"/>
		<path d="M554 195 v11 a14 14 90 0 1 -14 14 H508 a14 14 90 0 1 -14 -14 V195 H60" fill="#c7eae5" stroke="#c7eae5" stroke-width="0"/>
		<rect x="494" y="170" width="60" height="50" fill="none" rx="14" stroke="#35978f" stroke-width="2"/>
		<line x1="494" y1="195" x2="554" y2="195" stroke="#35978f" stroke-width="1"/>
		<text x="501" y="187.75" fill="#000000" font-family="Verdana" font-size="12">SITUER</text>
	</g>
	<text x="559" y="212" fill="#8c510a" font-family="Verdana" font-size="12">0,N</text>
	<text x="468" y="259.28" fill="#8c510a" font-family="Verdana" font-size="12">1,1</text>
</g>

<!-- Association REPARTIR -->
<g>
	<line x1="113" y1="313" x2="221" y2="313" stroke="#35978f" stroke-width="2"/>
	<line x1="390" y1="313" x2="221" y2="313" stroke="#35978f" stroke-width="2"/>
	<g>
		<path d="M245 288 a14 14 90 0 1 14 14 V313 h-76 V302 a14 14 90 0 1 14 -14" fill="#80cdc1" stroke="#80cdc1" stroke-width="0"/>
		<path d="M259 313 v11 a14 14 90 0 1 -14 14 H197 a14 14 90 0 1 -14 -14 V313 H76" fill="#c7eae5" stroke="#c7eae5" stroke-width="0"/>
		<rect x="183" y="288" width="76" height="50" fill="none" rx="14" stroke="#35978f" stroke-width="2"/>
		<line x1="183" y1="313" x2="259" y2="313" stroke="#35978f" stroke-width="1"/>
		<text x="190" y="305.75" fill="#000000" font-family="Verdana" font-size="12">REPARTIR</text>
	</g>
	<text x="147" y="330" fill="#8c510a" font-family="Verdana" font-size="12">1,1</text>
	<text x="290" y="330" fill="#8c510a" font-family="Verdana" font-size="12">0,N</text>
</g>

<!-- Association ARMER -->
<g>
	<line x1="637" y1="313" x2="524" y2="313" stroke="#35978f" stroke-width="2"/>
	<line x1="390" y1="313" x2="524" y2="313" stroke="#35978f" stroke-width="2"/>
	<g>
		<path d="M539 288 a14 14 90 0 1 14 14 V313 h-58 V302 a14 14 90 0 1 14 -14" fill="#80cdc1" stroke="#80cdc1" stroke-width="0"/>
		<path d="M553 313 v11 a14 14 90 0 1 -14 14 H509 a14 14 90 0 1 -14 -14 V313 H58" fill="#c7eae5" stroke="#c7eae5" stroke-width="0"/>
		<rect x="495" y="288" width="58" height="50" fill="none" rx="14" stroke="#35978f" stroke-width="2"/>
		<line x1="495" y1="313" x2="553" y2="313" stroke="#35978f" stroke-width="1"/>
		<text x="502" y="305.75" fill="#000000" font-family="Verdana" font-size="12">ARMER</text>
	</g>
	<text x="572" y="330" fill="#8c510a" font-family="Verdana" font-size="12">0,N</text>
	<text x="468" y="330" fill="#8c510a" font-family="Verdana" font-size="12">1,1</text>
</g>

<!-- Association ORGANISER -->
<g>
	<line x1="113" y1="490" x2="113" y2="406" stroke="#35978f" stroke-width="2"/>
	<line x1="113" y1="313" x2="113" y2="406" stroke="#35978f" stroke-width="2"/>
	<g>
		<path d="M144 381 a14 14 90 0 1 14 14 V406 h-90 V395 a14 14 90 0 1 14 -14" fill="#80cdc1" stroke="#80cdc1" stroke-width="0"/>
		<path d="M158 406 v11 a14 14 90 0 1 -14 14 H82 a14 14 90 0 1 -14 -14 V406 H90" fill="#c7eae5" stroke="#c7eae5" stroke-width="0"/>
		<rect x="68" y="381" width="90" height="50" fill="none" rx="14" stroke="#35978f" stroke-width="2"/>
		<line x1="68" y1="406" x2="158" y2="406" stroke="#35978f" stroke-width="1"/>
		<text x="76" y="398.75" fill="#000000" font-family="Verdana" font-size="12">ORGANISER</text>
	</g>
	<text x="118" y="448" fill="#8c510a" font-family="Verdana" font-size="12">1,1</text>
	<text x="118" y="355" fill="#8c510a" font-family="Verdana" font-size="12">0,N</text>
</g>

<!-- Association POUR -->
<g>
	<line x1="637" y1="406" x2="524" y2="406" stroke="#35978f" stroke-width="2"/>
	<line x1="390" y1="313" x2="524" y2="406" stroke="#35978f" stroke-width="2"/>
	<g>
		<path d="M535 381 a14 14 90 0 1 14 14 V406 h-50 V395 a14 14 90 0 1 14 -14" fill="#80cdc1" stroke="#80cdc1" stroke-width="0"/>
		<path d="M549 406 v11 a14 14 90 0 1 -14 14 H513 a14 14 90 0 1 -14 -14 V406 H50" fill="#c7eae5" stroke="#c7eae5" stroke-width="0"/>
		<rect x="499" y="381" width="50" height="50" fill="none" rx="14" stroke="#35978f" stroke-width="2"/>
		<line x1="499" y1="406" x2="549" y2="406" stroke="#35978f" stroke-width="1"/>
		<text x="507" y="398.75" fill="#000000" font-family="Verdana" font-size="12">POUR</text>
	</g>
	<text x="562" y="423" fill="#8c510a" font-family="Verdana" font-size="12">0,N</text>
	<text x="468" y="360.96" fill="#8c510a" font-family="Verdana" font-size="12">1,1</text>
</g>

<!-- Association PARTICIPER -->
<g>
	<line x1="113" y1="490" x2="221" y2="490" stroke="#35978f" stroke-width="2"/>
	<line x1="390" y1="701" x2="221" y2="490" stroke="#35978f" stroke-width="2"/>
	<g>
		<path d="M251 465 a14 14 90 0 1 14 14 V490 h-88 V479 a14 14 90 0 1 14 -14" fill="#80cdc1" stroke="#80cdc1" stroke-width="0"/>
		<path d="M265 490 v11 a14 14 90 0 1 -14 14 H191 a14 14 90 0 1 -14 -14 V490 H88" fill="#c7eae5" stroke="#c7eae5" stroke-width="0"/>
		<rect x="177" y="465" width="88" height="50" fill="none" rx="14" stroke="#35978f" stroke-width="2"/>
		<line x1="177" y1="490" x2="265" y2="490" stroke="#35978f" stroke-width="1"/>
		<text x="184" y="482.75" fill="#000000" font-family="Verdana" font-size="12">PARTICIPER</text>
	</g>
	<text x="149" y="482" fill="#8c510a" font-family="Verdana" font-size="12">2,2</text>
	<text x="283" y="612.15" fill="#8c510a" font-family="Verdana" font-size="12">0,N</text>
</g>

<!-- Association INSCRIRE -->
<g>
	<line x1="390" y1="701" x2="390" y2="490" stroke="#35978f" stroke-width="2"/>
	<line x1="390" y1="313" x2="390" y2="490" stroke="#35978f" stroke-width="2"/>
	<g>
		<path d="M414 465 a14 14 90 0 1 14 14 V490 h-76 V479 a14 14 90 0 1 14 -14" fill="#80cdc1" stroke="#80cdc1" stroke-width="0"/>
		<path d="M428 490 v11 a14 14 90 0 1 -14 14 H366 a14 14 90 0 1 -14 -14 V490 H76" fill="#c7eae5" stroke="#c7eae5" stroke-width="0"/>
		<rect x="352" y="465" width="76" height="50" fill="none" rx="14" stroke="#35978f" stroke-width="2"/>
		<line x1="352" y1="490" x2="428" y2="490" stroke="#35978f" stroke-width="1"/>
		<text x="360" y="482.75" fill="#000000" font-family="Verdana" font-size="12">INSCRIRE</text>
	</g>
	<text x="395" y="591" fill="#8c510a" font-family="Verdana" font-size="12">0,N</text>
	<text x="363" y="398" fill="#8c510a" font-family="Verdana" font-size="12">0,N</text>
</g>

<!-- Association ARBITRAGE -->
<g>
	<line x1="390" y1="701" x2="524" y2="490" stroke="#35978f" stroke-width="2"/>
	<line x1="390" y1="313" x2="524" y2="490" stroke="#35978f" stroke-width="2"/>
	<g>
		<path d="M553 465 a14 14 90 0 1 14 14 V490 h-86 V479 a14 14 90 0 1 14 -14" fill="#80cdc1" stroke="#80cdc1" stroke-width="0"/>
		<path d="M567 490 v11 a14 14 90 0 1 -14 14 H495 a14 14 90 0 1 -14 -14 V490 H86" fill="#c7eae5" stroke="#c7eae5" stroke-width="0"/>
		<rect x="481" y="465" width="86" height="50" fill="none" rx="14" stroke="#35978f" stroke-width="2"/>
		<line x1="481" y1="490" x2="567" y2="490" stroke="#35978f" stroke-width="1"/>
		<text x="488" y="482.75" fill="#000000" font-family="Verdana" font-size="12">ARBITRAGE</text>
	</g>
	<text x="432.67" y="591" fill="#8c510a" font-family="Verdana" font-size="12">0,N</text>
	<text x="420.18" y="398" fill="#8c510a" font-family="Verdana" font-size="12">0,N</text>
</g>

<!-- Association TOUCHER -->
<g>
	<line x1="113" y1="490" x2="113" y2="574" stroke="#35978f" stroke-width="2"/>
	<line x1="113" y1="701" x2="113" y2="574" stroke="#35978f" stroke-width="2"/>
	<g>
		<path d="M136 549 a14 14 90 0 1 14 14 V574 h-74 V563 a14 14 90 0 1 14 -14" fill="#80cdc1" stroke="#80cdc1" stroke-width="0"/>
		<path d="M150 574 v11 a14 14 90 0 1 -14 14 H90 a14 14 90 0 1 -14 -14 V574 H74" fill="#c7eae5" stroke="#c7eae5" stroke-width="0"/>
		<rect x="76" y="549" width="74" height="50" fill="none" rx="14" stroke="#35978f" stroke-width="2"/>
		<line x1="76" y1="574" x2="150" y2="574" stroke="#35978f" stroke-width="1"/>
		<text x="83" y="566.75" fill="#000000" font-family="Verdana" font-size="12">TOUCHER</text>
	</g>
	<text x="86" y="541" fill="#8c510a" font-family="Verdana" font-size="12">0,N</text>
	<text x="118" y="668" fill="#8c510a" font-family="Verdana" font-size="12">1,1</text>
</g>

<!-- Association ARBITRER -->
<g>
	<line x1="113" y1="490" x2="221" y2="574" stroke="#35978f" stroke-width="2"/>
	<line x1="390" y1="701" x2="221" y2="574" stroke="#35978f" stroke-width="2"/>
	<g>
		<path d="M246 549 a14 14 90 0 1 14 14 V574 h-78 V563 a14 14 90 0 1 14 -14" fill="#80cdc1" stroke="#80cdc1" stroke-width="0"/>
		<path d="M260 574 v11 a14 14 90 0 1 -14 14 H196 a14 14 90 0 1 -14 -14 V574 H78" fill="#c7eae5" stroke="#c7eae5" stroke-width="0"/>
		<rect x="182" y="549" width="78" height="50" fill="none" rx="14" stroke="#35978f" stroke-width="2"/>
		<line x1="182" y1="574" x2="260" y2="574" stroke="#35978f" stroke-width="1"/>
		<text x="190" y="566.75" fill="#000000" font-family="Verdana" font-size="12">ARBITRER</text>
	</g>
	<text x="149" y="511.94" fill="#8c510a" font-family="Verdana" font-size="12">1,1</text>
	<text x="283" y="652.22" fill="#8c510a" font-family="Verdana" font-size="12">0,N</text>
</g>

<!-- Association FAIT_PART -->
<g>
	<line x1="390" y1="701" x2="221" y2="701" stroke="#35978f" stroke-width="2"/>
	<line x1="113" y1="701" x2="221" y2="701" stroke="#35978f" stroke-width="2"/>
	<g>
		<path d="M246 676 a14 14 90 0 1 14 14 V701 h-78 V690 a14 14 90 0 1 14 -14" fill="#80cdc1" stroke="#80cdc1" stroke-width="0"/>
		<path d="M260 701 v11 a14 14 90 0 1 -14 14 H196 a14 14 90 0 1 -14 -14 V701 H78" fill="#c7eae5" stroke="#c7eae5" stroke-width="0"/>
		<rect x="182" y="676" width="78" height="50" fill="none" rx="14" stroke="#35978f" stroke-width="2"/>
		<line x1="182" y1="701" x2="260" y2="701" stroke="#35978f" stroke-width="1"/>
		<text x="189" y="693.75" fill="#000000" font-family="Verdana" font-size="12">FAIT PART</text>
	</g>
	<text x="283" y="718" fill="#8c510a" font-family="Verdana" font-size="12">0,N</text>
	<text x="149" y="718" fill="#8c510a" font-family="Verdana" font-size="12">1,1</text>
</g>

<!-- Association AVOIR -->
<g>
	<line x1="637" y1="406" x2="637" y2="701" stroke="#35978f" stroke-width="2"/>
	<line x1="390" y1="701" x2="637" y2="701" stroke="#35978f" stroke-width="2"/>
	<g>
		<path d="M650 676 a14 14 90 0 1 14 14 V701 h-54 V690 a14 14 90 0 1 14 -14" fill="#80cdc1" stroke="#80cdc1" stroke-width="0"/>
		<path d="M664 701 v11 a14 14 90 0 1 -14 14 H624 a14 14 90 0 1 -14 -14 V701 H54" fill="#c7eae5" stroke="#c7eae5" stroke-width="0"/>
		<rect x="610" y="676" width="54" height="50" fill="none" rx="14" stroke="#35978f" stroke-width="2"/>
		<line x1="610" y1="701" x2="664" y2="701" stroke="#35978f" stroke-width="1"/>
		<text x="617" y="693.75" fill="#000000" font-family="Verdana" font-size="12">AVOIR</text>
	</g>
	<text x="642" y="457" fill="#8c510a" font-family="Verdana" font-size="12">0,N</text>
	<text x="475" y="718" fill="#8c510a" font-family="Verdana" font-size="12">1,1</text>
</g>

<!-- Association MEMBRE -->
<g>
	<line x1="390" y1="954" x2="390" y2="853" stroke="#35978f" stroke-width="2"/>
	<line x1="390" y1="701" x2="390" y2="853" stroke="#35978f" stroke-width="2"/>
	<g>
		<path d="M410 828 a14 14 90 0 1 14 14 V853 h-68 V842 a14 14 90 0 1 14 -14" fill="#80cdc1" stroke="#80cdc1" stroke-width="0"/>
		<path d="M424 853 v11 a14 14 90 0 1 -14 14 H370 a14 14 90 0 1 -14 -14 V853 H68" fill="#c7eae5" stroke="#c7eae5" stroke-width="0"/>
		<rect x="356" y="828" width="68" height="50" fill="none" rx="14" stroke="#35978f" stroke-width="2"/>
		<line x1="356" y1="853" x2="424" y2="853" stroke="#35978f" stroke-width="1"/>
		<text x="364" y="845.75" fill="#000000" font-family="Verdana" font-size="12">MEMBRE</text>
	</g>
	<text x="395" y="895" fill="#8c510a" font-family="Verdana" font-size="12">0,N</text>
	<text x="395" y="820" fill="#8c510a" font-family="Verdana" font-size="12">1,1</text>
</g>

<!-- Entity POULE -->
<g>
	<g>
		<rect x="9" y="52" width="54" height="25" fill="#dfc27d" stroke="none" stroke-width="0" opacity="1"/>
		<rect x="9" y="77" width="54" height="25" fill="#f6e8c3" stroke="none" stroke-width="0" opacity="1"/>
		<rect x="9" y="52" width="54" height="50" fill="none" stroke="#bf812d" stroke-width="2" opacity="1"/>
		<line x1="9" y1="77" x2="63" y2="77" stroke="#bf812d" stroke-width="1"/>
	</g>
	<text x="16" y="69.75" fill="#000000" font-family="Verdana" font-size="12">POULE</text>
	<text x="14" y="94.8" fill="#000000" font-family="Verdana" font-size="12">idPoule</text>
	<line x1="14" y1="97" x2="58" y2="97" stroke="#000000" stroke-width="1"/>
</g>

<!-- Entity PHASE_FINAL -->
<g>
	<g>
		<rect x="173" y="52" width="96" height="25" fill="#dfc27d" stroke="none" stroke-width="0" opacity="1"/>
		<rect x="173" y="77" width="96" height="25" fill="#f6e8c3" stroke="none" stroke-width="0" opacity="1"/>
		<rect x="173" y="52" width="96" height="50" fill="none" stroke="#bf812d" stroke-width="2" opacity="1"/>
		<line x1="173" y1="77" x2="269" y2="77" stroke="#bf812d" stroke-width="1"/>
	</g>
	<text x="179" y="69.75" fill="#000000" font-family="Verdana" font-size="12">PHASE_FINAL</text>
	<text x="178" y="94.8" fill="#000000" font-family="Verdana" font-size="12">idPhaseFinal</text>
	<line x1="178" y1="97" x2="253" y2="97" stroke="#000000" stroke-width="1"/>
</g>

<!-- Entity ORGANISATEUR -->
<g>
	<g>
		<rect x="301" y="9" width="178" height="25" fill="#dfc27d" stroke="none" stroke-width="0" opacity="1"/>
		<rect x="301" y="34" width="178" height="111" fill="#f6e8c3" stroke="none" stroke-width="0" opacity="1"/>
		<rect x="301" y="9" width="178" height="136" fill="none" stroke="#bf812d" stroke-width="2" opacity="1"/>
		<line x1="301" y1="34" x2="479" y2="34" stroke="#bf812d" stroke-width="1"/>
	</g>
	<text x="341" y="26.75" fill="#000000" font-family="Verdana" font-size="12">ORGANISATEUR</text>
	<text x="306" y="51.8" fill="#000000" font-family="Verdana" font-size="12">idOrganisateur</text>
	<line x1="306" y1="54" x2="396" y2="54" stroke="#000000" stroke-width="1"/>
	<text x="306" y="68.8" fill="#000000" font-family="Verdana" font-size="12">nomOrganisateur</text>
	<text x="306" y="85.8" fill="#000000" font-family="Verdana" font-size="12">prenomOrganisateur</text>
	<text x="306" y="102.8" fill="#000000" font-family="Verdana" font-size="12">adresseMailOrganisateur</text>
	<text x="306" y="119.8" fill="#000000" font-family="Verdana" font-size="12">mdpOrganisateur</text>
	<text x="306" y="136.8" fill="#000000" font-family="Verdana" font-size="12">nomUtilisateurOrganisateur</text>
</g>

<!-- Entity LIEU -->
<g>
	<g>
		<rect x="586" y="153" width="102" height="25" fill="#dfc27d" stroke="none" stroke-width="0" opacity="1"/>
		<rect x="586" y="178" width="102" height="59" fill="#f6e8c3" stroke="none" stroke-width="0" opacity="1"/>
		<rect x="586" y="153" width="102" height="84" fill="none" stroke="#bf812d" stroke-width="2" opacity="1"/>
		<line x1="586" y1="178" x2="688" y2="178" stroke="#bf812d" stroke-width="1"/>
	</g>
	<text x="623" y="170.75" fill="#000000" font-family="Verdana" font-size="12">LIEU</text>
	<text x="591" y="195.8" fill="#000000" font-family="Verdana" font-size="12">idLieu</text>
	<line x1="591" y1="198" x2="628" y2="198" stroke="#000000" stroke-width="1"/>
	<text x="591" y="212.8" fill="#000000" font-family="Verdana" font-size="12">adresseLieu</text>
	<text x="591" y="229.8" fill="#000000" font-family="Verdana" font-size="12">descriptionLieu</text>
</g>

<!-- Entity PHASE -->
<g>
	<g>
		<rect x="84" y="288" width="58" height="25" fill="#dfc27d" stroke="none" stroke-width="0" opacity="1"/>
		<rect x="84" y="313" width="58" height="25" fill="#f6e8c3" stroke="none" stroke-width="0" opacity="1"/>
		<rect x="84" y="288" width="58" height="50" fill="none" stroke="#bf812d" stroke-width="2" opacity="1"/>
		<line x1="84" y1="313" x2="142" y2="313" stroke="#bf812d" stroke-width="1"/>
	</g>
	<text x="93" y="305.75" fill="#000000" font-family="Verdana" font-size="12">PHASE</text>
	<text x="89" y="330.8" fill="#000000" font-family="Verdana" font-size="12">idPhase</text>
	<line x1="89" y1="333" x2="136" y2="333" stroke="#000000" stroke-width="1"/>
</g>

<!-- Entity COMPETITION -->
<g>
	<g>
		<rect x="317" y="245" width="146" height="25" fill="#dfc27d" stroke="none" stroke-width="0" opacity="1"/>
		<rect x="317" y="270" width="146" height="111" fill="#f6e8c3" stroke="none" stroke-width="0" opacity="1"/>
		<rect x="317" y="245" width="146" height="136" fill="none" stroke="#bf812d" stroke-width="2" opacity="1"/>
		<line x1="317" y1="270" x2="463" y2="270" stroke="#bf812d" stroke-width="1"/>
	</g>
	<text x="347" y="262.75" fill="#000000" font-family="Verdana" font-size="12">COMPETITION</text>
	<text x="322" y="287.8" fill="#000000" font-family="Verdana" font-size="12">idCompetition</text>
	<line x1="322" y1="290" x2="407" y2="290" stroke="#000000" stroke-width="1"/>
	<text x="322" y="304.8" fill="#000000" font-family="Verdana" font-size="12">nomCompetition</text>
	<text x="322" y="321.8" fill="#000000" font-family="Verdana" font-size="12">dateCompetition</text>
	<text x="322" y="338.8" fill="#000000" font-family="Verdana" font-size="12">dateFinInscription</text>
	<text x="322" y="355.8" fill="#000000" font-family="Verdana" font-size="12">coefficientCompetition</text>
	<text x="322" y="372.8" fill="#000000" font-family="Verdana" font-size="12">saisonCompetition</text>
</g>

<!-- Entity ARMES -->
<g>
	<g>
		<rect x="599" y="279" width="76" height="25" fill="#dfc27d" stroke="none" stroke-width="0" opacity="1"/>
		<rect x="599" y="304" width="76" height="43" fill="#f6e8c3" stroke="none" stroke-width="0" opacity="1"/>
		<rect x="599" y="279" width="76" height="68" fill="none" stroke="#bf812d" stroke-width="2" opacity="1"/>
		<line x1="599" y1="304" x2="675" y2="304" stroke="#bf812d" stroke-width="1"/>
	</g>
	<text x="616" y="296.75" fill="#000000" font-family="Verdana" font-size="12">ARMES</text>
	<text x="604" y="321.8" fill="#000000" font-family="Verdana" font-size="12">idArmes</text>
	<line x1="604" y1="324" x2="654" y2="324" stroke="#000000" stroke-width="1"/>
	<text x="604" y="338.8" fill="#000000" font-family="Verdana" font-size="12">nomArmes</text>
</g>

<!-- Entity CATEGORIE -->
<g>
	<g>
		<rect x="589" y="372" width="96" height="25" fill="#dfc27d" stroke="none" stroke-width="0" opacity="1"/>
		<rect x="589" y="397" width="96" height="43" fill="#f6e8c3" stroke="none" stroke-width="0" opacity="1"/>
		<rect x="589" y="372" width="96" height="68" fill="none" stroke="#bf812d" stroke-width="2" opacity="1"/>
		<line x1="589" y1="397" x2="685" y2="397" stroke="#bf812d" stroke-width="1"/>
	</g>
	<text x="601" y="389.75" fill="#000000" font-family="Verdana" font-size="12">CATEGORIE</text>
	<text x="594" y="414.8" fill="#000000" font-family="Verdana" font-size="12">idCategorie</text>
	<line x1="594" y1="417" x2="664" y2="417" stroke="#000000" stroke-width="1"/>
	<text x="594" y="431.8" fill="#000000" font-family="Verdana" font-size="12">nomCategorie</text>
</g>

<!-- Entity MATCHS -->
<g>
	<g>
		<rect x="82" y="456" width="62" height="25" fill="#dfc27d" stroke="none" stroke-width="0" opacity="1"/>
		<rect x="82" y="481" width="62" height="43" fill="#f6e8c3" stroke="none" stroke-width="0" opacity="1"/>
		<rect x="82" y="456" width="62" height="68" fill="none" stroke="#bf812d" stroke-width="2" opacity="1"/>
		<line x1="82" y1="481" x2="144" y2="481" stroke="#bf812d" stroke-width="1"/>
	</g>
	<text x="87" y="473.75" fill="#000000" font-family="Verdana" font-size="12">MATCHS</text>
	<text x="87" y="498.8" fill="#000000" font-family="Verdana" font-size="12">idMatch</text>
	<line x1="87" y1="501" x2="135" y2="501" stroke="#000000" stroke-width="1"/>
	<text x="87" y="515.8" fill="#000000" font-family="Verdana" font-size="12">fini</text>
</g>

<!-- Entity TOUCHE -->
<g>
	<g>
		<rect x="82" y="676" width="62" height="25" fill="#dfc27d" stroke="none" stroke-width="0" opacity="1"/>
		<rect x="82" y="701" width="62" height="25" fill="#f6e8c3" stroke="none" stroke-width="0" opacity="1"/>
		<rect x="82" y="676" width="62" height="50" fill="none" stroke="#bf812d" stroke-width="2" opacity="1"/>
		<line x1="82" y1="701" x2="144" y2="701" stroke="#bf812d" stroke-width="1"/>
	</g>
	<text x="87" y="693.75" fill="#000000" font-family="Verdana" font-size="12">TOUCHE</text>
	<text x="87" y="718.8" fill="#000000" font-family="Verdana" font-size="12">numT</text>
	<line x1="87" y1="721" x2="122" y2="721" stroke="#000000" stroke-width="1"/>
</g>

<!-- Entity ESCRIMEUR -->
<g>
	<g>
		<rect x="310" y="599" width="160" height="25" fill="#dfc27d" stroke="none" stroke-width="0" opacity="1"/>
		<rect x="310" y="624" width="160" height="179" fill="#f6e8c3" stroke="none" stroke-width="0" opacity="1"/>
		<rect x="310" y="599" width="160" height="204" fill="none" stroke="#bf812d" stroke-width="2" opacity="1"/>
		<line x1="310" y1="624" x2="470" y2="624" stroke="#bf812d" stroke-width="1"/>
	</g>
	<text x="354" y="616.75" fill="#000000" font-family="Verdana" font-size="12">ESCRIMEUR</text>
	<text x="315" y="641.8" fill="#000000" font-family="Verdana" font-size="12">idEscrimeur</text>
	<line x1="315" y1="644" x2="387" y2="644" stroke="#000000" stroke-width="1"/>
	<text x="315" y="658.8" fill="#000000" font-family="Verdana" font-size="12">nomEscrimeur</text>
	<text x="315" y="675.8" fill="#000000" font-family="Verdana" font-size="12">prenomEscrimeur</text>
	<text x="315" y="692.8" fill="#000000" font-family="Verdana" font-size="12">dateNaissance</text>
	<text x="315" y="709.8" fill="#000000" font-family="Verdana" font-size="12">licence</text>
	<text x="315" y="726.8" fill="#000000" font-family="Verdana" font-size="12">nomUtilisateurEscrimeur</text>
	<text x="315" y="743.8" fill="#000000" font-family="Verdana" font-size="12">mdpEscrimeur</text>
	<text x="315" y="760.8" fill="#000000" font-family="Verdana" font-size="12">classement</text>
	<text x="315" y="777.8" fill="#000000" font-family="Verdana" font-size="12">sexe</text>
	<text x="315" y="794.8" fill="#000000" font-family="Verdana" font-size="12">arbitrage</text>
</g>

<!-- Entity CLUB -->
<g>
	<g>
		<rect x="348" y="903" width="84" height="25" fill="#dfc27d" stroke="none" stroke-width="0" opacity="1"/>
		<rect x="348" y="928" width="84" height="77" fill="#f6e8c3" stroke="none" stroke-width="0" opacity="1"/>
		<rect x="348" y="903" width="84" height="102" fill="none" stroke="#bf812d" stroke-width="2" opacity="1"/>
		<line x1="348" y1="928" x2="432" y2="928" stroke="#bf812d" stroke-width="1"/>
	</g>
	<text x="374" y="920.75" fill="#000000" font-family="Verdana" font-size="12">CLUB</text>
	<text x="353" y="945.8" fill="#000000" font-family="Verdana" font-size="12">idClub</text>
	<line x1="353" y1="948" x2="392" y2="948" stroke="#000000" stroke-width="1"/>
	<text x="353" y="962.8" fill="#000000" font-family="Verdana" font-size="12">nomClub</text>
	<text x="353" y="979.8" fill="#000000" font-family="Verdana" font-size="12">adresseClub</text>
	<text x="353" y="996.8" fill="#000000" font-family="Verdana" font-size="12">mdpClub</text>
</g>
</svg>