<?xml version="1.0" encoding="utf-8"?>
<!-- Generated by Mocodo 4.2.1 -->
<svg width="827" height="1055" viewBox="0 0 827 1055" xmlns="http://www.w3.org/2000/svg">
<rect x="0" y="0" width="827" height="1055" fill="#f5f5f5" stroke="none" stroke-width="0"/>

<!-- Association IS_A -->
<g>
	<line x1="36" y1="77" x2="113" y2="195" stroke="#35978f" stroke-width="2"/>
	<line x1="226" y1="77" x2="113" y2="195" stroke="#35978f" stroke-width="2"/>
	<line x1="113" y1="321" x2="113" y2="195" stroke="#35978f" stroke-width="2"/>
	<g>
		<path d="M121 170 a14 14 90 0 1 14 14 V195 h-44 V184 a14 14 90 0 1 14 -14" fill="#80cdc1" stroke="#80cdc1" stroke-width="0"/>
		<path d="M135 195 v11 a14 14 90 0 1 -14 14 H105 a14 14 90 0 1 -14 -14 V195 H44" fill="#c7eae5" stroke="#c7eae5" stroke-width="0"/>
		<rect x="91" y="170" width="44" height="50" fill="none" rx="14" stroke="#35978f" stroke-width="2"/>
		<line x1="91" y1="195" x2="135" y2="195" stroke="#35978f" stroke-width="1"/>
		<text x="98" y="187.75" fill="#000000" font-family="Verdana" font-size="12">IS_A</text>
	</g>
	<text x="32.33" y="119" fill="#8c510a" font-family="Verdana" font-size="12">T,E</text>
	<text x="200.2" y="119" fill="#8c510a" font-family="Verdana" font-size="12">T,E</text>
	<text x="118" y="288" fill="#8c510a" font-family="Verdana" font-size="12">     </text>
</g>

<!-- Association ARMER -->
<g>
	<line x1="395" y1="321" x2="395" y2="195" stroke="#35978f" stroke-width="2"/>
	<line x1="226" y1="195" x2="395" y2="195" stroke="#35978f" stroke-width="2"/>
	<g>
		<path d="M410 170 a14 14 90 0 1 14 14 V195 h-58 V184 a14 14 90 0 1 14 -14" fill="#80cdc1" stroke="#80cdc1" stroke-width="0"/>
		<path d="M424 195 v11 a14 14 90 0 1 -14 14 H380 a14 14 90 0 1 -14 -14 V195 H58" fill="#c7eae5" stroke="#c7eae5" stroke-width="0"/>
		<rect x="366" y="170" width="58" height="50" fill="none" rx="14" stroke="#35978f" stroke-width="2"/>
		<line x1="366" y1="195" x2="424" y2="195" stroke="#35978f" stroke-width="1"/>
		<text x="373" y="187.75" fill="#000000" font-family="Verdana" font-size="12">ARMER</text>
	</g>
	<text x="369" y="237" fill="#8c510a" font-family="Verdana" font-size="12">1,1</text>
	<text x="269" y="212" fill="#8c510a" font-family="Verdana" font-size="12">0,N</text>
</g>

<!-- Association SITUER -->
<g>
	<line x1="629" y1="195" x2="516" y2="195" stroke="#35978f" stroke-width="2"/>
	<line x1="395" y1="321" x2="516" y2="195" stroke="#35978f" stroke-width="2"/>
	<g>
		<path d="M532 170 a14 14 90 0 1 14 14 V195 h-60 V184 a14 14 90 0 1 14 -14" fill="#80cdc1" stroke="#80cdc1" stroke-width="0"/>
		<path d="M546 195 v11 a14 14 90 0 1 -14 14 H500 a14 14 90 0 1 -14 -14 V195 H60" fill="#c7eae5" stroke="#c7eae5" stroke-width="0"/>
		<rect x="486" y="170" width="60" height="50" fill="none" rx="14" stroke="#35978f" stroke-width="2"/>
		<line x1="486" y1="195" x2="546" y2="195" stroke="#35978f" stroke-width="1"/>
		<text x="493" y="187.75" fill="#000000" font-family="Verdana" font-size="12">SITUER</text>
	</g>
	<text x="551" y="212" fill="#8c510a" font-family="Verdana" font-size="12">0,N</text>
	<text x="448.85" y="237" fill="#8c510a" font-family="Verdana" font-size="12">1,1</text>
</g>

<!-- Association REPARTIR -->
<g>
	<line x1="395" y1="321" x2="226" y2="321" stroke="#35978f" stroke-width="2"/>
	<line x1="113" y1="321" x2="226" y2="321" stroke="#35978f" stroke-width="2"/>
	<g>
		<path d="M250 296 a14 14 90 0 1 14 14 V321 h-76 V310 a14 14 90 0 1 14 -14" fill="#80cdc1" stroke="#80cdc1" stroke-width="0"/>
		<path d="M264 321 v11 a14 14 90 0 1 -14 14 H202 a14 14 90 0 1 -14 -14 V321 H76" fill="#c7eae5" stroke="#c7eae5" stroke-width="0"/>
		<rect x="188" y="296" width="76" height="50" fill="none" rx="14" stroke="#35978f" stroke-width="2"/>
		<line x1="188" y1="321" x2="264" y2="321" stroke="#35978f" stroke-width="1"/>
		<text x="195" y="313.75" fill="#000000" font-family="Verdana" font-size="12">REPARTIR</text>
	</g>
	<text x="295" y="338" fill="#8c510a" font-family="Verdana" font-size="12">0,N</text>
	<text x="161" y="338" fill="#8c510a" font-family="Verdana" font-size="12">1,1</text>
</g>

<!-- Association CONTIENT -->
<g>
	<line x1="395" y1="321" x2="629" y2="321" stroke="#35978f" stroke-width="2"/>
	<line x1="739" y1="321" x2="629" y2="321" stroke="#35978f" stroke-width="2"/>
	<g>
		<path d="M654 296 a14 14 90 0 1 14 14 V321 h-78 V310 a14 14 90 0 1 14 -14" fill="#80cdc1" stroke="#80cdc1" stroke-width="0"/>
		<path d="M668 321 v11 a14 14 90 0 1 -14 14 H604 a14 14 90 0 1 -14 -14 V321 H78" fill="#c7eae5" stroke="#c7eae5" stroke-width="0"/>
		<rect x="590" y="296" width="78" height="50" fill="none" rx="14" stroke="#35978f" stroke-width="2"/>
		<line x1="590" y1="321" x2="668" y2="321" stroke="#35978f" stroke-width="1"/>
		<text x="597" y="313.75" fill="#000000" font-family="Verdana" font-size="12">CONTIENT</text>
	</g>
	<text x="473" y="338" fill="#8c510a" font-family="Verdana" font-size="12">1,1</text>
	<text x="673" y="338" fill="#8c510a" font-family="Verdana" font-size="12">0,N</text>
</g>

<!-- Association ORGANISER -->
<g>
	<line x1="113" y1="321" x2="113" y2="447" stroke="#35978f" stroke-width="2"/>
	<line x1="113" y1="531" x2="113" y2="447" stroke="#35978f" stroke-width="2"/>
	<g>
		<path d="M144 422 a14 14 90 0 1 14 14 V447 h-90 V436 a14 14 90 0 1 14 -14" fill="#80cdc1" stroke="#80cdc1" stroke-width="0"/>
		<path d="M158 447 v11 a14 14 90 0 1 -14 14 H82 a14 14 90 0 1 -14 -14 V447 H90" fill="#c7eae5" stroke="#c7eae5" stroke-width="0"/>
		<rect x="68" y="422" width="90" height="50" fill="none" rx="14" stroke="#35978f" stroke-width="2"/>
		<line x1="68" y1="447" x2="158" y2="447" stroke="#35978f" stroke-width="1"/>
		<text x="76" y="439.75" fill="#000000" font-family="Verdana" font-size="12">ORGANISER</text>
	</g>
	<text x="118" y="363" fill="#8c510a" font-family="Verdana" font-size="12">0,N</text>
	<text x="118" y="489" fill="#8c510a" font-family="Verdana" font-size="12">1,1</text>
</g>

<!-- Association POUR -->
<g>
	<line x1="395" y1="321" x2="516" y2="447" stroke="#35978f" stroke-width="2"/>
	<line x1="629" y1="447" x2="516" y2="447" stroke="#35978f" stroke-width="2"/>
	<g>
		<path d="M527 422 a14 14 90 0 1 14 14 V447 h-50 V436 a14 14 90 0 1 14 -14" fill="#80cdc1" stroke="#80cdc1" stroke-width="0"/>
		<path d="M541 447 v11 a14 14 90 0 1 -14 14 H505 a14 14 90 0 1 -14 -14 V447 H50" fill="#c7eae5" stroke="#c7eae5" stroke-width="0"/>
		<rect x="491" y="422" width="50" height="50" fill="none" rx="14" stroke="#35978f" stroke-width="2"/>
		<line x1="491" y1="447" x2="541" y2="447" stroke="#35978f" stroke-width="1"/>
		<text x="499" y="439.75" fill="#000000" font-family="Verdana" font-size="12">POUR</text>
	</g>
	<text x="448.85" y="414" fill="#8c510a" font-family="Verdana" font-size="12">1,1</text>
	<text x="554" y="464" fill="#8c510a" font-family="Verdana" font-size="12">0,N</text>
</g>

<!-- Association PARTICIPER -->
<g>
	<line x1="113" y1="531" x2="226" y2="531" stroke="#35978f" stroke-width="2"/>
	<line x1="395" y1="742" x2="226" y2="531" stroke="#35978f" stroke-width="2"/>
	<g>
		<path d="M256 506 a14 14 90 0 1 14 14 V531 h-88 V520 a14 14 90 0 1 14 -14" fill="#80cdc1" stroke="#80cdc1" stroke-width="0"/>
		<path d="M270 531 v11 a14 14 90 0 1 -14 14 H196 a14 14 90 0 1 -14 -14 V531 H88" fill="#c7eae5" stroke="#c7eae5" stroke-width="0"/>
		<rect x="182" y="506" width="88" height="50" fill="none" rx="14" stroke="#35978f" stroke-width="2"/>
		<line x1="182" y1="531" x2="270" y2="531" stroke="#35978f" stroke-width="1"/>
		<text x="189" y="523.75" fill="#000000" font-family="Verdana" font-size="12">PARTICIPER</text>
	</g>
	<text x="149" y="523" fill="#8c510a" font-family="Verdana" font-size="12">2,2</text>
	<text x="288" y="653.15" fill="#8c510a" font-family="Verdana" font-size="12">0,N</text>
</g>

<!-- Association INSCRIRE -->
<g>
	<line x1="395" y1="321" x2="395" y2="531" stroke="#35978f" stroke-width="2"/>
	<line x1="395" y1="742" x2="395" y2="531" stroke="#35978f" stroke-width="2"/>
	<g>
		<path d="M419 506 a14 14 90 0 1 14 14 V531 h-76 V520 a14 14 90 0 1 14 -14" fill="#80cdc1" stroke="#80cdc1" stroke-width="0"/>
		<path d="M433 531 v11 a14 14 90 0 1 -14 14 H371 a14 14 90 0 1 -14 -14 V531 H76" fill="#c7eae5" stroke="#c7eae5" stroke-width="0"/>
		<rect x="357" y="506" width="76" height="50" fill="none" rx="14" stroke="#35978f" stroke-width="2"/>
		<line x1="357" y1="531" x2="433" y2="531" stroke="#35978f" stroke-width="1"/>
		<text x="365" y="523.75" fill="#000000" font-family="Verdana" font-size="12">INSCRIRE</text>
	</g>
	<text x="368" y="414" fill="#8c510a" font-family="Verdana" font-size="12">0,N</text>
	<text x="400" y="632" fill="#8c510a" font-family="Verdana" font-size="12">0,N</text>
</g>

<!-- Association ARBITRAGE -->
<g>
	<line x1="395" y1="321" x2="516" y2="531" stroke="#35978f" stroke-width="2"/>
	<line x1="395" y1="742" x2="516" y2="531" stroke="#35978f" stroke-width="2"/>
	<g>
		<path d="M545 506 a14 14 90 0 1 14 14 V531 h-86 V520 a14 14 90 0 1 14 -14" fill="#80cdc1" stroke="#80cdc1" stroke-width="0"/>
		<path d="M559 531 v11 a14 14 90 0 1 -14 14 H487 a14 14 90 0 1 -14 -14 V531 H86" fill="#c7eae5" stroke="#c7eae5" stroke-width="0"/>
		<rect x="473" y="506" width="86" height="50" fill="none" rx="14" stroke="#35978f" stroke-width="2"/>
		<line x1="473" y1="531" x2="559" y2="531" stroke="#35978f" stroke-width="1"/>
		<text x="480" y="523.75" fill="#000000" font-family="Verdana" font-size="12">ARBITRAGE</text>
	</g>
	<text x="416.26" y="414" fill="#8c510a" font-family="Verdana" font-size="12">0,N</text>
	<text x="430.95" y="632" fill="#8c510a" font-family="Verdana" font-size="12">0,N</text>
</g>

<!-- Association TOUCHER -->
<g>
	<line x1="113" y1="531" x2="113" y2="615" stroke="#35978f" stroke-width="2"/>
	<line x1="113" y1="742" x2="113" y2="615" stroke="#35978f" stroke-width="2"/>
	<g>
		<path d="M136 590 a14 14 90 0 1 14 14 V615 h-74 V604 a14 14 90 0 1 14 -14" fill="#80cdc1" stroke="#80cdc1" stroke-width="0"/>
		<path d="M150 615 v11 a14 14 90 0 1 -14 14 H90 a14 14 90 0 1 -14 -14 V615 H74" fill="#c7eae5" stroke="#c7eae5" stroke-width="0"/>
		<rect x="76" y="590" width="74" height="50" fill="none" rx="14" stroke="#35978f" stroke-width="2"/>
		<line x1="76" y1="615" x2="150" y2="615" stroke="#35978f" stroke-width="1"/>
		<text x="83" y="607.75" fill="#000000" font-family="Verdana" font-size="12">TOUCHER</text>
	</g>
	<text x="86" y="582" fill="#8c510a" font-family="Verdana" font-size="12">0,N</text>
	<text x="118" y="709" fill="#8c510a" font-family="Verdana" font-size="12">1,1</text>
</g>

<!-- Association ARBITRER -->
<g>
	<line x1="113" y1="531" x2="226" y2="615" stroke="#35978f" stroke-width="2"/>
	<line x1="395" y1="742" x2="226" y2="615" stroke="#35978f" stroke-width="2"/>
	<g>
		<path d="M251 590 a14 14 90 0 1 14 14 V615 h-78 V604 a14 14 90 0 1 14 -14" fill="#80cdc1" stroke="#80cdc1" stroke-width="0"/>
		<path d="M265 615 v11 a14 14 90 0 1 -14 14 H201 a14 14 90 0 1 -14 -14 V615 H78" fill="#c7eae5" stroke="#c7eae5" stroke-width="0"/>
		<rect x="187" y="590" width="78" height="50" fill="none" rx="14" stroke="#35978f" stroke-width="2"/>
		<line x1="187" y1="615" x2="265" y2="615" stroke="#35978f" stroke-width="1"/>
		<text x="195" y="607.75" fill="#000000" font-family="Verdana" font-size="12">ARBITRER</text>
	</g>
	<text x="149" y="551.66" fill="#8c510a" font-family="Verdana" font-size="12">1,1</text>
	<text x="288" y="693.22" fill="#8c510a" font-family="Verdana" font-size="12">0,N</text>
</g>

<!-- Association AVOIR -->
<g>
	<line x1="629" y1="447" x2="629" y2="615" stroke="#35978f" stroke-width="2"/>
	<line x1="395" y1="742" x2="629" y2="615" stroke="#35978f" stroke-width="2"/>
	<g>
		<path d="M642 590 a14 14 90 0 1 14 14 V615 h-54 V604 a14 14 90 0 1 14 -14" fill="#80cdc1" stroke="#80cdc1" stroke-width="0"/>
		<path d="M656 615 v11 a14 14 90 0 1 -14 14 H616 a14 14 90 0 1 -14 -14 V615 H54" fill="#c7eae5" stroke="#c7eae5" stroke-width="0"/>
		<rect x="602" y="590" width="54" height="50" fill="none" rx="14" stroke="#35978f" stroke-width="2"/>
		<line x1="602" y1="615" x2="656" y2="615" stroke="#35978f" stroke-width="1"/>
		<text x="609" y="607.75" fill="#000000" font-family="Verdana" font-size="12">AVOIR</text>
	</g>
	<text x="634" y="498" fill="#8c510a" font-family="Verdana" font-size="12">0,N</text>
	<text x="480" y="711.35" fill="#8c510a" font-family="Verdana" font-size="12">1,1</text>
</g>

<!-- Association FAIT_PART -->
<g>
	<line x1="113" y1="742" x2="226" y2="742" stroke="#35978f" stroke-width="2"/>
	<line x1="395" y1="742" x2="226" y2="742" stroke="#35978f" stroke-width="2"/>
	<g>
		<path d="M251 717 a14 14 90 0 1 14 14 V742 h-78 V731 a14 14 90 0 1 14 -14" fill="#80cdc1" stroke="#80cdc1" stroke-width="0"/>
		<path d="M265 742 v11 a14 14 90 0 1 -14 14 H201 a14 14 90 0 1 -14 -14 V742 H78" fill="#c7eae5" stroke="#c7eae5" stroke-width="0"/>
		<rect x="187" y="717" width="78" height="50" fill="none" rx="14" stroke="#35978f" stroke-width="2"/>
		<line x1="187" y1="742" x2="265" y2="742" stroke="#35978f" stroke-width="1"/>
		<text x="194" y="734.75" fill="#000000" font-family="Verdana" font-size="12">FAIT PART</text>
	</g>
	<text x="149" y="759" fill="#8c510a" font-family="Verdana" font-size="12">1,1</text>
	<text x="288" y="759" fill="#8c510a" font-family="Verdana" font-size="12">0,N</text>
</g>

<!-- Association FAIT_PARTIE -->
<g>
	<line x1="739" y1="321" x2="739" y2="742" stroke="#35978f" stroke-width="2"/>
	<line x1="395" y1="742" x2="739" y2="742" stroke="#35978f" stroke-width="2"/>
	<g>
		<path d="M772 717 a14 14 90 0 1 14 14 V742 h-94 V731 a14 14 90 0 1 14 -14" fill="#80cdc1" stroke="#80cdc1" stroke-width="0"/>
		<path d="M786 742 v11 a14 14 90 0 1 -14 14 H706 a14 14 90 0 1 -14 -14 V742 H94" fill="#c7eae5" stroke="#c7eae5" stroke-width="0"/>
		<rect x="692" y="717" width="94" height="50" fill="none" rx="14" stroke="#35978f" stroke-width="2"/>
		<line x1="692" y1="742" x2="786" y2="742" stroke="#35978f" stroke-width="1"/>
		<text x="699" y="734.75" fill="#000000" font-family="Verdana" font-size="12">FAIT_PARTIE</text>
	</g>
	<text x="744" y="372" fill="#8c510a" font-family="Verdana" font-size="12">0,N</text>
	<text x="480" y="759" fill="#8c510a" font-family="Verdana" font-size="12">1,4</text>
</g>

<!-- Association MEMBRE -->
<g>
	<line x1="395" y1="742" x2="395" y2="894" stroke="#35978f" stroke-width="2"/>
	<line x1="395" y1="995" x2="395" y2="894" stroke="#35978f" stroke-width="2"/>
	<g>
		<path d="M415 869 a14 14 90 0 1 14 14 V894 h-68 V883 a14 14 90 0 1 14 -14" fill="#80cdc1" stroke="#80cdc1" stroke-width="0"/>
		<path d="M429 894 v11 a14 14 90 0 1 -14 14 H375 a14 14 90 0 1 -14 -14 V894 H68" fill="#c7eae5" stroke="#c7eae5" stroke-width="0"/>
		<rect x="361" y="869" width="68" height="50" fill="none" rx="14" stroke="#35978f" stroke-width="2"/>
		<line x1="361" y1="894" x2="429" y2="894" stroke="#35978f" stroke-width="1"/>
		<text x="369" y="886.75" fill="#000000" font-family="Verdana" font-size="12">MEMBRE</text>
	</g>
	<text x="400" y="861" fill="#8c510a" font-family="Verdana" font-size="12">1,1</text>
	<text x="400" y="936" fill="#8c510a" font-family="Verdana" font-size="12">0,N</text>
</g>

<!-- Entity POULE -->
<g>
	<g>
		<rect x="9" y="52" width="54" height="25" fill="#dfc27d" stroke="none" stroke-width="0" opacity="1"/>
		<rect x="9" y="77" width="54" height="25" fill="#f6e8c3" stroke="none" stroke-width="0" opacity="1"/>
		<rect x="9" y="52" width="54" height="50" fill="none" stroke="#bf812d" stroke-width="2" opacity="1"/>
		<line x1="9" y1="77" x2="63" y2="77" stroke="#bf812d" stroke-width="1"/>
	</g>
	<text x="16" y="69.75" fill="#000000" font-family="Verdana" font-size="12">POULE</text>
	<text x="14" y="94.8" fill="#000000" font-family="Verdana" font-size="12">idPoule</text>
	<line x1="14" y1="97" x2="58" y2="97" stroke="#000000" stroke-width="1"/>
</g>

<!-- Entity PHASE_FINAL -->
<g>
	<g>
		<rect x="178" y="52" width="96" height="25" fill="#dfc27d" stroke="none" stroke-width="0" opacity="1"/>
		<rect x="178" y="77" width="96" height="25" fill="#f6e8c3" stroke="none" stroke-width="0" opacity="1"/>
		<rect x="178" y="52" width="96" height="50" fill="none" stroke="#bf812d" stroke-width="2" opacity="1"/>
		<line x1="178" y1="77" x2="274" y2="77" stroke="#bf812d" stroke-width="1"/>
	</g>
	<text x="184" y="69.75" fill="#000000" font-family="Verdana" font-size="12">PHASE_FINAL</text>
	<text x="183" y="94.8" fill="#000000" font-family="Verdana" font-size="12">idPhaseFinal</text>
	<line x1="183" y1="97" x2="258" y2="97" stroke="#000000" stroke-width="1"/>
</g>

<!-- Entity ORGANISATEUR -->
<g>
	<g>
		<rect x="306" y="9" width="178" height="25" fill="#dfc27d" stroke="none" stroke-width="0" opacity="1"/>
		<rect x="306" y="34" width="178" height="111" fill="#f6e8c3" stroke="none" stroke-width="0" opacity="1"/>
		<rect x="306" y="9" width="178" height="136" fill="none" stroke="#bf812d" stroke-width="2" opacity="1"/>
		<line x1="306" y1="34" x2="484" y2="34" stroke="#bf812d" stroke-width="1"/>
	</g>
	<text x="346" y="26.75" fill="#000000" font-family="Verdana" font-size="12">ORGANISATEUR</text>
	<text x="311" y="51.8" fill="#000000" font-family="Verdana" font-size="12">idOrganisateur</text>
	<line x1="311" y1="54" x2="401" y2="54" stroke="#000000" stroke-width="1"/>
	<text x="311" y="68.8" fill="#000000" font-family="Verdana" font-size="12">nomOrganisateur</text>
	<text x="311" y="85.8" fill="#000000" font-family="Verdana" font-size="12">prenomOrganisateur</text>
	<text x="311" y="102.8" fill="#000000" font-family="Verdana" font-size="12">adresseMailOrganisateur</text>
	<text x="311" y="119.8" fill="#000000" font-family="Verdana" font-size="12">mdpOrganisateur</text>
	<text x="311" y="136.8" fill="#000000" font-family="Verdana" font-size="12">nomUtilisateurOrganisateur</text>
</g>

<!-- Entity ARMES -->
<g>
	<g>
		<rect x="188" y="161" width="76" height="25" fill="#dfc27d" stroke="none" stroke-width="0" opacity="1"/>
		<rect x="188" y="186" width="76" height="43" fill="#f6e8c3" stroke="none" stroke-width="0" opacity="1"/>
		<rect x="188" y="161" width="76" height="68" fill="none" stroke="#bf812d" stroke-width="2" opacity="1"/>
		<line x1="188" y1="186" x2="264" y2="186" stroke="#bf812d" stroke-width="1"/>
	</g>
	<text x="205" y="178.75" fill="#000000" font-family="Verdana" font-size="12">ARMES</text>
	<text x="193" y="203.8" fill="#000000" font-family="Verdana" font-size="12">idArmes</text>
	<line x1="193" y1="206" x2="243" y2="206" stroke="#000000" stroke-width="1"/>
	<text x="193" y="220.8" fill="#000000" font-family="Verdana" font-size="12">nomArmes</text>
</g>

<!-- Entity LIEU -->
<g>
	<g>
		<rect x="578" y="153" width="102" height="25" fill="#dfc27d" stroke="none" stroke-width="0" opacity="1"/>
		<rect x="578" y="178" width="102" height="59" fill="#f6e8c3" stroke="none" stroke-width="0" opacity="1"/>
		<rect x="578" y="153" width="102" height="84" fill="none" stroke="#bf812d" stroke-width="2" opacity="1"/>
		<line x1="578" y1="178" x2="680" y2="178" stroke="#bf812d" stroke-width="1"/>
	</g>
	<text x="615" y="170.75" fill="#000000" font-family="Verdana" font-size="12">LIEU</text>
	<text x="583" y="195.8" fill="#000000" font-family="Verdana" font-size="12">idLieu</text>
	<line x1="583" y1="198" x2="620" y2="198" stroke="#000000" stroke-width="1"/>
	<text x="583" y="212.8" fill="#000000" font-family="Verdana" font-size="12">adresseLieu</text>
	<text x="583" y="229.8" fill="#000000" font-family="Verdana" font-size="12">descriptionLieu</text>
</g>

<!-- Entity PHASE -->
<g>
	<g>
		<rect x="70" y="296" width="86" height="25" fill="#dfc27d" stroke="none" stroke-width="0" opacity="1"/>
		<rect x="70" y="321" width="86" height="25" fill="#f6e8c3" stroke="none" stroke-width="0" opacity="1"/>
		<rect x="70" y="296" width="86" height="50" fill="none" stroke="#bf812d" stroke-width="2" opacity="1"/>
		<line x1="70" y1="321" x2="156" y2="321" stroke="#bf812d" stroke-width="1"/>
	</g>
	<text x="93" y="313.75" fill="#000000" font-family="Verdana" font-size="12">PHASE</text>
	<text x="75" y="338.8" fill="#000000" font-family="Verdana" font-size="12">idPhaseFinal</text>
	<line x1="75" y1="341" x2="150" y2="341" stroke="#000000" stroke-width="1"/>
</g>

<!-- Entity COMPETITION -->
<g>
	<g>
		<rect x="322" y="245" width="146" height="25" fill="#dfc27d" stroke="none" stroke-width="0" opacity="1"/>
		<rect x="322" y="270" width="146" height="127" fill="#f6e8c3" stroke="none" stroke-width="0" opacity="1"/>
		<rect x="322" y="245" width="146" height="152" fill="none" stroke="#bf812d" stroke-width="2" opacity="1"/>
		<line x1="322" y1="270" x2="468" y2="270" stroke="#bf812d" stroke-width="1"/>
	</g>
	<text x="352" y="262.75" fill="#000000" font-family="Verdana" font-size="12">COMPETITION</text>
	<text x="327" y="287.8" fill="#000000" font-family="Verdana" font-size="12">idCompetition</text>
	<line x1="327" y1="290" x2="412" y2="290" stroke="#000000" stroke-width="1"/>
	<text x="327" y="304.8" fill="#000000" font-family="Verdana" font-size="12">nomCompetition</text>
	<text x="327" y="321.8" fill="#000000" font-family="Verdana" font-size="12">dateCompetition</text>
	<text x="327" y="338.8" fill="#000000" font-family="Verdana" font-size="12">dateFinInscription</text>
	<text x="327" y="355.8" fill="#000000" font-family="Verdana" font-size="12">coefficientCompetition</text>
	<text x="327" y="372.8" fill="#000000" font-family="Verdana" font-size="12">saisonCompetition</text>
	<text x="327" y="389.8" fill="#000000" font-family="Verdana" font-size="12">isEquipe</text>
</g>

<!-- Entity EQUIPE -->
<g>
	<g>
		<rect x="700" y="287" width="78" height="25" fill="#dfc27d" stroke="none" stroke-width="0" opacity="1"/>
		<rect x="700" y="312" width="78" height="43" fill="#f6e8c3" stroke="none" stroke-width="0" opacity="1"/>
		<rect x="700" y="287" width="78" height="68" fill="none" stroke="#bf812d" stroke-width="2" opacity="1"/>
		<line x1="700" y1="312" x2="778" y2="312" stroke="#bf812d" stroke-width="1"/>
	</g>
	<text x="716" y="304.75" fill="#000000" font-family="Verdana" font-size="12">EQUIPE</text>
	<text x="705" y="329.8" fill="#000000" font-family="Verdana" font-size="12">idEquipe</text>
	<line x1="705" y1="332" x2="757" y2="332" stroke="#000000" stroke-width="1"/>
	<text x="705" y="346.8" fill="#000000" font-family="Verdana" font-size="12">nomEquipe</text>
</g>

<!-- Entity CATEGORIE -->
<g>
	<g>
		<rect x="581" y="413" width="96" height="25" fill="#dfc27d" stroke="none" stroke-width="0" opacity="1"/>
		<rect x="581" y="438" width="96" height="43" fill="#f6e8c3" stroke="none" stroke-width="0" opacity="1"/>
		<rect x="581" y="413" width="96" height="68" fill="none" stroke="#bf812d" stroke-width="2" opacity="1"/>
		<line x1="581" y1="438" x2="677" y2="438" stroke="#bf812d" stroke-width="1"/>
	</g>
	<text x="593" y="430.75" fill="#000000" font-family="Verdana" font-size="12">CATEGORIE</text>
	<text x="586" y="455.8" fill="#000000" font-family="Verdana" font-size="12">idCategorie</text>
	<line x1="586" y1="458" x2="656" y2="458" stroke="#000000" stroke-width="1"/>
	<text x="586" y="472.8" fill="#000000" font-family="Verdana" font-size="12">nomCategorie</text>
</g>

<!-- Entity MATCHS -->
<g>
	<g>
		<rect x="82" y="497" width="62" height="25" fill="#dfc27d" stroke="none" stroke-width="0" opacity="1"/>
		<rect x="82" y="522" width="62" height="43" fill="#f6e8c3" stroke="none" stroke-width="0" opacity="1"/>
		<rect x="82" y="497" width="62" height="68" fill="none" stroke="#bf812d" stroke-width="2" opacity="1"/>
		<line x1="82" y1="522" x2="144" y2="522" stroke="#bf812d" stroke-width="1"/>
	</g>
	<text x="87" y="514.75" fill="#000000" font-family="Verdana" font-size="12">MATCHS</text>
	<text x="87" y="539.8" fill="#000000" font-family="Verdana" font-size="12">idMatch</text>
	<line x1="87" y1="542" x2="135" y2="542" stroke="#000000" stroke-width="1"/>
	<text x="87" y="556.8" fill="#000000" font-family="Verdana" font-size="12">fini</text>
</g>

<!-- Entity TOUCHE -->
<g>
	<g>
		<rect x="82" y="717" width="62" height="25" fill="#dfc27d" stroke="none" stroke-width="0" opacity="1"/>
		<rect x="82" y="742" width="62" height="25" fill="#f6e8c3" stroke="none" stroke-width="0" opacity="1"/>
		<rect x="82" y="717" width="62" height="50" fill="none" stroke="#bf812d" stroke-width="2" opacity="1"/>
		<line x1="82" y1="742" x2="144" y2="742" stroke="#bf812d" stroke-width="1"/>
	</g>
	<text x="87" y="734.75" fill="#000000" font-family="Verdana" font-size="12">TOUCHE</text>
	<text x="87" y="759.8" fill="#000000" font-family="Verdana" font-size="12">numT</text>
	<line x1="87" y1="762" x2="122" y2="762" stroke="#000000" stroke-width="1"/>
</g>

<!-- Entity ESCRIMEUR -->
<g>
	<g>
		<rect x="315" y="640" width="160" height="25" fill="#dfc27d" stroke="none" stroke-width="0" opacity="1"/>
		<rect x="315" y="665" width="160" height="179" fill="#f6e8c3" stroke="none" stroke-width="0" opacity="1"/>
		<rect x="315" y="640" width="160" height="204" fill="none" stroke="#bf812d" stroke-width="2" opacity="1"/>
		<line x1="315" y1="665" x2="475" y2="665" stroke="#bf812d" stroke-width="1"/>
	</g>
	<text x="359" y="657.75" fill="#000000" font-family="Verdana" font-size="12">ESCRIMEUR</text>
	<text x="320" y="682.8" fill="#000000" font-family="Verdana" font-size="12">idEscrimeur</text>
	<line x1="320" y1="685" x2="392" y2="685" stroke="#000000" stroke-width="1"/>
	<text x="320" y="699.8" fill="#000000" font-family="Verdana" font-size="12">nomEscrimeur</text>
	<text x="320" y="716.8" fill="#000000" font-family="Verdana" font-size="12">prenomEscrimeur</text>
	<text x="320" y="733.8" fill="#000000" font-family="Verdana" font-size="12">dateNaissance</text>
	<text x="320" y="750.8" fill="#000000" font-family="Verdana" font-size="12">licence</text>
	<text x="320" y="767.8" fill="#000000" font-family="Verdana" font-size="12">nomUtilisateurEscrimeur</text>
	<text x="320" y="784.8" fill="#000000" font-family="Verdana" font-size="12">mdpEscrimeur</text>
	<text x="320" y="801.8" fill="#000000" font-family="Verdana" font-size="12">classement</text>
	<text x="320" y="818.8" fill="#000000" font-family="Verdana" font-size="12">sexe</text>
	<text x="320" y="835.8" fill="#000000" font-family="Verdana" font-size="12">arbitrage</text>
</g>

<!-- Entity CLUB -->
<g>
	<g>
		<rect x="353" y="944" width="84" height="25" fill="#dfc27d" stroke="none" stroke-width="0" opacity="1"/>
		<rect x="353" y="969" width="84" height="77" fill="#f6e8c3" stroke="none" stroke-width="0" opacity="1"/>
		<rect x="353" y="944" width="84" height="102" fill="none" stroke="#bf812d" stroke-width="2" opacity="1"/>
		<line x1="353" y1="969" x2="437" y2="969" stroke="#bf812d" stroke-width="1"/>
	</g>
	<text x="379" y="961.75" fill="#000000" font-family="Verdana" font-size="12">CLUB</text>
	<text x="358" y="986.8" fill="#000000" font-family="Verdana" font-size="12">idClub</text>
	<line x1="358" y1="989" x2="397" y2="989" stroke="#000000" stroke-width="1"/>
	<text x="358" y="1003.8" fill="#000000" font-family="Verdana" font-size="12">nomClub</text>
	<text x="358" y="1020.8" fill="#000000" font-family="Verdana" font-size="12">adresseClub</text>
	<text x="358" y="1037.8" fill="#000000" font-family="Verdana" font-size="12">mdpClub</text>
</g>
</svg>