<?xml version="1.0" encoding="utf-8"?>
<!-- Generated by Mocodo 4.1.2 -->
<svg width="852" height="1147" viewBox="0 0 852 1147" xmlns="http://www.w3.org/2000/svg">
<rect x="0" y="0" width="852" height="1147" fill="#f5f5f5" stroke="none" stroke-width="0"/>

<!-- Association IS_A -->
<g>
	<line x1="241" y1="77" x2="113" y2="170" stroke="#35978f" stroke-width="2"/>
	<line x1="36" y1="77" x2="113" y2="170" stroke="#35978f" stroke-width="2"/>
	<line x1="113" y1="263" x2="113" y2="170" stroke="#35978f" stroke-width="2"/>
	<g>
		<path d="M121 145 a14 14 90 0 1 14 14 V170 h-44 V159 a14 14 90 0 1 14 -14" fill="#80cdc1" stroke="#80cdc1" stroke-width="0"/>
		<path d="M135 170 v11 a14 14 90 0 1 -14 14 H105 a14 14 90 0 1 -14 -14 V170 H44" fill="#c7eae5" stroke="#c7eae5" stroke-width="0"/>
		<rect x="91" y="145" width="44" height="50" fill="none" rx="14" stroke="#35978f" stroke-width="2"/>
		<line x1="91" y1="170" x2="135" y2="170" stroke="#35978f" stroke-width="1"/>
		<text x="98" y="162.75" fill="#000000" font-family="Verdana" font-size="12">IS_A</text>
	</g>
	<text x="206.08" y="119" fill="#8c510a" font-family="Verdana" font-size="12">T,E</text>
	<text x="37.83" y="119" fill="#8c510a" font-family="Verdana" font-size="12">T,E</text>
	<text x="118" y="230" fill="#8c510a" font-family="Verdana" font-size="12">     </text>
</g>

<!-- Association REPARTIR -->
<g>
	<line x1="113" y1="263" x2="241" y2="263" stroke="#35978f" stroke-width="2"/>
	<line x1="530" y1="263" x2="241" y2="263" stroke="#35978f" stroke-width="2"/>
	<g>
		<path d="M265 238 a14 14 90 0 1 14 14 V263 h-76 V252 a14 14 90 0 1 14 -14" fill="#80cdc1" stroke="#80cdc1" stroke-width="0"/>
		<path d="M279 263 v11 a14 14 90 0 1 -14 14 H217 a14 14 90 0 1 -14 -14 V263 H76" fill="#c7eae5" stroke="#c7eae5" stroke-width="0"/>
		<rect x="203" y="238" width="76" height="50" fill="none" rx="14" stroke="#35978f" stroke-width="2"/>
		<line x1="203" y1="263" x2="279" y2="263" stroke="#35978f" stroke-width="1"/>
		<text x="210" y="255.75" fill="#000000" font-family="Verdana" font-size="12">REPARTIR</text>
	</g>
	<text x="147" y="280" fill="#8c510a" font-family="Verdana" font-size="12">1,1</text>
	<text x="430" y="255" fill="#8c510a" font-family="Verdana" font-size="12">0,N</text>
</g>

<!-- Association ARMER -->
<g>
	<line x1="763" y1="263" x2="664" y2="263" stroke="#35978f" stroke-width="2"/>
	<line x1="530" y1="263" x2="664" y2="263" stroke="#35978f" stroke-width="2"/>
	<g>
		<path d="M679 238 a14 14 90 0 1 14 14 V263 h-58 V252 a14 14 90 0 1 14 -14" fill="#80cdc1" stroke="#80cdc1" stroke-width="0"/>
		<path d="M693 263 v11 a14 14 90 0 1 -14 14 H649 a14 14 90 0 1 -14 -14 V263 H58" fill="#c7eae5" stroke="#c7eae5" stroke-width="0"/>
		<rect x="635" y="238" width="58" height="50" fill="none" rx="14" stroke="#35978f" stroke-width="2"/>
		<line x1="635" y1="263" x2="693" y2="263" stroke="#35978f" stroke-width="1"/>
		<text x="642" y="255.75" fill="#000000" font-family="Verdana" font-size="12">ARMER</text>
	</g>
	<text x="698" y="280" fill="#8c510a" font-family="Verdana" font-size="12">0,N</text>
	<text x="608" y="255" fill="#8c510a" font-family="Verdana" font-size="12">1,1</text>
</g>

<!-- Association ORGANISER -->
<g>
	<line x1="113" y1="557" x2="113" y2="381" stroke="#35978f" stroke-width="2"/>
	<line x1="113" y1="263" x2="113" y2="381" stroke="#35978f" stroke-width="2"/>
	<g>
		<path d="M144 356 a14 14 90 0 1 14 14 V381 h-90 V370 a14 14 90 0 1 14 -14" fill="#80cdc1" stroke="#80cdc1" stroke-width="0"/>
		<path d="M158 381 v11 a14 14 90 0 1 -14 14 H82 a14 14 90 0 1 -14 -14 V381 H90" fill="#c7eae5" stroke="#c7eae5" stroke-width="0"/>
		<rect x="68" y="356" width="90" height="50" fill="none" rx="14" stroke="#35978f" stroke-width="2"/>
		<line x1="68" y1="381" x2="158" y2="381" stroke="#35978f" stroke-width="1"/>
		<text x="76" y="373.75" fill="#000000" font-family="Verdana" font-size="12">ORGANISER</text>
	</g>
	<text x="118" y="515" fill="#8c510a" font-family="Verdana" font-size="12">1,1</text>
	<text x="118" y="305" fill="#8c510a" font-family="Verdana" font-size="12">0,N</text>
</g>

<!-- Association SITUER -->
<g>
	<line x1="241" y1="381" x2="409" y2="381" stroke="#35978f" stroke-width="2"/>
	<line x1="530" y1="263" x2="409" y2="381" stroke="#35978f" stroke-width="2"/>
	<g>
		<path d="M425 356 a14 14 90 0 1 14 14 V381 h-60 V370 a14 14 90 0 1 14 -14" fill="#80cdc1" stroke="#80cdc1" stroke-width="0"/>
		<path d="M439 381 v11 a14 14 90 0 1 -14 14 H393 a14 14 90 0 1 -14 -14 V381 H60" fill="#c7eae5" stroke="#c7eae5" stroke-width="0"/>
		<rect x="379" y="356" width="60" height="50" fill="none" rx="14" stroke="#35978f" stroke-width="2"/>
		<line x1="379" y1="381" x2="439" y2="381" stroke="#35978f" stroke-width="1"/>
		<text x="386" y="373.75" fill="#000000" font-family="Verdana" font-size="12">SITUER</text>
	</g>
	<text x="297" y="398" fill="#8c510a" font-family="Verdana" font-size="12">0,N</text>
	<text x="458.33" y="348" fill="#8c510a" font-family="Verdana" font-size="12">1,1</text>
</g>

<!-- Association POUR -->
<g>
	<line x1="763" y1="557" x2="763" y2="381" stroke="#35978f" stroke-width="2"/>
	<line x1="530" y1="263" x2="763" y2="381" stroke="#35978f" stroke-width="2"/>
	<g>
		<path d="M774 356 a14 14 90 0 1 14 14 V381 h-50 V370 a14 14 90 0 1 14 -14" fill="#80cdc1" stroke="#80cdc1" stroke-width="0"/>
		<path d="M788 381 v11 a14 14 90 0 1 -14 14 H752 a14 14 90 0 1 -14 -14 V381 H50" fill="#c7eae5" stroke="#c7eae5" stroke-width="0"/>
		<rect x="738" y="356" width="50" height="50" fill="none" rx="14" stroke="#35978f" stroke-width="2"/>
		<line x1="738" y1="381" x2="788" y2="381" stroke="#35978f" stroke-width="1"/>
		<text x="746" y="373.75" fill="#000000" font-family="Verdana" font-size="12">POUR</text>
	</g>
	<text x="768" y="515" fill="#8c510a" font-family="Verdana" font-size="12">0,N</text>
	<text x="608" y="295.93" fill="#8c510a" font-family="Verdana" font-size="12">1,1</text>
</g>

<!-- Association COMPOSER -->
<g>
	<line x1="241" y1="381" x2="241" y2="473" stroke="#35978f" stroke-width="2"/>
	<line x1="409" y1="473" x2="241" y2="473" stroke="#35978f" stroke-width="2"/>
	<g>
		<path d="M269 448 a14 14 90 0 1 14 14 V473 h-84 V462 a14 14 90 0 1 14 -14" fill="#80cdc1" stroke="#80cdc1" stroke-width="0"/>
		<path d="M283 473 v11 a14 14 90 0 1 -14 14 H213 a14 14 90 0 1 -14 -14 V473 H84" fill="#c7eae5" stroke="#c7eae5" stroke-width="0"/>
		<rect x="199" y="448" width="84" height="50" fill="none" rx="14" stroke="#35978f" stroke-width="2"/>
		<line x1="199" y1="473" x2="283" y2="473" stroke="#35978f" stroke-width="1"/>
		<text x="206" y="465.75" fill="#000000" font-family="Verdana" font-size="12">COMPOSER</text>
	</g>
	<text x="246" y="440" fill="#8c510a" font-family="Verdana" font-size="12">1,N</text>
	<text x="330" y="465" fill="#8c510a" font-family="Verdana" font-size="12">1,1</text>
</g>

<!-- Association ARBITRAGE -->
<g>
	<line x1="530" y1="834" x2="664" y2="473" stroke="#35978f" stroke-width="2"/>
	<line x1="530" y1="263" x2="664" y2="473" stroke="#35978f" stroke-width="2"/>
	<g>
		<path d="M693 448 a14 14 90 0 1 14 14 V473 h-86 V462 a14 14 90 0 1 14 -14" fill="#80cdc1" stroke="#80cdc1" stroke-width="0"/>
		<path d="M707 473 v11 a14 14 90 0 1 -14 14 H635 a14 14 90 0 1 -14 -14 V473 H86" fill="#c7eae5" stroke="#c7eae5" stroke-width="0"/>
		<rect x="621" y="448" width="86" height="50" fill="none" rx="14" stroke="#35978f" stroke-width="2"/>
		<line x1="621" y1="473" x2="707" y2="473" stroke="#35978f" stroke-width="1"/>
		<text x="628" y="465.75" fill="#000000" font-family="Verdana" font-size="12">ARBITRAGE</text>
	</g>
	<text x="578.76" y="724" fill="#8c510a" font-family="Verdana" font-size="12">0,N</text>
	<text x="591.3" y="348" fill="#8c510a" font-family="Verdana" font-size="12">0,N</text>
</g>

<!-- Association AVOIR_LIEU -->
<g>
	<line x1="113" y1="557" x2="324" y2="557" stroke="#35978f" stroke-width="2"/>
	<line x1="409" y1="473" x2="324" y2="557" stroke="#35978f" stroke-width="2"/>
	<g>
		<path d="M354 532 a14 14 90 0 1 14 14 V557 h-88 V546 a14 14 90 0 1 14 -14" fill="#80cdc1" stroke="#80cdc1" stroke-width="0"/>
		<path d="M368 557 v11 a14 14 90 0 1 -14 14 H294 a14 14 90 0 1 -14 -14 V557 H88" fill="#c7eae5" stroke="#c7eae5" stroke-width="0"/>
		<rect x="280" y="532" width="88" height="50" fill="none" rx="14" stroke="#35978f" stroke-width="2"/>
		<line x1="280" y1="557" x2="368" y2="557" stroke="#35978f" stroke-width="1"/>
		<text x="288" y="549.75" fill="#000000" font-family="Verdana" font-size="12">AVOIR LIEU</text>
	</g>
	<text x="149" y="549" fill="#8c510a" font-family="Verdana" font-size="12">1,1</text>
	<text x="372.58" y="524" fill="#8c510a" font-family="Verdana" font-size="12">0,N</text>
</g>

<!-- Association INSCRIRE -->
<g>
	<line x1="530" y1="834" x2="530" y2="557" stroke="#35978f" stroke-width="2"/>
	<line x1="530" y1="263" x2="530" y2="557" stroke="#35978f" stroke-width="2"/>
	<g>
		<path d="M554 532 a14 14 90 0 1 14 14 V557 h-76 V546 a14 14 90 0 1 14 -14" fill="#80cdc1" stroke="#80cdc1" stroke-width="0"/>
		<path d="M568 557 v11 a14 14 90 0 1 -14 14 H506 a14 14 90 0 1 -14 -14 V557 H76" fill="#c7eae5" stroke="#c7eae5" stroke-width="0"/>
		<rect x="492" y="532" width="76" height="50" fill="none" rx="14" stroke="#35978f" stroke-width="2"/>
		<line x1="492" y1="557" x2="568" y2="557" stroke="#35978f" stroke-width="1"/>
		<text x="500" y="549.75" fill="#000000" font-family="Verdana" font-size="12">INSCRIRE</text>
	</g>
	<text x="535" y="724" fill="#8c510a" font-family="Verdana" font-size="12">0,N</text>
	<text x="535" y="348" fill="#8c510a" font-family="Verdana" font-size="12">0,N</text>
</g>

<!-- Association PARTICIPER -->
<g>
	<line x1="113" y1="557" x2="324" y2="632" stroke="#35978f" stroke-width="2"/>
	<line x1="530" y1="834" x2="324" y2="632" stroke="#35978f" stroke-width="2"/>
	<g>
		<path d="M354 607 a14 14 90 0 1 14 14 V632 h-88 V621 a14 14 90 0 1 14 -14" fill="#80cdc1" stroke="#80cdc1" stroke-width="0"/>
		<path d="M368 632 v11 a14 14 90 0 1 -14 14 H294 a14 14 90 0 1 -14 -14 V632 H88" fill="#c7eae5" stroke="#c7eae5" stroke-width="0"/>
		<rect x="280" y="607" width="88" height="50" fill="none" rx="14" stroke="#35978f" stroke-width="2"/>
		<line x1="280" y1="632" x2="368" y2="632" stroke="#35978f" stroke-width="1"/>
		<text x="287" y="624.75" fill="#000000" font-family="Verdana" font-size="12">PARTICIPER</text>
	</g>
	<text x="149" y="587.8" fill="#8c510a" font-family="Verdana" font-size="12">2,2</text>
	<text x="423" y="765.58" fill="#8c510a" font-family="Verdana" font-size="12">0,N</text>
</g>

<!-- Association TOUCHER -->
<g>
	<line x1="113" y1="557" x2="113" y2="707" stroke="#35978f" stroke-width="2"/>
	<line x1="113" y1="834" x2="113" y2="707" stroke="#35978f" stroke-width="2"/>
	<g>
		<path d="M136 682 a14 14 90 0 1 14 14 V707 h-74 V696 a14 14 90 0 1 14 -14" fill="#80cdc1" stroke="#80cdc1" stroke-width="0"/>
		<path d="M150 707 v11 a14 14 90 0 1 -14 14 H90 a14 14 90 0 1 -14 -14 V707 H74" fill="#c7eae5" stroke="#c7eae5" stroke-width="0"/>
		<rect x="76" y="682" width="74" height="50" fill="none" rx="14" stroke="#35978f" stroke-width="2"/>
		<line x1="76" y1="707" x2="150" y2="707" stroke="#35978f" stroke-width="1"/>
		<text x="83" y="699.75" fill="#000000" font-family="Verdana" font-size="12">TOUCHER</text>
	</g>
	<text x="86" y="608" fill="#8c510a" font-family="Verdana" font-size="12">0,N</text>
	<text x="118" y="801" fill="#8c510a" font-family="Verdana" font-size="12">1,1</text>
</g>

<!-- Association ARBITRER -->
<g>
	<line x1="113" y1="557" x2="241" y2="707" stroke="#35978f" stroke-width="2"/>
	<line x1="530" y1="834" x2="241" y2="707" stroke="#35978f" stroke-width="2"/>
	<g>
		<path d="M266 682 a14 14 90 0 1 14 14 V707 h-78 V696 a14 14 90 0 1 14 -14" fill="#80cdc1" stroke="#80cdc1" stroke-width="0"/>
		<path d="M280 707 v11 a14 14 90 0 1 -14 14 H216 a14 14 90 0 1 -14 -14 V707 H78" fill="#c7eae5" stroke="#c7eae5" stroke-width="0"/>
		<rect x="202" y="682" width="78" height="50" fill="none" rx="14" stroke="#35978f" stroke-width="2"/>
		<line x1="202" y1="707" x2="280" y2="707" stroke="#35978f" stroke-width="1"/>
		<text x="210" y="699.75" fill="#000000" font-family="Verdana" font-size="12">ARBITRER</text>
	</g>
	<text x="122.3" y="608" fill="#8c510a" font-family="Verdana" font-size="12">1,1</text>
	<text x="423" y="812.4" fill="#8c510a" font-family="Verdana" font-size="12">0,N</text>
</g>

<!-- Association FAIT_PART -->
<g>
	<line x1="530" y1="834" x2="241" y2="834" stroke="#35978f" stroke-width="2"/>
	<line x1="113" y1="834" x2="241" y2="834" stroke="#35978f" stroke-width="2"/>
	<g>
		<path d="M266 809 a14 14 90 0 1 14 14 V834 h-78 V823 a14 14 90 0 1 14 -14" fill="#80cdc1" stroke="#80cdc1" stroke-width="0"/>
		<path d="M280 834 v11 a14 14 90 0 1 -14 14 H216 a14 14 90 0 1 -14 -14 V834 H78" fill="#c7eae5" stroke="#c7eae5" stroke-width="0"/>
		<rect x="202" y="809" width="78" height="50" fill="none" rx="14" stroke="#35978f" stroke-width="2"/>
		<line x1="202" y1="834" x2="280" y2="834" stroke="#35978f" stroke-width="1"/>
		<text x="209" y="826.75" fill="#000000" font-family="Verdana" font-size="12">FAIT PART</text>
	</g>
	<text x="423" y="851" fill="#8c510a" font-family="Verdana" font-size="12">0,N</text>
	<text x="149" y="851" fill="#8c510a" font-family="Verdana" font-size="12">1,1</text>
</g>

<!-- Association AVOIR -->
<g>
	<line x1="763" y1="557" x2="763" y2="834" stroke="#35978f" stroke-width="2"/>
	<line x1="530" y1="834" x2="763" y2="834" stroke="#35978f" stroke-width="2"/>
	<g>
		<path d="M776 809 a14 14 90 0 1 14 14 V834 h-54 V823 a14 14 90 0 1 14 -14" fill="#80cdc1" stroke="#80cdc1" stroke-width="0"/>
		<path d="M790 834 v11 a14 14 90 0 1 -14 14 H750 a14 14 90 0 1 -14 -14 V834 H54" fill="#c7eae5" stroke="#c7eae5" stroke-width="0"/>
		<rect x="736" y="809" width="54" height="50" fill="none" rx="14" stroke="#35978f" stroke-width="2"/>
		<line x1="736" y1="834" x2="790" y2="834" stroke="#35978f" stroke-width="1"/>
		<text x="743" y="826.75" fill="#000000" font-family="Verdana" font-size="12">AVOIR</text>
	</g>
	<text x="768" y="608" fill="#8c510a" font-family="Verdana" font-size="12">0,N</text>
	<text x="615" y="851" fill="#8c510a" font-family="Verdana" font-size="12">1,1</text>
</g>

<!-- Association MEMBRE -->
<g>
	<line x1="530" y1="1087" x2="530" y2="986" stroke="#35978f" stroke-width="2"/>
	<line x1="530" y1="834" x2="530" y2="986" stroke="#35978f" stroke-width="2"/>
	<g>
		<path d="M550 961 a14 14 90 0 1 14 14 V986 h-68 V975 a14 14 90 0 1 14 -14" fill="#80cdc1" stroke="#80cdc1" stroke-width="0"/>
		<path d="M564 986 v11 a14 14 90 0 1 -14 14 H510 a14 14 90 0 1 -14 -14 V986 H68" fill="#c7eae5" stroke="#c7eae5" stroke-width="0"/>
		<rect x="496" y="961" width="68" height="50" fill="none" rx="14" stroke="#35978f" stroke-width="2"/>
		<line x1="496" y1="986" x2="564" y2="986" stroke="#35978f" stroke-width="1"/>
		<text x="504" y="978.75" fill="#000000" font-family="Verdana" font-size="12">MEMBRE</text>
	</g>
	<text x="535" y="1028" fill="#8c510a" font-family="Verdana" font-size="12">0,N</text>
	<text x="535" y="953" fill="#8c510a" font-family="Verdana" font-size="12">1,1</text>
</g>

<!-- Entity POULE -->
<g>
	<g>
		<rect x="9" y="52" width="54" height="25" fill="#dfc27d" stroke="none" stroke-width="0" opacity="1"/>
		<rect x="9" y="77" width="54" height="25" fill="#f6e8c3" stroke="none" stroke-width="0" opacity="1"/>
		<rect x="9" y="52" width="54" height="50" fill="none" stroke="#bf812d" stroke-width="2" opacity="1"/>
		<line x1="9" y1="77" x2="63" y2="77" stroke="#bf812d" stroke-width="1"/>
	</g>
	<text x="16" y="69.75" fill="#000000" font-family="Verdana" font-size="12">POULE</text>
	<text x="14" y="94.8" fill="#000000" font-family="Verdana" font-size="12">idPoule</text>
	<line x1="14" y1="97" x2="58" y2="97" stroke="#000000" stroke-width="1"/>
</g>

<!-- Entity PHASE_FINAL -->
<g>
	<g>
		<rect x="193" y="52" width="96" height="25" fill="#dfc27d" stroke="none" stroke-width="0" opacity="1"/>
		<rect x="193" y="77" width="96" height="25" fill="#f6e8c3" stroke="none" stroke-width="0" opacity="1"/>
		<rect x="193" y="52" width="96" height="50" fill="none" stroke="#bf812d" stroke-width="2" opacity="1"/>
		<line x1="193" y1="77" x2="289" y2="77" stroke="#bf812d" stroke-width="1"/>
	</g>
	<text x="199" y="69.75" fill="#000000" font-family="Verdana" font-size="12">PHASE_FINAL</text>
	<text x="198" y="94.8" fill="#000000" font-family="Verdana" font-size="12">idPhaseFinal</text>
	<line x1="198" y1="97" x2="273" y2="97" stroke="#000000" stroke-width="1"/>
</g>

<!-- Entity ORGANISATEUR -->
<g>
	<g>
		<rect x="441" y="9" width="178" height="25" fill="#dfc27d" stroke="none" stroke-width="0" opacity="1"/>
		<rect x="441" y="34" width="178" height="111" fill="#f6e8c3" stroke="none" stroke-width="0" opacity="1"/>
		<rect x="441" y="9" width="178" height="136" fill="none" stroke="#bf812d" stroke-width="2" opacity="1"/>
		<line x1="441" y1="34" x2="619" y2="34" stroke="#bf812d" stroke-width="1"/>
	</g>
	<text x="481" y="26.75" fill="#000000" font-family="Verdana" font-size="12">ORGANISATEUR</text>
	<text x="446" y="51.8" fill="#000000" font-family="Verdana" font-size="12">idOrganisateur</text>
	<line x1="446" y1="54" x2="536" y2="54" stroke="#000000" stroke-width="1"/>
	<text x="446" y="68.8" fill="#000000" font-family="Verdana" font-size="12">nomOrganisateur</text>
	<text x="446" y="85.8" fill="#000000" font-family="Verdana" font-size="12">prenomOrganisateur</text>
	<text x="446" y="102.8" fill="#000000" font-family="Verdana" font-size="12">adresseMailOrganisateur</text>
	<text x="446" y="119.8" fill="#000000" font-family="Verdana" font-size="12">mdpOrganisateur</text>
	<text x="446" y="136.8" fill="#000000" font-family="Verdana" font-size="12">nomUtilisateurOrganisateur</text>
</g>

<!-- Entity PHASE -->
<g>
	<g>
		<rect x="84" y="238" width="58" height="25" fill="#dfc27d" stroke="none" stroke-width="0" opacity="1"/>
		<rect x="84" y="263" width="58" height="25" fill="#f6e8c3" stroke="none" stroke-width="0" opacity="1"/>
		<rect x="84" y="238" width="58" height="50" fill="none" stroke="#bf812d" stroke-width="2" opacity="1"/>
		<line x1="84" y1="263" x2="142" y2="263" stroke="#bf812d" stroke-width="1"/>
	</g>
	<text x="93" y="255.75" fill="#000000" font-family="Verdana" font-size="12">PHASE</text>
	<text x="89" y="280.8" fill="#000000" font-family="Verdana" font-size="12">idPhase</text>
	<line x1="89" y1="283" x2="136" y2="283" stroke="#000000" stroke-width="1"/>
</g>

<!-- Entity COMPETITION -->
<g>
	<g>
		<rect x="457" y="195" width="146" height="25" fill="#dfc27d" stroke="none" stroke-width="0" opacity="1"/>
		<rect x="457" y="220" width="146" height="111" fill="#f6e8c3" stroke="none" stroke-width="0" opacity="1"/>
		<rect x="457" y="195" width="146" height="136" fill="none" stroke="#bf812d" stroke-width="2" opacity="1"/>
		<line x1="457" y1="220" x2="603" y2="220" stroke="#bf812d" stroke-width="1"/>
	</g>
	<text x="487" y="212.75" fill="#000000" font-family="Verdana" font-size="12">COMPETITION</text>
	<text x="462" y="237.8" fill="#000000" font-family="Verdana" font-size="12">idCompetition</text>
	<line x1="462" y1="240" x2="547" y2="240" stroke="#000000" stroke-width="1"/>
	<text x="462" y="254.8" fill="#000000" font-family="Verdana" font-size="12">nomCompetition</text>
	<text x="462" y="271.8" fill="#000000" font-family="Verdana" font-size="12">dateCompetition</text>
	<text x="462" y="288.8" fill="#000000" font-family="Verdana" font-size="12">dateFinInscription</text>
	<text x="462" y="305.8" fill="#000000" font-family="Verdana" font-size="12">coefficientCompetition</text>
	<text x="462" y="322.8" fill="#000000" font-family="Verdana" font-size="12">saisonCompetition</text>
</g>

<!-- Entity ARMES -->
<g>
	<g>
		<rect x="725" y="229" width="76" height="25" fill="#dfc27d" stroke="none" stroke-width="0" opacity="1"/>
		<rect x="725" y="254" width="76" height="43" fill="#f6e8c3" stroke="none" stroke-width="0" opacity="1"/>
		<rect x="725" y="229" width="76" height="68" fill="none" stroke="#bf812d" stroke-width="2" opacity="1"/>
		<line x1="725" y1="254" x2="801" y2="254" stroke="#bf812d" stroke-width="1"/>
	</g>
	<text x="742" y="246.75" fill="#000000" font-family="Verdana" font-size="12">ARMES</text>
	<text x="730" y="271.8" fill="#000000" font-family="Verdana" font-size="12">idArmes</text>
	<line x1="730" y1="274" x2="780" y2="274" stroke="#000000" stroke-width="1"/>
	<text x="730" y="288.8" fill="#000000" font-family="Verdana" font-size="12">nomArmes</text>
</g>

<!-- Entity LIEU -->
<g>
	<g>
		<rect x="190" y="339" width="102" height="25" fill="#dfc27d" stroke="none" stroke-width="0" opacity="1"/>
		<rect x="190" y="364" width="102" height="59" fill="#f6e8c3" stroke="none" stroke-width="0" opacity="1"/>
		<rect x="190" y="339" width="102" height="84" fill="none" stroke="#bf812d" stroke-width="2" opacity="1"/>
		<line x1="190" y1="364" x2="292" y2="364" stroke="#bf812d" stroke-width="1"/>
	</g>
	<text x="227" y="356.75" fill="#000000" font-family="Verdana" font-size="12">LIEU</text>
	<text x="195" y="381.8" fill="#000000" font-family="Verdana" font-size="12">idLieu</text>
	<line x1="195" y1="384" x2="232" y2="384" stroke="#000000" stroke-width="1"/>
	<text x="195" y="398.8" fill="#000000" font-family="Verdana" font-size="12">adresseLieu</text>
	<text x="195" y="415.8" fill="#000000" font-family="Verdana" font-size="12">descriptionLieu</text>
</g>

<!-- Entity PISTE -->
<g>
	<g>
		<rect x="356" y="439" width="106" height="25" fill="#dfc27d" stroke="none" stroke-width="0" opacity="1"/>
		<rect x="356" y="464" width="106" height="43" fill="#f6e8c3" stroke="none" stroke-width="0" opacity="1"/>
		<rect x="356" y="439" width="106" height="68" fill="none" stroke="#bf812d" stroke-width="2" opacity="1"/>
		<line x1="356" y1="464" x2="462" y2="464" stroke="#bf812d" stroke-width="1"/>
	</g>
	<text x="391" y="456.75" fill="#000000" font-family="Verdana" font-size="12">PISTE</text>
	<text x="361" y="481.8" fill="#000000" font-family="Verdana" font-size="12">idPiste</text>
	<line x1="361" y1="484" x2="401" y2="484" stroke="#000000" stroke-width="1"/>
	<text x="361" y="498.8" fill="#000000" font-family="Verdana" font-size="12">descriptionPiste</text>
</g>

<!-- Entity MATCHS -->
<g>
	<g>
		<rect x="82" y="523" width="62" height="25" fill="#dfc27d" stroke="none" stroke-width="0" opacity="1"/>
		<rect x="82" y="548" width="62" height="43" fill="#f6e8c3" stroke="none" stroke-width="0" opacity="1"/>
		<rect x="82" y="523" width="62" height="68" fill="none" stroke="#bf812d" stroke-width="2" opacity="1"/>
		<line x1="82" y1="548" x2="144" y2="548" stroke="#bf812d" stroke-width="1"/>
	</g>
	<text x="87" y="540.75" fill="#000000" font-family="Verdana" font-size="12">MATCHS</text>
	<text x="87" y="565.8" fill="#000000" font-family="Verdana" font-size="12">idMatch</text>
	<line x1="87" y1="568" x2="135" y2="568" stroke="#000000" stroke-width="1"/>
	<text x="87" y="582.8" fill="#000000" font-family="Verdana" font-size="12">fini</text>
</g>

<!-- Entity CATEGORIE -->
<g>
	<g>
		<rect x="715" y="523" width="96" height="25" fill="#dfc27d" stroke="none" stroke-width="0" opacity="1"/>
		<rect x="715" y="548" width="96" height="43" fill="#f6e8c3" stroke="none" stroke-width="0" opacity="1"/>
		<rect x="715" y="523" width="96" height="68" fill="none" stroke="#bf812d" stroke-width="2" opacity="1"/>
		<line x1="715" y1="548" x2="811" y2="548" stroke="#bf812d" stroke-width="1"/>
	</g>
	<text x="727" y="540.75" fill="#000000" font-family="Verdana" font-size="12">CATEGORIE</text>
	<text x="720" y="565.8" fill="#000000" font-family="Verdana" font-size="12">idCategorie</text>
	<line x1="720" y1="568" x2="790" y2="568" stroke="#000000" stroke-width="1"/>
	<text x="720" y="582.8" fill="#000000" font-family="Verdana" font-size="12">nomCategorie</text>
</g>

<!-- Entity TOUCHE -->
<g>
	<g>
		<rect x="82" y="809" width="62" height="25" fill="#dfc27d" stroke="none" stroke-width="0" opacity="1"/>
		<rect x="82" y="834" width="62" height="25" fill="#f6e8c3" stroke="none" stroke-width="0" opacity="1"/>
		<rect x="82" y="809" width="62" height="50" fill="none" stroke="#bf812d" stroke-width="2" opacity="1"/>
		<line x1="82" y1="834" x2="144" y2="834" stroke="#bf812d" stroke-width="1"/>
	</g>
	<text x="87" y="826.75" fill="#000000" font-family="Verdana" font-size="12">TOUCHE</text>
	<text x="87" y="851.8" fill="#000000" font-family="Verdana" font-size="12">numT</text>
	<line x1="87" y1="854" x2="122" y2="854" stroke="#000000" stroke-width="1"/>
</g>

<!-- Entity ESCRIMEUR -->
<g>
	<g>
		<rect x="450" y="732" width="160" height="25" fill="#dfc27d" stroke="none" stroke-width="0" opacity="1"/>
		<rect x="450" y="757" width="160" height="179" fill="#f6e8c3" stroke="none" stroke-width="0" opacity="1"/>
		<rect x="450" y="732" width="160" height="204" fill="none" stroke="#bf812d" stroke-width="2" opacity="1"/>
		<line x1="450" y1="757" x2="610" y2="757" stroke="#bf812d" stroke-width="1"/>
	</g>
	<text x="494" y="749.75" fill="#000000" font-family="Verdana" font-size="12">ESCRIMEUR</text>
	<text x="455" y="774.8" fill="#000000" font-family="Verdana" font-size="12">idEscrimeur</text>
	<line x1="455" y1="777" x2="527" y2="777" stroke="#000000" stroke-width="1"/>
	<text x="455" y="791.8" fill="#000000" font-family="Verdana" font-size="12">nomEscrimeur</text>
	<text x="455" y="808.8" fill="#000000" font-family="Verdana" font-size="12">prenomEscrimeur</text>
	<text x="455" y="825.8" fill="#000000" font-family="Verdana" font-size="12">dateNaissance</text>
	<text x="455" y="842.8" fill="#000000" font-family="Verdana" font-size="12">licence</text>
	<text x="455" y="859.8" fill="#000000" font-family="Verdana" font-size="12">nomUtilisateurEscrimeur</text>
	<text x="455" y="876.8" fill="#000000" font-family="Verdana" font-size="12">mdpEscrimeur</text>
	<text x="455" y="893.8" fill="#000000" font-family="Verdana" font-size="12">classement</text>
	<text x="455" y="910.8" fill="#000000" font-family="Verdana" font-size="12">sexe</text>
	<text x="455" y="927.8" fill="#000000" font-family="Verdana" font-size="12">arbitrage</text>
</g>

<!-- Entity CLUB -->
<g>
	<g>
		<rect x="488" y="1036" width="84" height="25" fill="#dfc27d" stroke="none" stroke-width="0" opacity="1"/>
		<rect x="488" y="1061" width="84" height="77" fill="#f6e8c3" stroke="none" stroke-width="0" opacity="1"/>
		<rect x="488" y="1036" width="84" height="102" fill="none" stroke="#bf812d" stroke-width="2" opacity="1"/>
		<line x1="488" y1="1061" x2="572" y2="1061" stroke="#bf812d" stroke-width="1"/>
	</g>
	<text x="514" y="1053.75" fill="#000000" font-family="Verdana" font-size="12">CLUB</text>
	<text x="493" y="1078.8" fill="#000000" font-family="Verdana" font-size="12">idClub</text>
	<line x1="493" y1="1081" x2="532" y2="1081" stroke="#000000" stroke-width="1"/>
	<text x="493" y="1095.8" fill="#000000" font-family="Verdana" font-size="12">nomClub</text>
	<text x="493" y="1112.8" fill="#000000" font-family="Verdana" font-size="12">adresseClub</text>
	<text x="493" y="1129.8" fill="#000000" font-family="Verdana" font-size="12">mdpClub</text>
</g>
</svg>